<svg width="1440" height="249" viewBox="0 0 1440 249" fill="none" xmlns="http://www.w3.org/2000/svg">
<rect width="1440" height="249" fill="#141718"/>
<path d="M161.662 86.824C161.758 85.336 162.326 84.176 163.366 83.344C164.422 82.512 165.766 82.096 167.398 82.096C168.518 82.096 169.486 82.296 170.302 82.696C171.118 83.096 171.734 83.64 172.15 84.328C172.566 85.016 172.774 85.792 172.774 86.656C172.774 87.648 172.51 88.496 171.982 89.2C171.454 89.904 170.822 90.376 170.086 90.616V90.712C171.03 91 171.766 91.528 172.294 92.296C172.822 93.048 173.086 94.016 173.086 95.2C173.086 96.144 172.87 96.984 172.438 97.72C172.006 98.456 171.366 99.04 170.518 99.472C169.67 99.888 168.654 100.096 167.47 100.096C165.742 100.096 164.318 99.656 163.198 98.776C162.094 97.88 161.502 96.6 161.422 94.936H164.062C164.126 95.784 164.454 96.48 165.046 97.024C165.638 97.552 166.438 97.816 167.446 97.816C168.422 97.816 169.174 97.552 169.702 97.024C170.23 96.48 170.494 95.784 170.494 94.936C170.494 93.816 170.134 93.024 169.414 92.56C168.71 92.08 167.622 91.84 166.15 91.84H165.526V89.584H166.174C167.47 89.568 168.454 89.352 169.126 88.936C169.814 88.52 170.158 87.864 170.158 86.968C170.158 86.2 169.91 85.592 169.414 85.144C168.918 84.68 168.214 84.448 167.302 84.448C166.406 84.448 165.71 84.68 165.214 85.144C164.718 85.592 164.422 86.152 164.326 86.824H161.662ZM179.056 82.24V100H176.32V82.24H179.056ZM194.768 93.064C194.768 93.56 194.736 94.008 194.672 94.408H184.568C184.648 95.464 185.04 96.312 185.744 96.952C186.448 97.592 187.312 97.912 188.336 97.912C189.808 97.912 190.848 97.296 191.456 96.064H194.408C194.008 97.28 193.28 98.28 192.224 99.064C191.184 99.832 189.888 100.216 188.336 100.216C187.072 100.216 185.936 99.936 184.928 99.376C183.936 98.8 183.152 98 182.576 96.976C182.016 95.936 181.736 94.736 181.736 93.376C181.736 92.016 182.008 90.824 182.552 89.8C183.112 88.76 183.888 87.96 184.88 87.4C185.888 86.84 187.04 86.56 188.336 86.56C189.584 86.56 190.696 86.832 191.672 87.376C192.648 87.92 193.408 88.688 193.952 89.68C194.496 90.656 194.768 91.784 194.768 93.064ZM191.912 92.2C191.896 91.192 191.536 90.384 190.832 89.776C190.128 89.168 189.256 88.864 188.216 88.864C187.272 88.864 186.464 89.168 185.792 89.776C185.12 90.368 184.72 91.176 184.592 92.2H191.912ZM202.788 86.56C203.812 86.56 204.716 86.768 205.5 87.184C206.3 87.584 206.924 88.088 207.372 88.696V86.776H210.132V100.216C210.132 101.432 209.876 102.512 209.364 103.456C208.852 104.416 208.108 105.168 207.132 105.712C206.172 106.256 205.02 106.528 203.676 106.528C201.884 106.528 200.396 106.104 199.212 105.256C198.028 104.424 197.356 103.288 197.196 101.848H199.908C200.116 102.536 200.556 103.088 201.228 103.504C201.916 103.936 202.732 104.152 203.676 104.152C204.78 104.152 205.668 103.816 206.34 103.144C207.028 102.472 207.372 101.496 207.372 100.216V98.008C206.908 98.632 206.276 99.16 205.476 99.592C204.692 100.008 203.796 100.216 202.788 100.216C201.636 100.216 200.58 99.928 199.62 99.352C198.676 98.76 197.924 97.944 197.364 96.904C196.82 95.848 196.548 94.656 196.548 93.328C196.548 92 196.82 90.824 197.364 89.8C197.924 88.776 198.676 87.984 199.62 87.424C200.58 86.848 201.636 86.56 202.788 86.56ZM207.372 93.376C207.372 92.464 207.18 91.672 206.796 91C206.428 90.328 205.94 89.816 205.332 89.464C204.724 89.112 204.068 88.936 203.364 88.936C202.66 88.936 202.004 89.112 201.396 89.464C200.788 89.8 200.292 90.304 199.908 90.976C199.54 91.632 199.356 92.416 199.356 93.328C199.356 94.24 199.54 95.04 199.908 95.728C200.292 96.416 200.788 96.944 201.396 97.312C202.02 97.664 202.676 97.84 203.364 97.84C204.068 97.84 204.724 97.664 205.332 97.312C205.94 96.96 206.428 96.448 206.796 95.776C207.18 95.088 207.372 94.288 207.372 93.376ZM212.814 93.328C212.814 92 213.086 90.824 213.63 89.8C214.19 88.776 214.942 87.984 215.886 87.424C216.846 86.848 217.902 86.56 219.054 86.56C220.094 86.56 220.998 86.768 221.766 87.184C222.55 87.584 223.174 88.088 223.638 88.696V86.776H226.398V100H223.638V98.032C223.174 98.656 222.542 99.176 221.742 99.592C220.942 100.008 220.03 100.216 219.006 100.216C217.87 100.216 216.83 99.928 215.886 99.352C214.942 98.76 214.19 97.944 213.63 96.904C213.086 95.848 212.814 94.656 212.814 93.328ZM223.638 93.376C223.638 92.464 223.446 91.672 223.062 91C222.694 90.328 222.206 89.816 221.598 89.464C220.99 89.112 220.334 88.936 219.63 88.936C218.926 88.936 218.27 89.112 217.662 89.464C217.054 89.8 216.558 90.304 216.174 90.976C215.806 91.632 215.622 92.416 215.622 93.328C215.622 94.24 215.806 95.04 216.174 95.728C216.558 96.416 217.054 96.944 217.662 97.312C218.286 97.664 218.942 97.84 219.63 97.84C220.334 97.84 220.99 97.664 221.598 97.312C222.206 96.96 222.694 96.448 223.062 95.776C223.446 95.088 223.638 94.288 223.638 93.376ZM236.663 86.56C237.703 86.56 238.631 86.776 239.447 87.208C240.279 87.64 240.927 88.28 241.391 89.128C241.855 89.976 242.087 91 242.087 92.2V100H239.375V92.608C239.375 91.424 239.079 90.52 238.487 89.896C237.895 89.256 237.087 88.936 236.063 88.936C235.039 88.936 234.223 89.256 233.615 89.896C233.023 90.52 232.727 91.424 232.727 92.608V100H229.991V86.776H232.727V88.288C233.175 87.744 233.743 87.32 234.431 87.016C235.135 86.712 235.879 86.56 236.663 86.56ZM248.769 89.008V96.328C248.769 96.824 248.881 97.184 249.105 97.408C249.345 97.616 249.745 97.72 250.305 97.72H251.985V100H249.825C248.593 100 247.649 99.712 246.993 99.136C246.337 98.56 246.009 97.624 246.009 96.328V89.008H244.449V86.776H246.009V83.488H248.769V86.776H251.985V89.008H248.769Z" fill="white"/>
<path d="M255.611 100.168C255.115 100.168 254.699 100 254.363 99.664C254.027 99.328 253.859 98.912 253.859 98.416C253.859 97.92 254.027 97.504 254.363 97.168C254.699 96.832 255.115 96.664 255.611 96.664C256.091 96.664 256.499 96.832 256.835 97.168C257.171 97.504 257.339 97.92 257.339 98.416C257.339 98.912 257.171 99.328 256.835 99.664C256.499 100 256.091 100.168 255.611 100.168Z" fill="#6C7275"/>
<rect x="297" y="80" width="1" height="24" fill="#6C7275"/>
<path d="M338.193 90C338.084 89.6652 337.94 89.3653 337.761 89.1001C337.585 88.8317 337.375 88.603 337.129 88.4141C336.887 88.2251 336.612 88.081 336.304 87.9815C335.996 87.8821 335.658 87.8324 335.29 87.8324C334.687 87.8324 334.138 87.9882 333.644 88.2997C333.15 88.6113 332.758 89.0703 332.466 89.6768C332.174 90.2834 332.028 91.0275 332.028 91.9091C332.028 92.7907 332.176 93.5348 332.471 94.1413C332.766 94.7479 333.165 95.2069 333.669 95.5185C334.173 95.83 334.74 95.9858 335.369 95.9858C335.953 95.9858 336.466 95.8615 336.911 95.6129C337.358 95.361 337.706 95.0064 337.955 94.549C338.206 94.0883 338.332 93.5464 338.332 92.9233L338.71 93.0028H335.648V91.9091H339.526V93.0028C339.526 93.8414 339.347 94.5705 338.989 95.1903C338.634 95.8101 338.143 96.2907 337.517 96.6321C336.894 96.9702 336.178 97.1392 335.369 97.1392C334.468 97.1392 333.676 96.9271 332.993 96.5028C332.313 96.0786 331.783 95.4754 331.402 94.6932C331.024 93.911 330.835 92.983 330.835 91.9091C330.835 91.1037 330.943 90.3795 331.158 89.7365C331.377 89.0902 331.685 88.54 332.083 88.0859C332.481 87.6319 332.951 87.2839 333.495 87.0419C334.039 86.8 334.637 86.679 335.29 86.679C335.827 86.679 336.327 86.7602 336.791 86.9226C337.259 87.0817 337.674 87.3087 338.039 87.6037C338.407 87.8954 338.714 88.245 338.959 88.6527C339.204 89.0571 339.373 89.5062 339.466 90H338.193ZM341.957 97V89.3636H343.13V97H341.957ZM342.553 88.0909C342.325 88.0909 342.127 88.013 341.962 87.8572C341.799 87.7015 341.718 87.5142 341.718 87.2955C341.718 87.0767 341.799 86.8894 341.962 86.7337C342.127 86.5779 342.325 86.5 342.553 86.5C342.782 86.5 342.978 86.5779 343.14 86.7337C343.306 86.8894 343.388 87.0767 343.388 87.2955C343.388 87.5142 343.306 87.7015 343.14 87.8572C342.978 88.013 342.782 88.0909 342.553 88.0909ZM348.68 89.3636V90.358H344.563V89.3636H348.68ZM345.796 97V88.3097C345.796 87.8722 345.899 87.5076 346.104 87.2159C346.31 86.9242 346.577 86.7055 346.905 86.5597C347.233 86.4138 347.579 86.3409 347.944 86.3409C348.232 86.3409 348.467 86.3641 348.65 86.4105C348.832 86.4569 348.968 86.5 349.057 86.5398L348.719 87.554C348.66 87.5341 348.577 87.5092 348.471 87.4794C348.368 87.4496 348.232 87.4347 348.063 87.4347C347.675 87.4347 347.395 87.5324 347.223 87.728C347.054 87.9235 346.969 88.2102 346.969 88.5881V97H345.796ZM353.645 89.3636V90.358H349.688V89.3636H353.645ZM350.841 87.5341H352.014V94.8125C352.014 95.1439 352.062 95.3925 352.158 95.5582C352.258 95.7206 352.384 95.83 352.536 95.8864C352.692 95.9394 352.856 95.9659 353.028 95.9659C353.158 95.9659 353.264 95.9593 353.347 95.946C353.429 95.9295 353.496 95.9162 353.545 95.9062L353.784 96.9602C353.705 96.9901 353.594 97.0199 353.451 97.0497C353.308 97.0829 353.128 97.0994 352.909 97.0994C352.578 97.0994 352.253 97.0282 351.935 96.8857C351.62 96.7431 351.358 96.526 351.149 96.2344C350.944 95.9427 350.841 95.5748 350.841 95.1307V87.5341ZM362.231 97.1392C361.561 97.1392 360.985 97.0166 360.501 96.7713C360.017 96.526 359.644 96.1896 359.382 95.7621C359.12 95.3345 358.989 94.8456 358.989 94.2955C358.989 93.8712 359.079 93.495 359.258 93.1669C359.44 92.8355 359.69 92.5289 360.009 92.2472C360.33 91.9621 360.7 91.6771 361.117 91.392L362.589 90.2983C362.877 90.1094 363.107 89.9072 363.28 89.6918C363.455 89.4763 363.543 89.1946 363.543 88.8466C363.543 88.5881 363.429 88.3378 363.2 88.0959C362.975 87.8539 362.678 87.733 362.31 87.733C362.052 87.733 361.823 87.7992 361.624 87.9318C361.429 88.0611 361.275 88.2268 361.162 88.429C361.053 88.6278 360.998 88.8333 360.998 89.0455C360.998 89.2841 361.063 89.526 361.192 89.7713C361.324 90.0133 361.492 90.2618 361.694 90.517C361.899 90.7689 362.112 91.0275 362.33 91.2926L367.004 97H365.592L361.734 92.3466C361.376 91.9157 361.051 91.5246 360.759 91.1733C360.468 90.822 360.236 90.4756 360.063 90.1342C359.891 89.7929 359.805 89.4233 359.805 89.0256C359.805 88.5682 359.906 88.1671 360.108 87.8224C360.313 87.4744 360.6 87.2043 360.968 87.0121C361.339 86.8165 361.773 86.7188 362.271 86.7188C362.781 86.7188 363.22 86.8182 363.588 87.017C363.956 87.2126 364.239 87.4728 364.438 87.7976C364.637 88.1191 364.737 88.4688 364.737 88.8466C364.737 89.3338 364.616 89.7564 364.374 90.1143C364.132 90.4723 363.802 90.8054 363.384 91.1136L361.356 92.625C360.898 92.9631 360.589 93.2912 360.426 93.6094C360.264 93.9276 360.183 94.1562 360.183 94.2955C360.183 94.6136 360.265 94.9103 360.431 95.1854C360.597 95.4605 360.83 95.6825 361.132 95.8516C361.434 96.0206 361.787 96.1051 362.191 96.1051C362.576 96.1051 362.95 96.0239 363.315 95.8615C363.679 95.6958 364.009 95.4571 364.304 95.1456C364.602 94.834 364.838 94.4595 365.01 94.022C365.186 93.5845 365.273 93.0923 365.273 92.5455H366.407C366.407 93.2216 366.329 93.7734 366.173 94.201C366.018 94.6286 365.842 94.9633 365.646 95.2053C365.451 95.4472 365.293 95.6278 365.174 95.7472C365.134 95.7969 365.098 95.8466 365.065 95.8963C365.031 95.946 364.995 95.9957 364.955 96.0455C364.627 96.4134 364.213 96.6884 363.712 96.8707C363.212 97.0497 362.718 97.1392 362.231 97.1392ZM375.541 97H372.399V86.8182H375.68C376.668 86.8182 377.513 87.022 378.216 87.4297C378.918 87.834 379.457 88.4157 379.831 89.1747C380.206 89.9304 380.393 90.8352 380.393 91.8892C380.393 92.9498 380.204 93.8629 379.827 94.6286C379.449 95.3909 378.898 95.9775 378.176 96.3885C377.453 96.7962 376.575 97 375.541 97ZM373.632 95.9062H375.461C376.303 95.9062 377.001 95.7438 377.555 95.419C378.108 95.0942 378.521 94.6319 378.792 94.032C379.064 93.4321 379.2 92.7178 379.2 91.8892C379.2 91.0672 379.066 90.3596 378.797 89.7663C378.529 89.1697 378.128 88.7124 377.594 88.3942C377.061 88.0727 376.396 87.9119 375.601 87.9119H373.632V95.9062ZM385.504 97.1591C384.768 97.1591 384.134 96.9967 383.6 96.6719C383.07 96.3438 382.66 95.8864 382.372 95.2997C382.087 94.7098 381.944 94.0237 381.944 93.2415C381.944 92.4593 382.087 91.7699 382.372 91.1733C382.66 90.5734 383.061 90.1061 383.575 89.7713C384.092 89.4332 384.695 89.2642 385.385 89.2642C385.782 89.2642 386.175 89.3305 386.563 89.4631C386.951 89.5956 387.304 89.8111 387.622 90.1094C387.94 90.4044 388.194 90.7955 388.383 91.2827C388.572 91.7699 388.666 92.3698 388.666 93.0824V93.5795H382.78V92.5653H387.473C387.473 92.1345 387.387 91.75 387.214 91.4119C387.045 91.0739 386.803 90.8071 386.488 90.6115C386.177 90.416 385.809 90.3182 385.385 90.3182C384.917 90.3182 384.513 90.4342 384.172 90.6662C383.834 90.8949 383.573 91.1932 383.391 91.5611C383.209 91.929 383.118 92.3234 383.118 92.7443V93.4205C383.118 93.9972 383.217 94.486 383.416 94.8871C383.618 95.2848 383.898 95.5881 384.256 95.7969C384.614 96.0024 385.03 96.1051 385.504 96.1051C385.812 96.1051 386.091 96.062 386.339 95.9759C386.591 95.8864 386.808 95.7538 386.991 95.5781C387.173 95.3991 387.314 95.1771 387.413 94.9119L388.547 95.2301C388.427 95.6146 388.227 95.9527 387.945 96.2443C387.663 96.5327 387.315 96.758 386.901 96.9205C386.487 97.0795 386.021 97.1591 385.504 97.1591ZM393.553 97.1591C392.837 97.1591 392.221 96.9901 391.704 96.652C391.187 96.3139 390.789 95.8482 390.51 95.255C390.232 94.6617 390.093 93.9839 390.093 93.2216C390.093 92.446 390.235 91.7616 390.52 91.1683C390.809 90.5717 391.21 90.1061 391.724 89.7713C392.241 89.4332 392.844 89.2642 393.533 89.2642C394.07 89.2642 394.554 89.3636 394.985 89.5625C395.416 89.7614 395.769 90.0398 396.044 90.3977C396.319 90.7557 396.49 91.1733 396.556 91.6506H395.383C395.293 91.3026 395.094 90.9943 394.786 90.7259C394.481 90.4541 394.07 90.3182 393.553 90.3182C393.096 90.3182 392.695 90.4375 392.35 90.6761C392.009 90.9115 391.742 91.2446 391.55 91.6754C391.361 92.103 391.266 92.6051 391.266 93.1818C391.266 93.7718 391.359 94.2855 391.545 94.723C391.733 95.1605 391.999 95.5002 392.34 95.7422C392.685 95.9841 393.089 96.1051 393.553 96.1051C393.858 96.1051 394.135 96.0521 394.383 95.946C394.632 95.84 394.842 95.6875 395.015 95.4886C395.187 95.2898 395.31 95.0511 395.383 94.7727H396.556C396.49 95.2235 396.326 95.6295 396.064 95.9908C395.805 96.3487 395.462 96.6338 395.035 96.8459C394.61 97.0547 394.117 97.1591 393.553 97.1591ZM401.373 97.1591C400.684 97.1591 400.079 96.995 399.559 96.6669C399.042 96.3388 398.637 95.8797 398.346 95.2898C398.057 94.6998 397.913 94.0104 397.913 93.2216C397.913 92.4261 398.057 91.7318 398.346 91.1385C398.637 90.5452 399.042 90.0845 399.559 89.7564C400.079 89.4283 400.684 89.2642 401.373 89.2642C402.063 89.2642 402.666 89.4283 403.183 89.7564C403.703 90.0845 404.108 90.5452 404.396 91.1385C404.688 91.7318 404.834 92.4261 404.834 93.2216C404.834 94.0104 404.688 94.6998 404.396 95.2898C404.108 95.8797 403.703 96.3388 403.183 96.6669C402.666 96.995 402.063 97.1591 401.373 97.1591ZM401.373 96.1051C401.897 96.1051 402.328 95.9709 402.666 95.7024C403.004 95.4339 403.254 95.081 403.417 94.6435C403.579 94.206 403.66 93.732 403.66 93.2216C403.66 92.7112 403.579 92.2356 403.417 91.7947C403.254 91.3539 403.004 90.9976 402.666 90.7259C402.328 90.4541 401.897 90.3182 401.373 90.3182C400.85 90.3182 400.419 90.4541 400.081 90.7259C399.743 90.9976 399.492 91.3539 399.33 91.7947C399.168 92.2356 399.086 92.7112 399.086 93.2216C399.086 93.732 399.168 94.206 399.33 94.6435C399.492 95.081 399.743 95.4339 400.081 95.7024C400.419 95.9709 400.85 96.1051 401.373 96.1051ZM406.625 97V89.3636H407.758V90.517H407.838C407.977 90.1392 408.229 89.8326 408.593 89.5973C408.958 89.362 409.369 89.2443 409.826 89.2443C409.913 89.2443 410.02 89.246 410.15 89.2493C410.279 89.2526 410.377 89.2576 410.443 89.2642V90.4574C410.403 90.4474 410.312 90.4325 410.169 90.4126C410.03 90.3894 409.883 90.3778 409.727 90.3778C409.356 90.3778 409.024 90.4557 408.733 90.6115C408.444 90.764 408.216 90.9761 408.047 91.2479C407.881 91.5163 407.798 91.8229 407.798 92.1676V97H406.625ZM414.081 97.179C413.597 97.179 413.158 97.0878 412.763 96.9055C412.369 96.7199 412.056 96.4531 411.824 96.1051C411.592 95.7538 411.476 95.3295 411.476 94.8324C411.476 94.3949 411.562 94.0402 411.734 93.7685C411.907 93.4934 412.137 93.2779 412.425 93.1222C412.714 92.9664 413.032 92.8504 413.38 92.7741C413.731 92.6946 414.084 92.6316 414.439 92.5852C414.903 92.5256 415.279 92.4808 415.567 92.451C415.859 92.4179 416.071 92.3632 416.204 92.2869C416.34 92.2107 416.407 92.0781 416.407 91.8892V91.8494C416.407 91.3589 416.273 90.9777 416.005 90.706C415.74 90.4342 415.337 90.2983 414.797 90.2983C414.237 90.2983 413.797 90.4209 413.479 90.6662C413.161 90.9115 412.937 91.1733 412.808 91.4517L411.694 91.054C411.893 90.59 412.158 90.2287 412.49 89.9702C412.825 89.7083 413.189 89.526 413.584 89.4233C413.981 89.3172 414.372 89.2642 414.757 89.2642C415.002 89.2642 415.284 89.294 415.602 89.3537C415.924 89.41 416.233 89.5277 416.532 89.7067C416.833 89.8857 417.084 90.1558 417.282 90.517C417.481 90.8783 417.581 91.3622 417.581 91.9688V97H416.407V95.9659H416.348C416.268 96.1316 416.136 96.3089 415.95 96.4979C415.765 96.6868 415.518 96.8475 415.209 96.9801C414.901 97.1127 414.525 97.179 414.081 97.179ZM414.26 96.125C414.724 96.125 415.115 96.0339 415.433 95.8516C415.755 95.6693 415.997 95.4339 416.159 95.1456C416.325 94.8572 416.407 94.554 416.407 94.2358V93.1619C416.358 93.2216 416.248 93.2763 416.079 93.326C415.914 93.3724 415.721 93.4138 415.503 93.4503C415.287 93.4834 415.077 93.5133 414.871 93.5398C414.669 93.563 414.505 93.5829 414.379 93.5994C414.074 93.6392 413.789 93.7038 413.524 93.7933C413.262 93.8795 413.05 94.0104 412.888 94.1861C412.729 94.3584 412.649 94.5937 412.649 94.892C412.649 95.2997 412.8 95.608 413.101 95.8168C413.406 96.0223 413.792 96.125 414.26 96.125ZM423.043 89.3636V90.358H419.086V89.3636H423.043ZM420.239 87.5341H421.413V94.8125C421.413 95.1439 421.461 95.3925 421.557 95.5582C421.656 95.7206 421.782 95.83 421.935 95.8864C422.09 95.9394 422.254 95.9659 422.427 95.9659C422.556 95.9659 422.662 95.9593 422.745 95.946C422.828 95.9295 422.894 95.9162 422.944 95.9062L423.183 96.9602C423.103 96.9901 422.992 97.0199 422.849 97.0497C422.707 97.0829 422.526 97.0994 422.308 97.0994C421.976 97.0994 421.651 97.0282 421.333 96.8857C421.018 96.7431 420.756 96.526 420.548 96.2344C420.342 95.9427 420.239 95.5748 420.239 95.1307V87.5341ZM424.808 97V89.3636H425.982V97H424.808ZM425.405 88.0909C425.176 88.0909 424.979 88.013 424.813 87.8572C424.651 87.7015 424.57 87.5142 424.57 87.2955C424.57 87.0767 424.651 86.8894 424.813 86.7337C424.979 86.5779 425.176 86.5 425.405 86.5C425.634 86.5 425.829 86.5779 425.991 86.7337C426.157 86.8894 426.24 87.0767 426.24 87.2955C426.24 87.5142 426.157 87.7015 425.991 87.8572C425.829 88.013 425.634 88.0909 425.405 88.0909ZM431.233 97.1591C430.543 97.1591 429.939 96.995 429.418 96.6669C428.901 96.3388 428.497 95.8797 428.205 95.2898C427.917 94.6998 427.773 94.0104 427.773 93.2216C427.773 92.4261 427.917 91.7318 428.205 91.1385C428.497 90.5452 428.901 90.0845 429.418 89.7564C429.939 89.4283 430.543 89.2642 431.233 89.2642C431.922 89.2642 432.525 89.4283 433.042 89.7564C433.563 90.0845 433.967 90.5452 434.256 91.1385C434.547 91.7318 434.693 92.4261 434.693 93.2216C434.693 94.0104 434.547 94.6998 434.256 95.2898C433.967 95.8797 433.563 96.3388 433.042 96.6669C432.525 96.995 431.922 97.1591 431.233 97.1591ZM431.233 96.1051C431.756 96.1051 432.187 95.9709 432.525 95.7024C432.863 95.4339 433.114 95.081 433.276 94.6435C433.439 94.206 433.52 93.732 433.52 93.2216C433.52 92.7112 433.439 92.2356 433.276 91.7947C433.114 91.3539 432.863 90.9976 432.525 90.7259C432.187 90.4541 431.756 90.3182 431.233 90.3182C430.709 90.3182 430.278 90.4541 429.94 90.7259C429.602 90.9976 429.352 91.3539 429.189 91.7947C429.027 92.2356 428.946 92.7112 428.946 93.2216C428.946 93.732 429.027 94.206 429.189 94.6435C429.352 95.081 429.602 95.4339 429.94 95.7024C430.278 95.9709 430.709 96.1051 431.233 96.1051ZM437.657 92.4062V97H436.484V89.3636H437.618V90.5568H437.717C437.896 90.169 438.168 89.8575 438.532 89.6222C438.897 89.3835 439.368 89.2642 439.944 89.2642C440.461 89.2642 440.914 89.3703 441.301 89.5824C441.689 89.7912 441.991 90.1094 442.206 90.5369C442.422 90.9612 442.529 91.4981 442.529 92.1477V97H441.356V92.2273C441.356 91.6274 441.2 91.16 440.889 90.8253C440.577 90.4872 440.15 90.3182 439.606 90.3182C439.232 90.3182 438.897 90.3994 438.602 90.5618C438.31 90.7242 438.08 90.9612 437.911 91.2727C437.742 91.5843 437.657 91.9621 437.657 92.4062ZM454.338 89.3636C454.279 88.8598 454.037 88.4688 453.612 88.1903C453.188 87.9119 452.668 87.7727 452.051 87.7727C451.601 87.7727 451.206 87.8456 450.868 87.9915C450.533 88.1373 450.271 88.3378 450.083 88.593C449.897 88.8482 449.804 89.1383 449.804 89.4631C449.804 89.7348 449.869 89.9685 449.998 90.1641C450.131 90.3563 450.3 90.517 450.505 90.6463C450.711 90.7723 450.926 90.8767 451.151 90.9595C451.377 91.0391 451.584 91.1037 451.773 91.1534L452.807 91.4318C453.072 91.5014 453.367 91.5975 453.692 91.7202C454.02 91.8428 454.333 92.0102 454.632 92.2223C454.933 92.4311 455.182 92.6996 455.377 93.0277C455.573 93.3558 455.671 93.7585 455.671 94.2358C455.671 94.786 455.526 95.2831 455.238 95.7273C454.953 96.1714 454.535 96.5244 453.985 96.7862C453.438 97.0481 452.774 97.179 451.992 97.179C451.262 97.179 450.631 97.0613 450.097 96.826C449.567 96.5907 449.15 96.2625 448.845 95.8416C448.543 95.4207 448.372 94.9318 448.333 94.375H449.605C449.638 94.7595 449.768 95.0777 449.993 95.3295C450.222 95.5781 450.51 95.7637 450.858 95.8864C451.209 96.0057 451.587 96.0653 451.992 96.0653C452.462 96.0653 452.885 95.9891 453.259 95.8366C453.634 95.6809 453.931 95.4654 454.149 95.1903C454.368 94.9119 454.477 94.5871 454.477 94.2159C454.477 93.8778 454.383 93.6027 454.194 93.3906C454.005 93.1785 453.757 93.0062 453.448 92.8736C453.14 92.741 452.807 92.625 452.449 92.5256L451.196 92.1676C450.401 91.9389 449.771 91.6125 449.307 91.1882C448.843 90.764 448.611 90.2088 448.611 89.5227C448.611 88.9527 448.765 88.4555 449.073 88.0312C449.385 87.6037 449.802 87.2723 450.326 87.0369C450.853 86.7983 451.441 86.679 452.091 86.679C452.747 86.679 453.331 86.7966 453.841 87.032C454.352 87.264 454.756 87.5821 455.054 87.9865C455.356 88.3909 455.515 88.8499 455.531 89.3636H454.338ZM460.86 89.3636V90.358H456.902V89.3636H460.86ZM458.056 87.5341H459.229V94.8125C459.229 95.1439 459.277 95.3925 459.373 95.5582C459.473 95.7206 459.599 95.83 459.751 95.8864C459.907 95.9394 460.071 95.9659 460.243 95.9659C460.373 95.9659 460.479 95.9593 460.561 95.946C460.644 95.9295 460.711 95.9162 460.76 95.9062L460.999 96.9602C460.919 96.9901 460.808 97.0199 460.666 97.0497C460.523 97.0829 460.343 97.0994 460.124 97.0994C459.792 97.0994 459.468 97.0282 459.15 96.8857C458.835 96.7431 458.573 96.526 458.364 96.2344C458.158 95.9427 458.056 95.5748 458.056 95.1307V87.5341ZM465.645 97.1591C464.955 97.1591 464.351 96.995 463.83 96.6669C463.313 96.3388 462.909 95.8797 462.617 95.2898C462.329 94.6998 462.185 94.0104 462.185 93.2216C462.185 92.4261 462.329 91.7318 462.617 91.1385C462.909 90.5452 463.313 90.0845 463.83 89.7564C464.351 89.4283 464.955 89.2642 465.645 89.2642C466.334 89.2642 466.938 89.4283 467.455 89.7564C467.975 90.0845 468.379 90.5452 468.668 91.1385C468.959 91.7318 469.105 92.4261 469.105 93.2216C469.105 94.0104 468.959 94.6998 468.668 95.2898C468.379 95.8797 467.975 96.3388 467.455 96.6669C466.938 96.995 466.334 97.1591 465.645 97.1591ZM465.645 96.1051C466.169 96.1051 466.599 95.9709 466.938 95.7024C467.276 95.4339 467.526 95.081 467.688 94.6435C467.851 94.206 467.932 93.732 467.932 93.2216C467.932 92.7112 467.851 92.2356 467.688 91.7947C467.526 91.3539 467.276 90.9976 466.938 90.7259C466.599 90.4541 466.169 90.3182 465.645 90.3182C465.121 90.3182 464.69 90.4541 464.352 90.7259C464.014 90.9976 463.764 91.3539 463.602 91.7947C463.439 92.2356 463.358 92.7112 463.358 93.2216C463.358 93.732 463.439 94.206 463.602 94.6435C463.764 95.081 464.014 95.4339 464.352 95.7024C464.69 95.9709 465.121 96.1051 465.645 96.1051ZM470.896 97V89.3636H472.03V90.517H472.109C472.248 90.1392 472.5 89.8326 472.865 89.5973C473.229 89.362 473.64 89.2443 474.098 89.2443C474.184 89.2443 474.292 89.246 474.421 89.2493C474.55 89.2526 474.648 89.2576 474.714 89.2642V90.4574C474.675 90.4474 474.583 90.4325 474.441 90.4126C474.302 90.3894 474.154 90.3778 473.998 90.3778C473.627 90.3778 473.296 90.4557 473.004 90.6115C472.716 90.764 472.487 90.9761 472.318 91.2479C472.152 91.5163 472.069 91.8229 472.069 92.1676V97H470.896ZM479.074 97.1591C478.339 97.1591 477.704 96.9967 477.17 96.6719C476.64 96.3438 476.231 95.8864 475.942 95.2997C475.657 94.7098 475.515 94.0237 475.515 93.2415C475.515 92.4593 475.657 91.7699 475.942 91.1733C476.231 90.5734 476.632 90.1061 477.145 89.7713C477.662 89.4332 478.266 89.2642 478.955 89.2642C479.353 89.2642 479.746 89.3305 480.133 89.4631C480.521 89.5956 480.874 89.8111 481.192 90.1094C481.51 90.4044 481.764 90.7955 481.953 91.2827C482.142 91.7699 482.236 92.3698 482.236 93.0824V93.5795H476.35V92.5653H481.043C481.043 92.1345 480.957 91.75 480.785 91.4119C480.616 91.0739 480.374 90.8071 480.059 90.6115C479.747 90.416 479.379 90.3182 478.955 90.3182C478.488 90.3182 478.083 90.4342 477.742 90.6662C477.404 90.8949 477.144 91.1932 476.961 91.5611C476.779 91.929 476.688 92.3234 476.688 92.7443V93.4205C476.688 93.9972 476.787 94.486 476.986 94.8871C477.189 95.2848 477.469 95.5881 477.827 95.7969C478.184 96.0024 478.6 96.1051 479.074 96.1051C479.383 96.1051 479.661 96.062 479.91 95.9759C480.162 95.8864 480.379 95.7538 480.561 95.5781C480.743 95.3991 480.884 95.1771 480.983 94.9119L482.117 95.2301C481.998 95.6146 481.797 95.9527 481.515 96.2443C481.234 96.5327 480.886 96.758 480.471 96.9205C480.057 97.0795 479.591 97.1591 479.074 97.1591Z" fill="#E8ECEF"/>
<path d="M889.233 97V86.8182H890.466V91.3523H895.895V86.8182H897.128V97H895.895V92.446H890.466V97H889.233ZM902.539 97.1591C901.85 97.1591 901.245 96.995 900.725 96.6669C900.208 96.3388 899.803 95.8797 899.512 95.2898C899.223 94.6998 899.079 94.0104 899.079 93.2216C899.079 92.4261 899.223 91.7318 899.512 91.1385C899.803 90.5452 900.208 90.0845 900.725 89.7564C901.245 89.4283 901.85 89.2642 902.539 89.2642C903.229 89.2642 903.832 89.4283 904.349 89.7564C904.869 90.0845 905.274 90.5452 905.562 91.1385C905.854 91.7318 906 92.4261 906 93.2216C906 94.0104 905.854 94.6998 905.562 95.2898C905.274 95.8797 904.869 96.3388 904.349 96.6669C903.832 96.995 903.229 97.1591 902.539 97.1591ZM902.539 96.1051C903.063 96.1051 903.494 95.9709 903.832 95.7024C904.17 95.4339 904.42 95.081 904.583 94.6435C904.745 94.206 904.826 93.732 904.826 93.2216C904.826 92.7112 904.745 92.2356 904.583 91.7947C904.42 91.3539 904.17 90.9976 903.832 90.7259C903.494 90.4541 903.063 90.3182 902.539 90.3182C902.016 90.3182 901.585 90.4541 901.247 90.7259C900.909 90.9976 900.658 91.3539 900.496 91.7947C900.334 92.2356 900.252 92.7112 900.252 93.2216C900.252 93.732 900.334 94.206 900.496 94.6435C900.658 95.081 900.909 95.4339 901.247 95.7024C901.585 95.9709 902.016 96.1051 902.539 96.1051ZM907.791 97V89.3636H908.924V90.5568H909.024C909.183 90.1491 909.44 89.8326 909.794 89.6072C910.149 89.3786 910.575 89.2642 911.072 89.2642C911.576 89.2642 911.995 89.3786 912.33 89.6072C912.668 89.8326 912.931 90.1491 913.12 90.5568H913.2C913.395 90.1624 913.689 89.8492 914.08 89.6172C914.471 89.3819 914.94 89.2642 915.487 89.2642C916.169 89.2642 916.728 89.478 917.162 89.9055C917.596 90.3298 917.813 90.991 917.813 91.8892V97H916.64V91.8892C916.64 91.3258 916.486 90.9231 916.178 90.6811C915.869 90.4392 915.507 90.3182 915.089 90.3182C914.552 90.3182 914.136 90.4806 913.841 90.8054C913.546 91.1269 913.399 91.5346 913.399 92.0284V97H912.205V91.7699C912.205 91.3357 912.065 90.986 911.783 90.7209C911.501 90.4524 911.138 90.3182 910.694 90.3182C910.389 90.3182 910.104 90.3994 909.839 90.5618C909.577 90.7242 909.365 90.9496 909.203 91.2379C909.044 91.523 908.964 91.8527 908.964 92.2273V97H907.791ZM923.16 97.1591C922.425 97.1591 921.79 96.9967 921.256 96.6719C920.726 96.3438 920.317 95.8864 920.028 95.2997C919.743 94.7098 919.601 94.0237 919.601 93.2415C919.601 92.4593 919.743 91.7699 920.028 91.1733C920.317 90.5734 920.718 90.1061 921.231 89.7713C921.748 89.4332 922.352 89.2642 923.041 89.2642C923.439 89.2642 923.831 89.3305 924.219 89.4631C924.607 89.5956 924.96 89.8111 925.278 90.1094C925.596 90.4044 925.85 90.7955 926.039 91.2827C926.228 91.7699 926.322 92.3698 926.322 93.0824V93.5795H920.436V92.5653H925.129C925.129 92.1345 925.043 91.75 924.871 91.4119C924.702 91.0739 924.46 90.8071 924.145 90.6115C923.833 90.416 923.465 90.3182 923.041 90.3182C922.574 90.3182 922.169 90.4342 921.828 90.6662C921.49 90.8949 921.23 91.1932 921.047 91.5611C920.865 91.929 920.774 92.3234 920.774 92.7443V93.4205C920.774 93.9972 920.873 94.486 921.072 94.8871C921.274 95.2848 921.555 95.5881 921.912 95.7969C922.27 96.0024 922.686 96.1051 923.16 96.1051C923.469 96.1051 923.747 96.062 923.996 95.9759C924.247 95.8864 924.465 95.7538 924.647 95.5781C924.829 95.3991 924.97 95.1771 925.069 94.9119L926.203 95.2301C926.084 95.6146 925.883 95.9527 925.601 96.2443C925.32 96.5327 924.972 96.758 924.557 96.9205C924.143 97.0795 923.677 97.1591 923.16 97.1591Z" fill="#FEFEFE"/>
<path d="M974.801 89.3636C974.741 88.8598 974.5 88.4688 974.075 88.1903C973.651 87.9119 973.131 87.7727 972.514 87.7727C972.063 87.7727 971.669 87.8456 971.331 87.9915C970.996 88.1373 970.734 88.3378 970.545 88.593C970.36 88.8482 970.267 89.1383 970.267 89.4631C970.267 89.7348 970.332 89.9685 970.461 90.1641C970.594 90.3563 970.763 90.517 970.968 90.6463C971.174 90.7723 971.389 90.8767 971.614 90.9595C971.84 91.0391 972.047 91.1037 972.236 91.1534L973.27 91.4318C973.535 91.5014 973.83 91.5975 974.155 91.7202C974.483 91.8428 974.796 92.0102 975.094 92.2223C975.396 92.4311 975.645 92.6996 975.84 93.0277C976.036 93.3558 976.134 93.7585 976.134 94.2358C976.134 94.786 975.989 95.2831 975.701 95.7273C975.416 96.1714 974.998 96.5244 974.448 96.7862C973.901 97.0481 973.237 97.179 972.455 97.179C971.725 97.179 971.094 97.0613 970.56 96.826C970.03 96.5907 969.612 96.2625 969.308 95.8416C969.006 95.4207 968.835 94.9318 968.795 94.375H970.068C970.101 94.7595 970.231 95.0777 970.456 95.3295C970.685 95.5781 970.973 95.7637 971.321 95.8864C971.672 96.0057 972.05 96.0653 972.455 96.0653C972.925 96.0653 973.348 95.9891 973.722 95.8366C974.097 95.6809 974.393 95.4654 974.612 95.1903C974.831 94.9119 974.94 94.5871 974.94 94.2159C974.94 93.8778 974.846 93.6027 974.657 93.3906C974.468 93.1785 974.219 93.0062 973.911 92.8736C973.603 92.741 973.27 92.625 972.912 92.5256L971.659 92.1676C970.864 91.9389 970.234 91.6125 969.77 91.1882C969.306 90.764 969.074 90.2088 969.074 89.5227C969.074 88.9527 969.228 88.4555 969.536 88.0312C969.848 87.6037 970.265 87.2723 970.789 87.0369C971.316 86.7983 971.904 86.679 972.554 86.679C973.21 86.679 973.794 86.7966 974.304 87.032C974.814 87.264 975.219 87.5821 975.517 87.9865C975.819 88.3909 975.978 88.8499 975.994 89.3636H974.801ZM979.175 92.4062V97H978.002V86.8182H979.175V90.5568H979.274C979.453 90.1624 979.722 89.8492 980.08 89.6172C980.441 89.3819 980.922 89.2642 981.521 89.2642C982.042 89.2642 982.498 89.3686 982.889 89.5774C983.28 89.7829 983.583 90.0994 983.798 90.527C984.017 90.9512 984.127 91.4915 984.127 92.1477V97H982.953V92.2273C982.953 91.6207 982.796 91.1518 982.481 90.8203C982.169 90.4856 981.737 90.3182 981.183 90.3182C980.799 90.3182 980.454 90.3994 980.149 90.5618C979.848 90.7242 979.609 90.9612 979.433 91.2727C979.261 91.5843 979.175 91.9621 979.175 92.4062ZM989.375 97.1591C988.686 97.1591 988.081 96.995 987.561 96.6669C987.044 96.3388 986.639 95.8797 986.348 95.2898C986.059 94.6998 985.915 94.0104 985.915 93.2216C985.915 92.4261 986.059 91.7318 986.348 91.1385C986.639 90.5452 987.044 90.0845 987.561 89.7564C988.081 89.4283 988.686 89.2642 989.375 89.2642C990.065 89.2642 990.668 89.4283 991.185 89.7564C991.705 90.0845 992.11 90.5452 992.398 91.1385C992.69 91.7318 992.836 92.4261 992.836 93.2216C992.836 94.0104 992.69 94.6998 992.398 95.2898C992.11 95.8797 991.705 96.3388 991.185 96.6669C990.668 96.995 990.065 97.1591 989.375 97.1591ZM989.375 96.1051C989.899 96.1051 990.33 95.9709 990.668 95.7024C991.006 95.4339 991.256 95.081 991.419 94.6435C991.581 94.206 991.662 93.732 991.662 93.2216C991.662 92.7112 991.581 92.2356 991.419 91.7947C991.256 91.3539 991.006 90.9976 990.668 90.7259C990.33 90.4541 989.899 90.3182 989.375 90.3182C988.852 90.3182 988.421 90.4541 988.083 90.7259C987.745 90.9976 987.494 91.3539 987.332 91.7947C987.17 92.2356 987.088 92.7112 987.088 93.2216C987.088 93.732 987.17 94.206 987.332 94.6435C987.494 95.081 987.745 95.4339 988.083 95.7024C988.421 95.9709 988.852 96.1051 989.375 96.1051ZM994.627 99.8636V89.3636H995.76V90.5767H995.899C995.985 90.4441 996.105 90.2751 996.257 90.0696C996.413 89.8608 996.635 89.6752 996.923 89.5128C997.215 89.3471 997.61 89.2642 998.107 89.2642C998.75 89.2642 999.316 89.425 999.807 89.7464C1000.3 90.0679 1000.68 90.5237 1000.96 91.1136C1001.23 91.7036 1001.37 92.3996 1001.37 93.2017C1001.37 94.0104 1001.23 94.7114 1000.96 95.3047C1000.68 95.8946 1000.3 96.352 999.812 96.6768C999.325 96.9983 998.763 97.1591 998.127 97.1591C997.636 97.1591 997.243 97.0779 996.948 96.9155C996.653 96.7498 996.426 96.5625 996.267 96.3537C996.108 96.1416 995.985 95.9659 995.899 95.8267H995.8V99.8636H994.627ZM995.78 93.1818C995.78 93.7585 995.865 94.2673 996.034 94.7081C996.203 95.1456 996.45 95.4886 996.774 95.7372C997.099 95.9825 997.497 96.1051 997.968 96.1051C998.458 96.1051 998.867 95.9759 999.195 95.7173C999.527 95.4555 999.776 95.1042 999.941 94.6634C1000.11 94.2192 1000.19 93.7254 1000.19 93.1818C1000.19 92.6449 1000.11 92.161 999.946 91.7301C999.784 91.2959 999.537 90.9529 999.205 90.701C998.877 90.4458 998.465 90.3182 997.968 90.3182C997.49 90.3182 997.089 90.4392 996.764 90.6811C996.44 90.9197 996.194 91.2545 996.029 91.6854C995.863 92.1129 995.78 92.6117 995.78 93.1818Z" fill="#FEFEFE"/>
<path d="M1044.23 97V86.8182H1047.67C1048.47 86.8182 1049.13 86.9624 1049.63 87.2507C1050.14 87.5357 1050.52 87.9219 1050.77 88.4091C1051.01 88.8963 1051.13 89.4399 1051.13 90.0398C1051.13 90.6397 1051.01 91.1849 1050.77 91.6754C1050.52 92.166 1050.15 92.5571 1049.64 92.8487C1049.13 93.1371 1048.49 93.2812 1047.69 93.2812H1045.23V92.1875H1047.65C1048.2 92.1875 1048.64 92.093 1048.97 91.9041C1049.3 91.7152 1049.54 91.46 1049.69 91.1385C1049.84 90.8137 1049.92 90.4474 1049.92 90.0398C1049.92 89.6321 1049.84 89.2675 1049.69 88.946C1049.54 88.6245 1049.3 88.3726 1048.97 88.1903C1048.63 88.0047 1048.19 87.9119 1047.63 87.9119H1045.47V97H1044.23ZM1052.96 97V89.3636H1054.09V90.517H1054.17C1054.31 90.1392 1054.56 89.8326 1054.93 89.5973C1055.29 89.362 1055.7 89.2443 1056.16 89.2443C1056.25 89.2443 1056.36 89.246 1056.49 89.2493C1056.61 89.2526 1056.71 89.2576 1056.78 89.2642V90.4574C1056.74 90.4474 1056.65 90.4325 1056.51 90.4126C1056.37 90.3894 1056.22 90.3778 1056.06 90.3778C1055.69 90.3778 1055.36 90.4557 1055.07 90.6115C1054.78 90.764 1054.55 90.9761 1054.38 91.2479C1054.22 91.5163 1054.13 91.8229 1054.13 92.1676V97H1052.96ZM1061.04 97.1591C1060.35 97.1591 1059.75 96.995 1059.22 96.6669C1058.71 96.3388 1058.3 95.8797 1058.01 95.2898C1057.72 94.6998 1057.58 94.0104 1057.58 93.2216C1057.58 92.4261 1057.72 91.7318 1058.01 91.1385C1058.3 90.5452 1058.71 90.0845 1059.22 89.7564C1059.75 89.4283 1060.35 89.2642 1061.04 89.2642C1061.73 89.2642 1062.33 89.4283 1062.85 89.7564C1063.37 90.0845 1063.77 90.5452 1064.06 91.1385C1064.35 91.7318 1064.5 92.4261 1064.5 93.2216C1064.5 94.0104 1064.35 94.6998 1064.06 95.2898C1063.77 95.8797 1063.37 96.3388 1062.85 96.6669C1062.33 96.995 1061.73 97.1591 1061.04 97.1591ZM1061.04 96.1051C1061.56 96.1051 1061.99 95.9709 1062.33 95.7024C1062.67 95.4339 1062.92 95.081 1063.08 94.6435C1063.25 94.206 1063.33 93.732 1063.33 93.2216C1063.33 92.7112 1063.25 92.2356 1063.08 91.7947C1062.92 91.3539 1062.67 90.9976 1062.33 90.7259C1061.99 90.4541 1061.56 90.3182 1061.04 90.3182C1060.52 90.3182 1060.08 90.4541 1059.75 90.7259C1059.41 90.9976 1059.16 91.3539 1059 91.7947C1058.83 92.2356 1058.75 92.7112 1058.75 93.2216C1058.75 93.732 1058.83 94.206 1059 94.6435C1059.16 95.081 1059.41 95.4339 1059.75 95.7024C1060.08 95.9709 1060.52 96.1051 1061.04 96.1051ZM1069.17 97.1591C1068.54 97.1591 1067.98 96.9983 1067.49 96.6768C1067 96.352 1066.62 95.8946 1066.35 95.3047C1066.07 94.7114 1065.93 94.0104 1065.93 93.2017C1065.93 92.3996 1066.07 91.7036 1066.35 91.1136C1066.62 90.5237 1067 90.0679 1067.49 89.7464C1067.98 89.425 1068.55 89.2642 1069.19 89.2642C1069.69 89.2642 1070.08 89.3471 1070.37 89.5128C1070.66 89.6752 1070.89 89.8608 1071.04 90.0696C1071.19 90.2751 1071.32 90.4441 1071.4 90.5767H1071.5V86.8182H1072.67V97H1071.54V95.8267H1071.4C1071.32 95.9659 1071.19 96.1416 1071.03 96.3537C1070.87 96.5625 1070.65 96.7498 1070.35 96.9155C1070.06 97.0779 1069.66 97.1591 1069.17 97.1591ZM1069.33 96.1051C1069.8 96.1051 1070.2 95.9825 1070.53 95.7372C1070.85 95.4886 1071.1 95.1456 1071.27 94.7081C1071.44 94.2673 1071.52 93.7585 1071.52 93.1818C1071.52 92.6117 1071.44 92.1129 1071.27 91.6854C1071.11 91.2545 1070.86 90.9197 1070.54 90.6811C1070.21 90.4392 1069.81 90.3182 1069.33 90.3182C1068.84 90.3182 1068.42 90.4458 1068.09 90.701C1067.76 90.9529 1067.52 91.2959 1067.35 91.7301C1067.19 92.161 1067.11 92.6449 1067.11 93.1818C1067.11 93.7254 1067.19 94.2192 1067.35 94.6634C1067.52 95.1042 1067.77 95.4555 1068.1 95.7173C1068.43 95.9759 1068.84 96.1051 1069.33 96.1051ZM1079.8 93.8778V89.3636H1080.97V97H1079.8V95.7074H1079.72C1079.54 96.0952 1079.26 96.425 1078.88 96.6967C1078.51 96.9652 1078.03 97.0994 1077.45 97.0994C1076.97 97.0994 1076.55 96.995 1076.18 96.7862C1075.81 96.5741 1075.52 96.2559 1075.3 95.8317C1075.09 95.4041 1074.99 94.8655 1074.99 94.2159V89.3636H1076.16V94.1364C1076.16 94.6932 1076.32 95.1373 1076.63 95.4688C1076.94 95.8002 1077.34 95.9659 1077.83 95.9659C1078.12 95.9659 1078.42 95.8913 1078.72 95.7422C1079.02 95.593 1079.28 95.3643 1079.49 95.0561C1079.69 94.7479 1079.8 94.3551 1079.8 93.8778ZM1086.22 97.1591C1085.51 97.1591 1084.89 96.9901 1084.37 96.652C1083.86 96.3139 1083.46 95.8482 1083.18 95.255C1082.9 94.6617 1082.76 93.9839 1082.76 93.2216C1082.76 92.446 1082.91 91.7616 1083.19 91.1683C1083.48 90.5717 1083.88 90.1061 1084.39 89.7713C1084.91 89.4332 1085.51 89.2642 1086.2 89.2642C1086.74 89.2642 1087.22 89.3636 1087.65 89.5625C1088.09 89.7614 1088.44 90.0398 1088.71 90.3977C1088.99 90.7557 1089.16 91.1733 1089.23 91.6506H1088.05C1087.96 91.3026 1087.76 90.9943 1087.46 90.7259C1087.15 90.4541 1086.74 90.3182 1086.22 90.3182C1085.77 90.3182 1085.36 90.4375 1085.02 90.6761C1084.68 90.9115 1084.41 91.2446 1084.22 91.6754C1084.03 92.103 1083.94 92.6051 1083.94 93.1818C1083.94 93.7718 1084.03 94.2855 1084.21 94.723C1084.4 95.1605 1084.67 95.5002 1085.01 95.7422C1085.35 95.9841 1085.76 96.1051 1086.22 96.1051C1086.53 96.1051 1086.8 96.0521 1087.05 95.946C1087.3 95.84 1087.51 95.6875 1087.68 95.4886C1087.86 95.2898 1087.98 95.0511 1088.05 94.7727H1089.23C1089.16 95.2235 1089 95.6295 1088.73 95.9908C1088.48 96.3487 1088.13 96.6338 1087.7 96.8459C1087.28 97.0547 1086.79 97.1591 1086.22 97.1591ZM1094.26 89.3636V90.358H1090.3V89.3636H1094.26ZM1091.46 87.5341H1092.63V94.8125C1092.63 95.1439 1092.68 95.3925 1092.78 95.5582C1092.88 95.7206 1093 95.83 1093.15 95.8864C1093.31 95.9394 1093.47 95.9659 1093.65 95.9659C1093.77 95.9659 1093.88 95.9593 1093.96 95.946C1094.05 95.9295 1094.11 95.9162 1094.16 95.9062L1094.4 96.9602C1094.32 96.9901 1094.21 97.0199 1094.07 97.0497C1093.93 97.0829 1093.75 97.0994 1093.53 97.0994C1093.19 97.0994 1092.87 97.0282 1092.55 96.8857C1092.24 96.7431 1091.98 96.526 1091.77 96.2344C1091.56 95.9427 1091.46 95.5748 1091.46 95.1307V87.5341Z" fill="#FEFEFE"/>
<path d="M1136.23 97V86.8182H1139.79C1140.5 86.8182 1141.09 86.9408 1141.55 87.1861C1142.01 87.428 1142.35 87.7545 1142.58 88.1655C1142.8 88.5732 1142.91 89.0256 1142.91 89.5227C1142.91 89.9602 1142.84 90.3215 1142.68 90.6065C1142.53 90.8916 1142.33 91.117 1142.07 91.2827C1141.83 91.4484 1141.56 91.571 1141.26 91.6506V91.75C1141.58 91.7699 1141.89 91.8793 1142.2 92.0781C1142.52 92.277 1142.78 92.562 1142.99 92.9332C1143.21 93.3045 1143.31 93.7585 1143.31 94.2955C1143.31 94.8059 1143.2 95.2649 1142.96 95.6726C1142.73 96.0803 1142.37 96.4034 1141.87 96.642C1141.37 96.8807 1140.71 97 1139.91 97H1136.23ZM1137.47 95.9062H1139.91C1140.72 95.9062 1141.29 95.7505 1141.63 95.4389C1141.97 95.1241 1142.14 94.7429 1142.14 94.2955C1142.14 93.9508 1142.05 93.6326 1141.88 93.3409C1141.7 93.0459 1141.45 92.8106 1141.12 92.6349C1140.8 92.456 1140.42 92.3665 1139.97 92.3665H1137.47V95.9062ZM1137.47 91.2926H1139.75C1140.12 91.2926 1140.46 91.2197 1140.76 91.0739C1141.06 90.928 1141.3 90.7225 1141.47 90.4574C1141.65 90.1922 1141.74 89.8807 1141.74 89.5227C1141.74 89.0753 1141.59 88.6958 1141.27 88.3842C1140.96 88.0694 1140.47 87.9119 1139.79 87.9119H1137.47V91.2926ZM1146.35 86.8182V97H1145.18V86.8182H1146.35ZM1151.6 97.1591C1150.91 97.1591 1150.31 96.995 1149.79 96.6669C1149.27 96.3388 1148.87 95.8797 1148.58 95.2898C1148.29 94.6998 1148.14 94.0104 1148.14 93.2216C1148.14 92.4261 1148.29 91.7318 1148.58 91.1385C1148.87 90.5452 1149.27 90.0845 1149.79 89.7564C1150.31 89.4283 1150.91 89.2642 1151.6 89.2642C1152.29 89.2642 1152.9 89.4283 1153.41 89.7564C1153.93 90.0845 1154.34 90.5452 1154.63 91.1385C1154.92 91.7318 1155.06 92.4261 1155.06 93.2216C1155.06 94.0104 1154.92 94.6998 1154.63 95.2898C1154.34 95.8797 1153.93 96.3388 1153.41 96.6669C1152.9 96.995 1152.29 97.1591 1151.6 97.1591ZM1151.6 96.1051C1152.13 96.1051 1152.56 95.9709 1152.9 95.7024C1153.23 95.4339 1153.48 95.081 1153.65 94.6435C1153.81 94.206 1153.89 93.732 1153.89 93.2216C1153.89 92.7112 1153.81 92.2356 1153.65 91.7947C1153.48 91.3539 1153.23 90.9976 1152.9 90.7259C1152.56 90.4541 1152.13 90.3182 1151.6 90.3182C1151.08 90.3182 1150.65 90.4541 1150.31 90.7259C1149.97 90.9976 1149.72 91.3539 1149.56 91.7947C1149.4 92.2356 1149.32 92.7112 1149.32 93.2216C1149.32 93.732 1149.4 94.206 1149.56 94.6435C1149.72 95.081 1149.97 95.4339 1150.31 95.7024C1150.65 95.9709 1151.08 96.1051 1151.6 96.1051ZM1159.94 100.023C1159.37 100.023 1158.88 99.9498 1158.48 99.804C1158.07 99.6615 1157.73 99.4725 1157.46 99.2372C1157.19 99.0052 1156.97 98.7566 1156.82 98.4915L1157.75 97.8352C1157.86 97.9744 1157.99 98.1335 1158.15 98.3125C1158.32 98.4948 1158.54 98.6522 1158.82 98.7848C1159.1 98.9207 1159.48 98.9886 1159.94 98.9886C1160.55 98.9886 1161.06 98.8395 1161.46 98.5412C1161.86 98.2429 1162.07 97.7756 1162.07 97.1392V95.5881H1161.97C1161.88 95.7273 1161.76 95.8996 1161.6 96.1051C1161.44 96.3073 1161.22 96.4879 1160.92 96.647C1160.63 96.8028 1160.24 96.8807 1159.74 96.8807C1159.12 96.8807 1158.57 96.7348 1158.08 96.4432C1157.59 96.1515 1157.2 95.7273 1156.92 95.1705C1156.64 94.6136 1156.5 93.9375 1156.5 93.142C1156.5 92.3598 1156.63 91.6787 1156.91 91.0987C1157.18 90.5154 1157.57 90.0646 1158.06 89.7464C1158.55 89.425 1159.12 89.2642 1159.76 89.2642C1160.26 89.2642 1160.65 89.3471 1160.94 89.5128C1161.24 89.6752 1161.46 89.8608 1161.62 90.0696C1161.78 90.2751 1161.9 90.4441 1161.99 90.5767H1162.11V89.3636H1163.24V97.2188C1163.24 97.875 1163.09 98.4086 1162.79 98.8196C1162.5 99.2339 1162.1 99.5372 1161.6 99.7294C1161.1 99.925 1160.55 100.023 1159.94 100.023ZM1159.9 95.8267C1160.37 95.8267 1160.77 95.719 1161.09 95.5036C1161.42 95.2881 1161.66 94.9782 1161.83 94.5739C1162 94.1695 1162.09 93.6856 1162.09 93.1222C1162.09 92.572 1162 92.0864 1161.84 91.6655C1161.67 91.2446 1161.43 90.9148 1161.1 90.6761C1160.78 90.4375 1160.38 90.3182 1159.9 90.3182C1159.4 90.3182 1158.99 90.4441 1158.65 90.696C1158.33 90.9479 1158.08 91.286 1157.91 91.7102C1157.75 92.1345 1157.67 92.6051 1157.67 93.1222C1157.67 93.6525 1157.75 94.1214 1157.92 94.5291C1158.09 94.9335 1158.34 95.2517 1158.66 95.4837C1159 95.7124 1159.41 95.8267 1159.9 95.8267Z" fill="#FEFEFE"/>
<path d="M1214.43 90H1213.19C1213.12 89.6454 1212.99 89.3338 1212.81 89.0653C1212.63 88.7969 1212.41 88.5715 1212.15 88.3892C1211.9 88.2036 1211.62 88.0644 1211.3 87.9716C1210.99 87.8788 1210.67 87.8324 1210.33 87.8324C1209.71 87.8324 1209.15 87.9882 1208.65 88.2997C1208.16 88.6113 1207.76 89.0703 1207.47 89.6768C1207.17 90.2834 1207.03 91.0275 1207.03 91.9091C1207.03 92.7907 1207.17 93.5348 1207.47 94.1413C1207.76 94.7479 1208.16 95.2069 1208.65 95.5185C1209.15 95.83 1209.71 95.9858 1210.33 95.9858C1210.67 95.9858 1210.99 95.9394 1211.3 95.8466C1211.62 95.7538 1211.9 95.6162 1212.15 95.4339C1212.41 95.2483 1212.63 95.0213 1212.81 94.7528C1212.99 94.4811 1213.12 94.1695 1213.19 93.8182H1214.43C1214.33 94.3385 1214.16 94.8042 1213.92 95.2152C1213.67 95.6262 1213.37 95.9759 1213 96.2642C1212.64 96.5492 1212.23 96.7663 1211.78 96.9155C1211.33 97.0646 1210.84 97.1392 1210.33 97.1392C1209.46 97.1392 1208.69 96.9271 1208.01 96.5028C1207.34 96.0786 1206.8 95.4754 1206.42 94.6932C1206.03 93.911 1205.84 92.983 1205.84 91.9091C1205.84 90.8352 1206.03 89.9072 1206.42 89.125C1206.8 88.3428 1207.34 87.7396 1208.01 87.3153C1208.69 86.8911 1209.46 86.679 1210.33 86.679C1210.84 86.679 1211.33 86.7536 1211.78 86.9027C1212.23 87.0518 1212.64 87.2706 1213 87.5589C1213.37 87.844 1213.67 88.192 1213.92 88.603C1214.16 89.0107 1214.33 89.4763 1214.43 90ZM1219.36 97.1591C1218.67 97.1591 1218.07 96.995 1217.55 96.6669C1217.03 96.3388 1216.63 95.8797 1216.33 95.2898C1216.05 94.6998 1215.9 94.0104 1215.9 93.2216C1215.9 92.4261 1216.05 91.7318 1216.33 91.1385C1216.63 90.5452 1217.03 90.0845 1217.55 89.7564C1218.07 89.4283 1218.67 89.2642 1219.36 89.2642C1220.05 89.2642 1220.65 89.4283 1221.17 89.7564C1221.69 90.0845 1222.1 90.5452 1222.38 91.1385C1222.68 91.7318 1222.82 92.4261 1222.82 93.2216C1222.82 94.0104 1222.68 94.6998 1222.38 95.2898C1222.1 95.8797 1221.69 96.3388 1221.17 96.6669C1220.65 96.995 1220.05 97.1591 1219.36 97.1591ZM1219.36 96.1051C1219.89 96.1051 1220.32 95.9709 1220.65 95.7024C1220.99 95.4339 1221.24 95.081 1221.41 94.6435C1221.57 94.206 1221.65 93.732 1221.65 93.2216C1221.65 92.7112 1221.57 92.2356 1221.41 91.7947C1221.24 91.3539 1220.99 90.9976 1220.65 90.7259C1220.32 90.4541 1219.89 90.3182 1219.36 90.3182C1218.84 90.3182 1218.41 90.4541 1218.07 90.7259C1217.73 90.9976 1217.48 91.3539 1217.32 91.7947C1217.16 92.2356 1217.07 92.7112 1217.07 93.2216C1217.07 93.732 1217.16 94.206 1217.32 94.6435C1217.48 95.081 1217.73 95.4339 1218.07 95.7024C1218.41 95.9709 1218.84 96.1051 1219.36 96.1051ZM1225.79 92.4062V97H1224.61V89.3636H1225.75V90.5568H1225.85C1226.02 90.169 1226.3 89.8575 1226.66 89.6222C1227.03 89.3835 1227.5 89.2642 1228.07 89.2642C1228.59 89.2642 1229.04 89.3703 1229.43 89.5824C1229.82 89.7912 1230.12 90.1094 1230.34 90.5369C1230.55 90.9612 1230.66 91.4981 1230.66 92.1477V97H1229.49V92.2273C1229.49 91.6274 1229.33 91.16 1229.02 90.8253C1228.71 90.4872 1228.28 90.3182 1227.74 90.3182C1227.36 90.3182 1227.03 90.3994 1226.73 90.5618C1226.44 90.7242 1226.21 90.9612 1226.04 91.2727C1225.87 91.5843 1225.79 91.9621 1225.79 92.4062ZM1236.12 89.3636V90.358H1232.17V89.3636H1236.12ZM1233.32 87.5341H1234.49V94.8125C1234.49 95.1439 1234.54 95.3925 1234.64 95.5582C1234.74 95.7206 1234.86 95.83 1235.01 95.8864C1235.17 95.9394 1235.33 95.9659 1235.51 95.9659C1235.64 95.9659 1235.74 95.9593 1235.83 95.946C1235.91 95.9295 1235.97 95.9162 1236.02 95.9062L1236.26 96.9602C1236.18 96.9901 1236.07 97.0199 1235.93 97.0497C1235.79 97.0829 1235.61 97.0994 1235.39 97.0994C1235.06 97.0994 1234.73 97.0282 1234.41 96.8857C1234.1 96.7431 1233.84 96.526 1233.63 96.2344C1233.42 95.9427 1233.32 95.5748 1233.32 95.1307V87.5341ZM1240.14 97.179C1239.65 97.179 1239.21 97.0878 1238.82 96.9055C1238.42 96.7199 1238.11 96.4531 1237.88 96.1051C1237.65 95.7538 1237.53 95.3295 1237.53 94.8324C1237.53 94.3949 1237.62 94.0402 1237.79 93.7685C1237.96 93.4934 1238.19 93.2779 1238.48 93.1222C1238.77 92.9664 1239.09 92.8504 1239.43 92.7741C1239.79 92.6946 1240.14 92.6316 1240.49 92.5852C1240.96 92.5256 1241.33 92.4808 1241.62 92.451C1241.91 92.4179 1242.13 92.3632 1242.26 92.2869C1242.39 92.2107 1242.46 92.0781 1242.46 91.8892V91.8494C1242.46 91.3589 1242.33 90.9777 1242.06 90.706C1241.79 90.4342 1241.39 90.2983 1240.85 90.2983C1240.29 90.2983 1239.85 90.4209 1239.53 90.6662C1239.22 90.9115 1238.99 91.1733 1238.86 91.4517L1237.75 91.054C1237.95 90.59 1238.21 90.2287 1238.54 89.9702C1238.88 89.7083 1239.24 89.526 1239.64 89.4233C1240.04 89.3172 1240.43 89.2642 1240.81 89.2642C1241.06 89.2642 1241.34 89.294 1241.66 89.3537C1241.98 89.41 1242.29 89.5277 1242.59 89.7067C1242.89 89.8857 1243.14 90.1558 1243.34 90.517C1243.54 90.8783 1243.64 91.3622 1243.64 91.9688V97H1242.46V95.9659H1242.4C1242.32 96.1316 1242.19 96.3089 1242 96.4979C1241.82 96.6868 1241.57 96.8475 1241.26 96.9801C1240.96 97.1127 1240.58 97.179 1240.14 97.179ZM1240.31 96.125C1240.78 96.125 1241.17 96.0339 1241.49 95.8516C1241.81 95.6693 1242.05 95.4339 1242.21 95.1456C1242.38 94.8572 1242.46 94.554 1242.46 94.2358V93.1619C1242.41 93.2216 1242.3 93.2763 1242.13 93.326C1241.97 93.3724 1241.78 93.4138 1241.56 93.4503C1241.34 93.4834 1241.13 93.5133 1240.93 93.5398C1240.72 93.563 1240.56 93.5829 1240.43 93.5994C1240.13 93.6392 1239.84 93.7038 1239.58 93.7933C1239.32 93.8795 1239.1 94.0104 1238.94 94.1861C1238.78 94.3584 1238.7 94.5937 1238.7 94.892C1238.7 95.2997 1238.85 95.608 1239.16 95.8168C1239.46 96.0223 1239.85 96.125 1240.31 96.125ZM1248.88 97.1591C1248.16 97.1591 1247.55 96.9901 1247.03 96.652C1246.51 96.3139 1246.12 95.8482 1245.84 95.255C1245.56 94.6617 1245.42 93.9839 1245.42 93.2216C1245.42 92.446 1245.56 91.7616 1245.85 91.1683C1246.13 90.5717 1246.54 90.1061 1247.05 89.7713C1247.57 89.4332 1248.17 89.2642 1248.86 89.2642C1249.4 89.2642 1249.88 89.3636 1250.31 89.5625C1250.74 89.7614 1251.09 90.0398 1251.37 90.3977C1251.65 90.7557 1251.82 91.1733 1251.88 91.6506H1250.71C1250.62 91.3026 1250.42 90.9943 1250.11 90.7259C1249.81 90.4541 1249.4 90.3182 1248.88 90.3182C1248.42 90.3182 1248.02 90.4375 1247.68 90.6761C1247.33 90.9115 1247.07 91.2446 1246.88 91.6754C1246.69 92.103 1246.59 92.6051 1246.59 93.1818C1246.59 93.7718 1246.69 94.2855 1246.87 94.723C1247.06 95.1605 1247.32 95.5002 1247.67 95.7422C1248.01 95.9841 1248.42 96.1051 1248.88 96.1051C1249.18 96.1051 1249.46 96.0521 1249.71 95.946C1249.96 95.84 1250.17 95.6875 1250.34 95.4886C1250.51 95.2898 1250.64 95.0511 1250.71 94.7727H1251.88C1251.82 95.2235 1251.65 95.6295 1251.39 95.9908C1251.13 96.3487 1250.79 96.6338 1250.36 96.8459C1249.94 97.0547 1249.44 97.1591 1248.88 97.1591ZM1256.92 89.3636V90.358H1252.96V89.3636H1256.92ZM1254.11 87.5341H1255.29V94.8125C1255.29 95.1439 1255.34 95.3925 1255.43 95.5582C1255.53 95.7206 1255.66 95.83 1255.81 95.8864C1255.97 95.9394 1256.13 95.9659 1256.3 95.9659C1256.43 95.9659 1256.54 95.9593 1256.62 95.946C1256.7 95.9295 1256.77 95.9162 1256.82 95.9062L1257.06 96.9602C1256.98 96.9901 1256.87 97.0199 1256.72 97.0497C1256.58 97.0829 1256.4 97.0994 1256.18 97.0994C1255.85 97.0994 1255.53 97.0282 1255.21 96.8857C1254.89 96.7431 1254.63 96.526 1254.42 96.2344C1254.22 95.9427 1254.11 95.5748 1254.11 95.1307V87.5341ZM1269.46 86.8182H1270.69V93.5597C1270.69 94.2557 1270.53 94.8771 1270.2 95.424C1269.88 95.9676 1269.42 96.3968 1268.83 96.7116C1268.23 97.0232 1267.54 97.179 1266.74 97.179C1265.94 97.179 1265.24 97.0232 1264.65 96.7116C1264.06 96.3968 1263.6 95.9676 1263.27 95.424C1262.94 94.8771 1262.78 94.2557 1262.78 93.5597V86.8182H1264.01V93.4602C1264.01 93.9574 1264.12 94.3999 1264.34 94.7876C1264.56 95.1721 1264.87 95.4754 1265.28 95.6974C1265.68 95.9162 1266.17 96.0256 1266.74 96.0256C1267.3 96.0256 1267.79 95.9162 1268.2 95.6974C1268.61 95.4754 1268.92 95.1721 1269.13 94.7876C1269.35 94.3999 1269.46 93.9574 1269.46 93.4602V86.8182ZM1278.41 91.0739L1277.35 91.3722C1277.29 91.1965 1277.19 91.0258 1277.06 90.8601C1276.93 90.6911 1276.76 90.5518 1276.54 90.4425C1276.32 90.3331 1276.04 90.2784 1275.7 90.2784C1275.23 90.2784 1274.85 90.3861 1274.53 90.6016C1274.23 90.8137 1274.07 91.0838 1274.07 91.4119C1274.07 91.7036 1274.18 91.9339 1274.39 92.103C1274.6 92.272 1274.93 92.4129 1275.38 92.5256L1276.52 92.804C1277.2 92.9697 1277.71 93.2232 1278.04 93.5646C1278.38 93.9027 1278.55 94.3385 1278.55 94.8722C1278.55 95.3097 1278.42 95.7008 1278.17 96.0455C1277.92 96.3902 1277.57 96.6619 1277.12 96.8608C1276.68 97.0597 1276.16 97.1591 1275.56 97.1591C1274.78 97.1591 1274.14 96.9901 1273.63 96.652C1273.12 96.3139 1272.8 95.8201 1272.66 95.1705L1273.77 94.892C1273.88 95.303 1274.08 95.6113 1274.37 95.8168C1274.67 96.0223 1275.06 96.125 1275.54 96.125C1276.09 96.125 1276.52 96.009 1276.85 95.777C1277.17 95.5417 1277.33 95.2599 1277.33 94.9318C1277.33 94.6667 1277.24 94.4446 1277.05 94.2656C1276.87 94.0833 1276.58 93.9474 1276.2 93.858L1274.93 93.5597C1274.23 93.3939 1273.71 93.1371 1273.39 92.7891C1273.06 92.4377 1272.9 91.9986 1272.9 91.4716C1272.9 91.0407 1273.02 90.6596 1273.26 90.3281C1273.51 89.9967 1273.84 89.7365 1274.26 89.5476C1274.68 89.3587 1275.17 89.2642 1275.7 89.2642C1276.46 89.2642 1277.05 89.4299 1277.48 89.7614C1277.92 90.0928 1278.22 90.5303 1278.41 91.0739Z" fill="#FEFEFE"/>
<mask id="path-9-inside-1_1_2148" fill="white">
<path d="M160 161H1278V217H160V161Z"/>
</mask>
<path d="M160 161.5H1278V160.5H160V161.5Z" fill="#6C7275" mask="url(#path-9-inside-1_1_2148)"/>
<path d="M160.516 186.812C160.516 185.996 160.7 185.264 161.068 184.616C161.436 183.96 161.936 183.448 162.568 183.08C163.208 182.712 163.916 182.528 164.692 182.528C165.604 182.528 166.4 182.748 167.08 183.188C167.76 183.628 168.256 184.252 168.568 185.06H167.26C167.028 184.556 166.692 184.168 166.252 183.896C165.82 183.624 165.3 183.488 164.692 183.488C164.108 183.488 163.584 183.624 163.12 183.896C162.656 184.168 162.292 184.556 162.028 185.06C161.764 185.556 161.632 186.14 161.632 186.812C161.632 187.476 161.764 188.06 162.028 188.564C162.292 189.06 162.656 189.444 163.12 189.716C163.584 189.988 164.108 190.124 164.692 190.124C165.3 190.124 165.82 189.992 166.252 189.728C166.692 189.456 167.028 189.068 167.26 188.564H168.568C168.256 189.364 167.76 189.984 167.08 190.424C166.4 190.856 165.604 191.072 164.692 191.072C163.916 191.072 163.208 190.892 162.568 190.532C161.936 190.164 161.436 189.656 161.068 189.008C160.7 188.36 160.516 187.628 160.516 186.812ZM173.062 191.108C172.446 191.108 171.886 190.968 171.382 190.688C170.886 190.408 170.494 190.012 170.206 189.5C169.926 188.98 169.786 188.38 169.786 187.7C169.786 187.028 169.93 186.436 170.218 185.924C170.514 185.404 170.914 185.008 171.418 184.736C171.922 184.456 172.486 184.316 173.11 184.316C173.734 184.316 174.298 184.456 174.802 184.736C175.306 185.008 175.702 185.4 175.99 185.912C176.286 186.424 176.434 187.02 176.434 187.7C176.434 188.38 176.282 188.98 175.978 189.5C175.682 190.012 175.278 190.408 174.766 190.688C174.254 190.968 173.686 191.108 173.062 191.108ZM173.062 190.148C173.454 190.148 173.822 190.056 174.166 189.872C174.51 189.688 174.786 189.412 174.994 189.044C175.21 188.676 175.318 188.228 175.318 187.7C175.318 187.172 175.214 186.724 175.006 186.356C174.798 185.988 174.526 185.716 174.19 185.54C173.854 185.356 173.49 185.264 173.098 185.264C172.698 185.264 172.33 185.356 171.994 185.54C171.666 185.716 171.402 185.988 171.202 186.356C171.002 186.724 170.902 187.172 170.902 187.7C170.902 188.236 170.998 188.688 171.19 189.056C171.39 189.424 171.654 189.7 171.982 189.884C172.31 190.06 172.67 190.148 173.062 190.148ZM178.961 185.636C179.177 185.26 179.497 184.948 179.921 184.7C180.353 184.444 180.853 184.316 181.421 184.316C182.005 184.316 182.533 184.456 183.005 184.736C183.485 185.016 183.861 185.412 184.133 185.924C184.405 186.428 184.541 187.016 184.541 187.688C184.541 188.352 184.405 188.944 184.133 189.464C183.861 189.984 183.485 190.388 183.005 190.676C182.533 190.964 182.005 191.108 181.421 191.108C180.861 191.108 180.365 190.984 179.933 190.736C179.509 190.48 179.185 190.164 178.961 189.788V194.12H177.869V184.424H178.961V185.636ZM183.425 187.688C183.425 187.192 183.325 186.76 183.125 186.392C182.925 186.024 182.653 185.744 182.309 185.552C181.973 185.36 181.601 185.264 181.193 185.264C180.793 185.264 180.421 185.364 180.077 185.564C179.741 185.756 179.469 186.04 179.261 186.416C179.061 186.784 178.961 187.212 178.961 187.7C178.961 188.196 179.061 188.632 179.261 189.008C179.469 189.376 179.741 189.66 180.077 189.86C180.421 190.052 180.793 190.148 181.193 190.148C181.601 190.148 181.973 190.052 182.309 189.86C182.653 189.66 182.925 189.376 183.125 189.008C183.325 188.632 183.425 188.192 183.425 187.688ZM191.643 184.424L187.683 194.096H186.555L187.851 190.928L185.199 184.424H186.411L188.475 189.752L190.515 184.424H191.643ZM193.832 185.492C194.024 185.116 194.296 184.824 194.648 184.616C195.008 184.408 195.444 184.304 195.956 184.304V185.432H195.668C194.444 185.432 193.832 186.096 193.832 187.424V191H192.74V184.424H193.832V185.492ZM197.781 183.356C197.573 183.356 197.397 183.284 197.253 183.14C197.109 182.996 197.037 182.82 197.037 182.612C197.037 182.404 197.109 182.228 197.253 182.084C197.397 181.94 197.573 181.868 197.781 181.868C197.981 181.868 198.149 181.94 198.285 182.084C198.429 182.228 198.501 182.404 198.501 182.612C198.501 182.82 198.429 182.996 198.285 183.14C198.149 183.284 197.981 183.356 197.781 183.356ZM198.309 184.424V191H197.217V184.424H198.309ZM202.882 184.316C203.45 184.316 203.946 184.44 204.37 184.688C204.802 184.936 205.122 185.248 205.33 185.624V184.424H206.434V191.144C206.434 191.744 206.306 192.276 206.05 192.74C205.794 193.212 205.426 193.58 204.946 193.844C204.474 194.108 203.922 194.24 203.29 194.24C202.426 194.24 201.706 194.036 201.13 193.628C200.554 193.22 200.214 192.664 200.11 191.96H201.19C201.31 192.36 201.558 192.68 201.934 192.92C202.31 193.168 202.762 193.292 203.29 193.292C203.89 193.292 204.378 193.104 204.754 192.728C205.138 192.352 205.33 191.824 205.33 191.144V189.764C205.114 190.148 204.794 190.468 204.37 190.724C203.946 190.98 203.45 191.108 202.882 191.108C202.298 191.108 201.766 190.964 201.286 190.676C200.814 190.388 200.442 189.984 200.17 189.464C199.898 188.944 199.762 188.352 199.762 187.688C199.762 187.016 199.898 186.428 200.17 185.924C200.442 185.412 200.814 185.016 201.286 184.736C201.766 184.456 202.298 184.316 202.882 184.316ZM205.33 187.7C205.33 187.204 205.23 186.772 205.03 186.404C204.83 186.036 204.558 185.756 204.214 185.564C203.878 185.364 203.506 185.264 203.098 185.264C202.69 185.264 202.318 185.36 201.982 185.552C201.646 185.744 201.378 186.024 201.178 186.392C200.978 186.76 200.878 187.192 200.878 187.688C200.878 188.192 200.978 188.632 201.178 189.008C201.378 189.376 201.646 189.66 201.982 189.86C202.318 190.052 202.69 190.148 203.098 190.148C203.506 190.148 203.878 190.052 204.214 189.86C204.558 189.66 204.83 189.376 205.03 189.008C205.23 188.632 205.33 188.196 205.33 187.7ZM211.543 184.304C212.039 184.304 212.487 184.412 212.887 184.628C213.287 184.836 213.599 185.152 213.823 185.576C214.055 186 214.171 186.516 214.171 187.124V191H213.091V187.28C213.091 186.624 212.927 186.124 212.599 185.78C212.271 185.428 211.823 185.252 211.255 185.252C210.679 185.252 210.219 185.432 209.875 185.792C209.539 186.152 209.371 186.676 209.371 187.364V191H208.279V182.12H209.371V185.36C209.587 185.024 209.883 184.764 210.259 184.58C210.643 184.396 211.071 184.304 211.543 184.304ZM217.287 185.324V189.2C217.287 189.52 217.355 189.748 217.491 189.884C217.627 190.012 217.863 190.076 218.199 190.076H219.003V191H218.019C217.411 191 216.955 190.86 216.651 190.58C216.347 190.3 216.195 189.84 216.195 189.2V185.324H215.343V184.424H216.195V182.768H217.287V184.424H219.003V185.324H217.287ZM227.366 182.552C228.174 182.552 228.894 182.736 229.526 183.104C230.158 183.464 230.646 183.968 230.99 184.616C231.342 185.256 231.518 185.988 231.518 186.812C231.518 187.636 231.342 188.372 230.99 189.02C230.646 189.66 230.158 190.164 229.526 190.532C228.894 190.892 228.174 191.072 227.366 191.072C226.55 191.072 225.826 190.892 225.194 190.532C224.562 190.164 224.07 189.66 223.718 189.02C223.366 188.372 223.19 187.636 223.19 186.812C223.19 185.988 223.366 185.256 223.718 184.616C224.07 183.968 224.562 183.464 225.194 183.104C225.826 182.736 226.55 182.552 227.366 182.552ZM227.366 183.032C226.622 183.032 225.974 183.192 225.422 183.512C224.87 183.824 224.446 184.264 224.15 184.832C223.854 185.4 223.706 186.06 223.706 186.812C223.706 187.556 223.854 188.216 224.15 188.792C224.446 189.36 224.87 189.804 225.422 190.124C225.974 190.444 226.622 190.604 227.366 190.604C228.102 190.604 228.742 190.444 229.286 190.124C229.838 189.804 230.262 189.36 230.558 188.792C230.854 188.216 231.002 187.556 231.002 186.812C231.002 186.06 230.854 185.4 230.558 184.832C230.262 184.264 229.838 183.824 229.286 183.512C228.742 183.192 228.102 183.032 227.366 183.032ZM227.342 184.028C226.862 184.028 226.422 184.14 226.022 184.364C225.63 184.588 225.318 184.912 225.086 185.336C224.854 185.752 224.738 186.24 224.738 186.8C224.738 187.36 224.854 187.852 225.086 188.276C225.318 188.692 225.63 189.016 226.022 189.248C226.422 189.472 226.862 189.584 227.342 189.584C227.942 189.584 228.462 189.424 228.902 189.104C229.342 188.776 229.642 188.34 229.802 187.796H228.794C228.554 188.46 228.07 188.792 227.342 188.792C226.862 188.792 226.47 188.62 226.166 188.276C225.862 187.932 225.71 187.444 225.71 186.812C225.71 186.172 225.862 185.68 226.166 185.336C226.47 184.992 226.862 184.82 227.342 184.82C227.694 184.82 227.998 184.908 228.254 185.084C228.51 185.252 228.69 185.496 228.794 185.816H229.802C229.65 185.248 229.354 184.808 228.914 184.496C228.474 184.184 227.95 184.028 227.342 184.028ZM235.917 190.124C236.933 189.308 237.729 188.64 238.305 188.12C238.881 187.592 239.365 187.044 239.757 186.476C240.157 185.9 240.357 185.336 240.357 184.784C240.357 184.264 240.229 183.856 239.973 183.56C239.725 183.256 239.321 183.104 238.761 183.104C238.217 183.104 237.793 183.276 237.489 183.62C237.193 183.956 237.033 184.408 237.009 184.976H235.953C235.985 184.08 236.257 183.388 236.769 182.9C237.281 182.412 237.941 182.168 238.749 182.168C239.573 182.168 240.225 182.396 240.705 182.852C241.193 183.308 241.437 183.936 241.437 184.736C241.437 185.4 241.237 186.048 240.837 186.68C240.445 187.304 239.997 187.856 239.493 188.336C238.989 188.808 238.345 189.36 237.561 189.992H241.689V190.904H235.917V190.124ZM242.951 186.572C242.951 185.196 243.175 184.124 243.623 183.356C244.071 182.58 244.855 182.192 245.975 182.192C247.087 182.192 247.867 182.58 248.315 183.356C248.763 184.124 248.987 185.196 248.987 186.572C248.987 187.972 248.763 189.06 248.315 189.836C247.867 190.612 247.087 191 245.975 191C244.855 191 244.071 190.612 243.623 189.836C243.175 189.06 242.951 187.972 242.951 186.572ZM247.907 186.572C247.907 185.876 247.859 185.288 247.763 184.808C247.675 184.32 247.487 183.928 247.199 183.632C246.919 183.336 246.511 183.188 245.975 183.188C245.431 183.188 245.015 183.336 244.727 183.632C244.447 183.928 244.259 184.32 244.163 184.808C244.075 185.288 244.031 185.876 244.031 186.572C244.031 187.292 244.075 187.896 244.163 188.384C244.259 188.872 244.447 189.264 244.727 189.56C245.015 189.856 245.431 190.004 245.975 190.004C246.511 190.004 246.919 189.856 247.199 189.56C247.487 189.264 247.675 188.872 247.763 188.384C247.859 187.896 247.907 187.292 247.907 186.572ZM250.354 190.124C251.37 189.308 252.166 188.64 252.742 188.12C253.318 187.592 253.802 187.044 254.194 186.476C254.594 185.9 254.794 185.336 254.794 184.784C254.794 184.264 254.666 183.856 254.41 183.56C254.162 183.256 253.758 183.104 253.198 183.104C252.654 183.104 252.23 183.276 251.926 183.62C251.63 183.956 251.47 184.408 251.446 184.976H250.39C250.422 184.08 250.694 183.388 251.206 182.9C251.718 182.412 252.378 182.168 253.186 182.168C254.01 182.168 254.662 182.396 255.142 182.852C255.63 183.308 255.874 183.936 255.874 184.736C255.874 185.4 255.674 186.048 255.274 186.68C254.882 187.304 254.434 187.856 253.93 188.336C253.426 188.808 252.782 189.36 251.998 189.992H256.126V190.904H250.354V190.124ZM257.365 184.508C257.421 183.772 257.705 183.196 258.217 182.78C258.729 182.364 259.393 182.156 260.209 182.156C260.753 182.156 261.221 182.256 261.613 182.456C262.013 182.648 262.313 182.912 262.513 183.248C262.721 183.584 262.825 183.964 262.825 184.388C262.825 184.884 262.681 185.312 262.393 185.672C262.113 186.032 261.745 186.264 261.289 186.368V186.428C261.809 186.556 262.221 186.808 262.525 187.184C262.829 187.56 262.981 188.052 262.981 188.66C262.981 189.116 262.877 189.528 262.669 189.896C262.461 190.256 262.149 190.54 261.733 190.748C261.317 190.956 260.817 191.06 260.233 191.06C259.385 191.06 258.689 190.84 258.145 190.4C257.601 189.952 257.297 189.32 257.233 188.504H258.289C258.345 188.984 258.541 189.376 258.877 189.68C259.213 189.984 259.661 190.136 260.221 190.136C260.781 190.136 261.205 189.992 261.493 189.704C261.789 189.408 261.937 189.028 261.937 188.564C261.937 187.964 261.737 187.532 261.337 187.268C260.937 187.004 260.333 186.872 259.525 186.872H259.249V185.96H259.537C260.273 185.952 260.829 185.832 261.205 185.6C261.581 185.36 261.769 184.992 261.769 184.496C261.769 184.072 261.629 183.732 261.349 183.476C261.077 183.22 260.685 183.092 260.173 183.092C259.677 183.092 259.277 183.22 258.973 183.476C258.669 183.732 258.489 184.076 258.433 184.508H257.365ZM267.63 184.508C267.686 183.772 267.97 183.196 268.482 182.78C268.994 182.364 269.658 182.156 270.474 182.156C271.018 182.156 271.486 182.256 271.878 182.456C272.278 182.648 272.578 182.912 272.778 183.248C272.986 183.584 273.09 183.964 273.09 184.388C273.09 184.884 272.946 185.312 272.658 185.672C272.378 186.032 272.01 186.264 271.554 186.368V186.428C272.074 186.556 272.486 186.808 272.79 187.184C273.094 187.56 273.246 188.052 273.246 188.66C273.246 189.116 273.142 189.528 272.934 189.896C272.726 190.256 272.414 190.54 271.998 190.748C271.582 190.956 271.082 191.06 270.498 191.06C269.65 191.06 268.954 190.84 268.41 190.4C267.866 189.952 267.562 189.32 267.498 188.504H268.554C268.61 188.984 268.806 189.376 269.142 189.68C269.478 189.984 269.926 190.136 270.486 190.136C271.046 190.136 271.47 189.992 271.758 189.704C272.054 189.408 272.202 189.028 272.202 188.564C272.202 187.964 272.002 187.532 271.602 187.268C271.202 187.004 270.598 186.872 269.79 186.872H269.514V185.96H269.802C270.538 185.952 271.094 185.832 271.47 185.6C271.846 185.36 272.034 184.992 272.034 184.496C272.034 184.072 271.894 183.732 271.614 183.476C271.342 183.22 270.95 183.092 270.438 183.092C269.942 183.092 269.542 183.22 269.238 183.476C268.934 183.732 268.754 184.076 268.698 184.508H267.63ZM275.993 182.12V191H274.901V182.12H275.993ZM283.854 187.46C283.854 187.668 283.842 187.888 283.818 188.12H278.562C278.602 188.768 278.822 189.276 279.222 189.644C279.63 190.004 280.122 190.184 280.698 190.184C281.17 190.184 281.562 190.076 281.874 189.86C282.194 189.636 282.418 189.34 282.546 188.972H283.722C283.546 189.604 283.194 190.12 282.666 190.52C282.138 190.912 281.482 191.108 280.698 191.108C280.074 191.108 279.514 190.968 279.018 190.688C278.53 190.408 278.146 190.012 277.866 189.5C277.586 188.98 277.446 188.38 277.446 187.7C277.446 187.02 277.582 186.424 277.854 185.912C278.126 185.4 278.506 185.008 278.994 184.736C279.49 184.456 280.058 184.316 280.698 184.316C281.322 184.316 281.874 184.452 282.354 184.724C282.834 184.996 283.202 185.372 283.458 185.852C283.722 186.324 283.854 186.86 283.854 187.46ZM282.726 187.232C282.726 186.816 282.634 186.46 282.45 186.164C282.266 185.86 282.014 185.632 281.694 185.48C281.382 185.32 281.034 185.24 280.65 185.24C280.098 185.24 279.626 185.416 279.234 185.768C278.85 186.12 278.63 186.608 278.574 187.232H282.726ZM288.007 184.316C288.575 184.316 289.071 184.44 289.495 184.688C289.927 184.936 290.247 185.248 290.455 185.624V184.424H291.559V191.144C291.559 191.744 291.431 192.276 291.175 192.74C290.919 193.212 290.551 193.58 290.071 193.844C289.599 194.108 289.047 194.24 288.415 194.24C287.551 194.24 286.831 194.036 286.255 193.628C285.679 193.22 285.339 192.664 285.235 191.96H286.315C286.435 192.36 286.683 192.68 287.059 192.92C287.435 193.168 287.887 193.292 288.415 193.292C289.015 193.292 289.503 193.104 289.879 192.728C290.263 192.352 290.455 191.824 290.455 191.144V189.764C290.239 190.148 289.919 190.468 289.495 190.724C289.071 190.98 288.575 191.108 288.007 191.108C287.423 191.108 286.891 190.964 286.411 190.676C285.939 190.388 285.567 189.984 285.295 189.464C285.023 188.944 284.887 188.352 284.887 187.688C284.887 187.016 285.023 186.428 285.295 185.924C285.567 185.412 285.939 185.016 286.411 184.736C286.891 184.456 287.423 184.316 288.007 184.316ZM290.455 187.7C290.455 187.204 290.355 186.772 290.155 186.404C289.955 186.036 289.683 185.756 289.339 185.564C289.003 185.364 288.631 185.264 288.223 185.264C287.815 185.264 287.443 185.36 287.107 185.552C286.771 185.744 286.503 186.024 286.303 186.392C286.103 186.76 286.003 187.192 286.003 187.688C286.003 188.192 286.103 188.632 286.303 189.008C286.503 189.376 286.771 189.66 287.107 189.86C287.443 190.052 287.815 190.148 288.223 190.148C288.631 190.148 289.003 190.052 289.339 189.86C289.683 189.66 289.955 189.376 290.155 189.008C290.355 188.632 290.455 188.196 290.455 187.7ZM292.996 187.688C292.996 187.016 293.132 186.428 293.404 185.924C293.676 185.412 294.048 185.016 294.52 184.736C295 184.456 295.532 184.316 296.116 184.316C296.692 184.316 297.192 184.44 297.616 184.688C298.04 184.936 298.356 185.248 298.564 185.624V184.424H299.668V191H298.564V189.776C298.348 190.16 298.024 190.48 297.592 190.736C297.168 190.984 296.672 191.108 296.104 191.108C295.52 191.108 294.992 190.964 294.52 190.676C294.048 190.388 293.676 189.984 293.404 189.464C293.132 188.944 292.996 188.352 292.996 187.688ZM298.564 187.7C298.564 187.204 298.464 186.772 298.264 186.404C298.064 186.036 297.792 185.756 297.448 185.564C297.112 185.364 296.74 185.264 296.332 185.264C295.924 185.264 295.552 185.36 295.216 185.552C294.88 185.744 294.612 186.024 294.412 186.392C294.212 186.76 294.112 187.192 294.112 187.688C294.112 188.192 294.212 188.632 294.412 189.008C294.612 189.376 294.88 189.66 295.216 189.86C295.552 190.052 295.924 190.148 296.332 190.148C296.74 190.148 297.112 190.052 297.448 189.86C297.792 189.66 298.064 189.376 298.264 189.008C298.464 188.632 298.564 188.196 298.564 187.7ZM304.718 184.304C305.518 184.304 306.166 184.548 306.662 185.036C307.158 185.516 307.406 186.212 307.406 187.124V191H306.326V187.28C306.326 186.624 306.162 186.124 305.834 185.78C305.506 185.428 305.058 185.252 304.49 185.252C303.914 185.252 303.454 185.432 303.11 185.792C302.774 186.152 302.606 186.676 302.606 187.364V191H301.514V184.424H302.606V185.36C302.822 185.024 303.114 184.764 303.482 184.58C303.858 184.396 304.27 184.304 304.718 184.304ZM310.522 185.324V189.2C310.522 189.52 310.59 189.748 310.726 189.884C310.862 190.012 311.098 190.076 311.434 190.076H312.238V191H311.254C310.646 191 310.19 190.86 309.886 190.58C309.582 190.3 309.43 189.84 309.43 189.2V185.324H308.578V184.424H309.43V182.768H310.522V184.424H312.238V185.324H310.522ZM313.909 191.072C313.701 191.072 313.525 191 313.381 190.856C313.237 190.712 313.165 190.536 313.165 190.328C313.165 190.12 313.237 189.944 313.381 189.8C313.525 189.656 313.701 189.584 313.909 189.584C314.109 189.584 314.277 189.656 314.413 189.8C314.557 189.944 314.629 190.12 314.629 190.328C314.629 190.536 314.557 190.712 314.413 190.856C314.277 191 314.109 191.072 313.909 191.072ZM324.223 189.14H320.575L319.903 191H318.751L321.775 182.684H323.035L326.047 191H324.895L324.223 189.14ZM323.911 188.252L322.399 184.028L320.887 188.252H323.911ZM328.457 182.12V191H327.365V182.12H328.457ZM331.411 182.12V191H330.319V182.12H331.411ZM337.563 185.492C337.755 185.116 338.027 184.824 338.379 184.616C338.739 184.408 339.175 184.304 339.687 184.304V185.432H339.399C338.175 185.432 337.563 186.096 337.563 187.424V191H336.471V184.424H337.563V185.492ZM341.511 183.356C341.303 183.356 341.127 183.284 340.983 183.14C340.839 182.996 340.767 182.82 340.767 182.612C340.767 182.404 340.839 182.228 340.983 182.084C341.127 181.94 341.303 181.868 341.511 181.868C341.711 181.868 341.879 181.94 342.015 182.084C342.159 182.228 342.231 182.404 342.231 182.612C342.231 182.82 342.159 182.996 342.015 183.14C341.879 183.284 341.711 183.356 341.511 183.356ZM342.039 184.424V191H340.947V184.424H342.039ZM346.613 184.316C347.181 184.316 347.677 184.44 348.101 184.688C348.533 184.936 348.853 185.248 349.061 185.624V184.424H350.165V191.144C350.165 191.744 350.037 192.276 349.781 192.74C349.525 193.212 349.157 193.58 348.677 193.844C348.205 194.108 347.653 194.24 347.021 194.24C346.157 194.24 345.437 194.036 344.861 193.628C344.285 193.22 343.945 192.664 343.841 191.96H344.921C345.041 192.36 345.289 192.68 345.665 192.92C346.041 193.168 346.493 193.292 347.021 193.292C347.621 193.292 348.109 193.104 348.485 192.728C348.869 192.352 349.061 191.824 349.061 191.144V189.764C348.845 190.148 348.525 190.468 348.101 190.724C347.677 190.98 347.181 191.108 346.613 191.108C346.029 191.108 345.497 190.964 345.017 190.676C344.545 190.388 344.173 189.984 343.901 189.464C343.629 188.944 343.493 188.352 343.493 187.688C343.493 187.016 343.629 186.428 343.901 185.924C344.173 185.412 344.545 185.016 345.017 184.736C345.497 184.456 346.029 184.316 346.613 184.316ZM349.061 187.7C349.061 187.204 348.961 186.772 348.761 186.404C348.561 186.036 348.289 185.756 347.945 185.564C347.609 185.364 347.237 185.264 346.829 185.264C346.421 185.264 346.049 185.36 345.713 185.552C345.377 185.744 345.109 186.024 344.909 186.392C344.709 186.76 344.609 187.192 344.609 187.688C344.609 188.192 344.709 188.632 344.909 189.008C345.109 189.376 345.377 189.66 345.713 189.86C346.049 190.052 346.421 190.148 346.829 190.148C347.237 190.148 347.609 190.052 347.945 189.86C348.289 189.66 348.561 189.376 348.761 189.008C348.961 188.632 349.061 188.196 349.061 187.7ZM355.274 184.304C355.77 184.304 356.218 184.412 356.618 184.628C357.018 184.836 357.33 185.152 357.554 185.576C357.786 186 357.902 186.516 357.902 187.124V191H356.822V187.28C356.822 186.624 356.658 186.124 356.33 185.78C356.002 185.428 355.554 185.252 354.986 185.252C354.41 185.252 353.95 185.432 353.606 185.792C353.27 186.152 353.102 186.676 353.102 187.364V191H352.01V182.12H353.102V185.36C353.318 185.024 353.614 184.764 353.99 184.58C354.374 184.396 354.802 184.304 355.274 184.304ZM361.018 185.324V189.2C361.018 189.52 361.086 189.748 361.222 189.884C361.358 190.012 361.594 190.076 361.93 190.076H362.734V191H361.75C361.142 191 360.686 190.86 360.382 190.58C360.078 190.3 359.926 189.84 359.926 189.2V185.324H359.074V184.424H359.926V182.768H361.018V184.424H362.734V185.324H361.018ZM366.385 191.108C365.881 191.108 365.429 191.024 365.029 190.856C364.629 190.68 364.313 190.44 364.081 190.136C363.849 189.824 363.721 189.468 363.697 189.068H364.825C364.857 189.396 365.009 189.664 365.281 189.872C365.561 190.08 365.925 190.184 366.373 190.184C366.789 190.184 367.117 190.092 367.357 189.908C367.597 189.724 367.717 189.492 367.717 189.212C367.717 188.924 367.589 188.712 367.333 188.576C367.077 188.432 366.681 188.292 366.145 188.156C365.657 188.028 365.257 187.9 364.945 187.772C364.641 187.636 364.377 187.44 364.153 187.184C363.937 186.92 363.829 186.576 363.829 186.152C363.829 185.816 363.929 185.508 364.129 185.228C364.329 184.948 364.613 184.728 364.981 184.568C365.349 184.4 365.769 184.316 366.241 184.316C366.969 184.316 367.557 184.5 368.005 184.868C368.453 185.236 368.693 185.74 368.725 186.38H367.633C367.609 186.036 367.469 185.76 367.213 185.552C366.965 185.344 366.629 185.24 366.205 185.24C365.813 185.24 365.501 185.324 365.269 185.492C365.037 185.66 364.921 185.88 364.921 186.152C364.921 186.368 364.989 186.548 365.125 186.692C365.269 186.828 365.445 186.94 365.653 187.028C365.869 187.108 366.165 187.2 366.541 187.304C367.013 187.432 367.397 187.56 367.693 187.688C367.989 187.808 368.241 187.992 368.449 188.24C368.665 188.488 368.777 188.812 368.785 189.212C368.785 189.572 368.685 189.896 368.485 190.184C368.285 190.472 368.001 190.7 367.633 190.868C367.273 191.028 366.857 191.108 366.385 191.108ZM374.618 185.492C374.81 185.116 375.082 184.824 375.434 184.616C375.794 184.408 376.23 184.304 376.742 184.304V185.432H376.454C375.23 185.432 374.618 186.096 374.618 187.424V191H373.526V184.424H374.618V185.492ZM384.002 187.46C384.002 187.668 383.99 187.888 383.966 188.12H378.71C378.75 188.768 378.97 189.276 379.37 189.644C379.778 190.004 380.27 190.184 380.846 190.184C381.318 190.184 381.71 190.076 382.022 189.86C382.342 189.636 382.566 189.34 382.694 188.972H383.87C383.694 189.604 383.342 190.12 382.814 190.52C382.286 190.912 381.63 191.108 380.846 191.108C380.222 191.108 379.662 190.968 379.166 190.688C378.678 190.408 378.294 190.012 378.014 189.5C377.734 188.98 377.594 188.38 377.594 187.7C377.594 187.02 377.73 186.424 378.002 185.912C378.274 185.4 378.654 185.008 379.142 184.736C379.638 184.456 380.206 184.316 380.846 184.316C381.47 184.316 382.022 184.452 382.502 184.724C382.982 184.996 383.35 185.372 383.606 185.852C383.87 186.324 384.002 186.86 384.002 187.46ZM382.874 187.232C382.874 186.816 382.782 186.46 382.598 186.164C382.414 185.86 382.162 185.632 381.842 185.48C381.53 185.32 381.182 185.24 380.798 185.24C380.246 185.24 379.774 185.416 379.382 185.768C378.998 186.12 378.778 186.608 378.722 187.232H382.874ZM387.772 191.108C387.268 191.108 386.816 191.024 386.416 190.856C386.016 190.68 385.7 190.44 385.468 190.136C385.236 189.824 385.108 189.468 385.084 189.068H386.212C386.244 189.396 386.396 189.664 386.668 189.872C386.948 190.08 387.312 190.184 387.76 190.184C388.176 190.184 388.504 190.092 388.744 189.908C388.984 189.724 389.104 189.492 389.104 189.212C389.104 188.924 388.976 188.712 388.72 188.576C388.464 188.432 388.068 188.292 387.532 188.156C387.044 188.028 386.644 187.9 386.332 187.772C386.028 187.636 385.764 187.44 385.54 187.184C385.324 186.92 385.216 186.576 385.216 186.152C385.216 185.816 385.316 185.508 385.516 185.228C385.716 184.948 386 184.728 386.368 184.568C386.736 184.4 387.156 184.316 387.628 184.316C388.356 184.316 388.944 184.5 389.392 184.868C389.84 185.236 390.08 185.74 390.112 186.38H389.02C388.996 186.036 388.856 185.76 388.6 185.552C388.352 185.344 388.016 185.24 387.592 185.24C387.2 185.24 386.888 185.324 386.656 185.492C386.424 185.66 386.308 185.88 386.308 186.152C386.308 186.368 386.376 186.548 386.512 186.692C386.656 186.828 386.832 186.94 387.04 187.028C387.256 187.108 387.552 187.2 387.928 187.304C388.4 187.432 388.784 187.56 389.08 187.688C389.376 187.808 389.628 187.992 389.836 188.24C390.052 188.488 390.164 188.812 390.172 189.212C390.172 189.572 390.072 189.896 389.872 190.184C389.672 190.472 389.388 190.7 389.02 190.868C388.66 191.028 388.244 191.108 387.772 191.108ZM397.713 187.46C397.713 187.668 397.701 187.888 397.677 188.12H392.421C392.461 188.768 392.681 189.276 393.081 189.644C393.489 190.004 393.981 190.184 394.557 190.184C395.029 190.184 395.421 190.076 395.733 189.86C396.053 189.636 396.277 189.34 396.405 188.972H397.581C397.405 189.604 397.053 190.12 396.525 190.52C395.997 190.912 395.341 191.108 394.557 191.108C393.933 191.108 393.373 190.968 392.877 190.688C392.389 190.408 392.005 190.012 391.725 189.5C391.445 188.98 391.305 188.38 391.305 187.7C391.305 187.02 391.441 186.424 391.713 185.912C391.985 185.4 392.365 185.008 392.853 184.736C393.349 184.456 393.917 184.316 394.557 184.316C395.181 184.316 395.733 184.452 396.213 184.724C396.693 184.996 397.061 185.372 397.317 185.852C397.581 186.324 397.713 186.86 397.713 187.46ZM396.585 187.232C396.585 186.816 396.493 186.46 396.309 186.164C396.125 185.86 395.873 185.632 395.553 185.48C395.241 185.32 394.893 185.24 394.509 185.24C393.957 185.24 393.485 185.416 393.093 185.768C392.709 186.12 392.489 186.608 392.433 187.232H396.585ZM400.246 185.492C400.438 185.116 400.71 184.824 401.062 184.616C401.422 184.408 401.858 184.304 402.37 184.304V185.432H402.082C400.858 185.432 400.246 186.096 400.246 187.424V191H399.154V184.424H400.246V185.492ZM406.079 189.992L408.119 184.424H409.283L406.703 191H405.431L402.851 184.424H404.027L406.079 189.992ZM416.358 187.46C416.358 187.668 416.346 187.888 416.322 188.12H411.066C411.106 188.768 411.326 189.276 411.726 189.644C412.134 190.004 412.626 190.184 413.202 190.184C413.674 190.184 414.066 190.076 414.378 189.86C414.698 189.636 414.922 189.34 415.05 188.972H416.226C416.05 189.604 415.698 190.12 415.17 190.52C414.642 190.912 413.986 191.108 413.202 191.108C412.578 191.108 412.018 190.968 411.522 190.688C411.034 190.408 410.65 190.012 410.37 189.5C410.09 188.98 409.95 188.38 409.95 187.7C409.95 187.02 410.086 186.424 410.358 185.912C410.63 185.4 411.01 185.008 411.498 184.736C411.994 184.456 412.562 184.316 413.202 184.316C413.826 184.316 414.378 184.452 414.858 184.724C415.338 184.996 415.706 185.372 415.962 185.852C416.226 186.324 416.358 186.86 416.358 187.46ZM415.23 187.232C415.23 186.816 415.138 186.46 414.954 186.164C414.77 185.86 414.518 185.632 414.198 185.48C413.886 185.32 413.538 185.24 413.154 185.24C412.602 185.24 412.13 185.416 411.738 185.768C411.354 186.12 411.134 186.608 411.078 187.232H415.23ZM417.391 187.688C417.391 187.016 417.527 186.428 417.799 185.924C418.071 185.412 418.443 185.016 418.915 184.736C419.395 184.456 419.931 184.316 420.523 184.316C421.035 184.316 421.511 184.436 421.951 184.676C422.391 184.908 422.727 185.216 422.959 185.6V182.12H424.063V191H422.959V189.764C422.743 190.156 422.423 190.48 421.999 190.736C421.575 190.984 421.079 191.108 420.511 191.108C419.927 191.108 419.395 190.964 418.915 190.676C418.443 190.388 418.071 189.984 417.799 189.464C417.527 188.944 417.391 188.352 417.391 187.688ZM422.959 187.7C422.959 187.204 422.859 186.772 422.659 186.404C422.459 186.036 422.187 185.756 421.843 185.564C421.507 185.364 421.135 185.264 420.727 185.264C420.319 185.264 419.947 185.36 419.611 185.552C419.275 185.744 419.007 186.024 418.807 186.392C418.607 186.76 418.507 187.192 418.507 187.688C418.507 188.192 418.607 188.632 418.807 189.008C419.007 189.376 419.275 189.66 419.611 189.86C419.947 190.052 420.319 190.148 420.727 190.148C421.135 190.148 421.507 190.052 421.843 189.86C422.187 189.66 422.459 189.376 422.659 189.008C422.859 188.632 422.959 188.196 422.959 187.7Z" fill="#E8ECEF"/>
<path d="M459.936 185.216C459.936 185.664 459.828 186.084 459.612 186.476C459.404 186.868 459.072 187.184 458.616 187.424C458.168 187.664 457.6 187.784 456.912 187.784H455.508V191H453.828V182.624H456.912C457.56 182.624 458.112 182.736 458.568 182.96C459.024 183.184 459.364 183.492 459.588 183.884C459.82 184.276 459.936 184.72 459.936 185.216ZM456.84 186.428C457.304 186.428 457.648 186.324 457.872 186.116C458.096 185.9 458.208 185.6 458.208 185.216C458.208 184.4 457.752 183.992 456.84 183.992H455.508V186.428H456.84ZM462.809 185.384C463.025 185.032 463.305 184.756 463.649 184.556C464.001 184.356 464.401 184.256 464.849 184.256V186.02H464.405C463.877 186.02 463.477 186.144 463.205 186.392C462.941 186.64 462.809 187.072 462.809 187.688V191H461.129V184.352H462.809V185.384ZM466.832 183.56C466.536 183.56 466.288 183.468 466.088 183.284C465.896 183.092 465.8 182.856 465.8 182.576C465.8 182.296 465.896 182.064 466.088 181.88C466.288 181.688 466.536 181.592 466.832 181.592C467.128 181.592 467.372 181.688 467.564 181.88C467.764 182.064 467.864 182.296 467.864 182.576C467.864 182.856 467.764 183.092 467.564 183.284C467.372 183.468 467.128 183.56 466.832 183.56ZM467.66 184.352V191H465.98V184.352H467.66ZM472.092 189.452L473.772 184.352H475.56L473.1 191H471.06L468.612 184.352H470.412L472.092 189.452ZM476.072 187.652C476.072 186.98 476.204 186.384 476.468 185.864C476.74 185.344 477.104 184.944 477.56 184.664C478.024 184.384 478.54 184.244 479.108 184.244C479.604 184.244 480.036 184.344 480.404 184.544C480.78 184.744 481.08 184.996 481.304 185.3V184.352H482.996V191H481.304V190.028C481.088 190.34 480.788 190.6 480.404 190.808C480.028 191.008 479.592 191.108 479.096 191.108C478.536 191.108 478.024 190.964 477.56 190.676C477.104 190.388 476.74 189.984 476.468 189.464C476.204 188.936 476.072 188.332 476.072 187.652ZM481.304 187.676C481.304 187.268 481.224 186.92 481.064 186.632C480.904 186.336 480.688 186.112 480.416 185.96C480.144 185.8 479.852 185.72 479.54 185.72C479.228 185.72 478.94 185.796 478.676 185.948C478.412 186.1 478.196 186.324 478.028 186.62C477.868 186.908 477.788 187.252 477.788 187.652C477.788 188.052 477.868 188.404 478.028 188.708C478.196 189.004 478.412 189.232 478.676 189.392C478.948 189.552 479.236 189.632 479.54 189.632C479.852 189.632 480.144 189.556 480.416 189.404C480.688 189.244 480.904 189.02 481.064 188.732C481.224 188.436 481.304 188.084 481.304 187.676ZM484.205 187.676C484.205 186.988 484.345 186.388 484.625 185.876C484.905 185.356 485.293 184.956 485.789 184.676C486.285 184.388 486.853 184.244 487.493 184.244C488.317 184.244 488.997 184.452 489.533 184.868C490.077 185.276 490.441 185.852 490.625 186.596H488.813C488.717 186.308 488.553 186.084 488.321 185.924C488.097 185.756 487.817 185.672 487.481 185.672C487.001 185.672 486.621 185.848 486.341 186.2C486.061 186.544 485.921 187.036 485.921 187.676C485.921 188.308 486.061 188.8 486.341 189.152C486.621 189.496 487.001 189.668 487.481 189.668C488.161 189.668 488.605 189.364 488.813 188.756H490.625C490.441 189.476 490.077 190.048 489.533 190.472C488.989 190.896 488.309 191.108 487.493 191.108C486.853 191.108 486.285 190.968 485.789 190.688C485.293 190.4 484.905 190 484.625 189.488C484.345 188.968 484.205 188.364 484.205 187.676ZM498.215 184.352L494.099 194.144H492.311L493.751 190.832L491.087 184.352H492.971L494.687 188.996L496.427 184.352H498.215ZM508.088 185.216C508.088 185.664 507.98 186.084 507.764 186.476C507.556 186.868 507.224 187.184 506.768 187.424C506.32 187.664 505.752 187.784 505.064 187.784H503.66V191H501.98V182.624H505.064C505.712 182.624 506.264 182.736 506.72 182.96C507.176 183.184 507.516 183.492 507.74 183.884C507.972 184.276 508.088 184.72 508.088 185.216ZM504.992 186.428C505.456 186.428 505.8 186.324 506.024 186.116C506.248 185.9 506.36 185.6 506.36 185.216C506.36 184.4 505.904 183.992 504.992 183.992H503.66V186.428H504.992ZM512.233 191.108C511.593 191.108 511.017 190.968 510.505 190.688C509.993 190.4 509.589 189.996 509.293 189.476C509.005 188.956 508.861 188.356 508.861 187.676C508.861 186.996 509.009 186.396 509.305 185.876C509.609 185.356 510.021 184.956 510.541 184.676C511.061 184.388 511.641 184.244 512.281 184.244C512.921 184.244 513.501 184.388 514.021 184.676C514.541 184.956 514.949 185.356 515.245 185.876C515.549 186.396 515.701 186.996 515.701 187.676C515.701 188.356 515.545 188.956 515.233 189.476C514.929 189.996 514.513 190.4 513.985 190.688C513.465 190.968 512.881 191.108 512.233 191.108ZM512.233 189.644C512.537 189.644 512.821 189.572 513.085 189.428C513.357 189.276 513.573 189.052 513.733 188.756C513.893 188.46 513.973 188.1 513.973 187.676C513.973 187.044 513.805 186.56 513.469 186.224C513.141 185.88 512.737 185.708 512.257 185.708C511.777 185.708 511.373 185.88 511.045 186.224C510.725 186.56 510.565 187.044 510.565 187.676C510.565 188.308 510.721 188.796 511.033 189.14C511.353 189.476 511.753 189.644 512.233 189.644ZM518.613 182.12V191H516.933V182.12H518.613ZM521.125 183.56C520.829 183.56 520.581 183.468 520.381 183.284C520.189 183.092 520.093 182.856 520.093 182.576C520.093 182.296 520.189 182.064 520.381 181.88C520.581 181.688 520.829 181.592 521.125 181.592C521.421 181.592 521.665 181.688 521.857 181.88C522.057 182.064 522.157 182.296 522.157 182.576C522.157 182.856 522.057 183.092 521.857 183.284C521.665 183.468 521.421 183.56 521.125 183.56ZM521.953 184.352V191H520.273V184.352H521.953ZM523.181 187.676C523.181 186.988 523.321 186.388 523.601 185.876C523.881 185.356 524.269 184.956 524.765 184.676C525.261 184.388 525.829 184.244 526.469 184.244C527.293 184.244 527.973 184.452 528.509 184.868C529.053 185.276 529.417 185.852 529.601 186.596H527.789C527.693 186.308 527.529 186.084 527.297 185.924C527.073 185.756 526.793 185.672 526.457 185.672C525.977 185.672 525.597 185.848 525.317 186.2C525.037 186.544 524.897 187.036 524.897 187.676C524.897 188.308 525.037 188.8 525.317 189.152C525.597 189.496 525.977 189.668 526.457 189.668C527.137 189.668 527.581 189.364 527.789 188.756H529.601C529.417 189.476 529.053 190.048 528.509 190.472C527.965 190.896 527.285 191.108 526.469 191.108C525.829 191.108 525.261 190.968 524.765 190.688C524.269 190.4 523.881 190 523.601 189.488C523.321 188.968 523.181 188.364 523.181 187.676ZM537.192 184.352L533.076 194.144H531.288L532.728 190.832L530.064 184.352H531.948L533.664 188.996L535.404 184.352H537.192Z" fill="#FEFEFE"/>
<path d="M572.528 182.624V183.98H570.296V191H568.616V183.98H566.384V182.624H572.528ZM579.934 187.532C579.934 187.772 579.918 187.988 579.886 188.18H575.026C575.066 188.66 575.234 189.036 575.53 189.308C575.826 189.58 576.19 189.716 576.622 189.716C577.246 189.716 577.69 189.448 577.954 188.912H579.766C579.574 189.552 579.206 190.08 578.662 190.496C578.118 190.904 577.45 191.108 576.658 191.108C576.018 191.108 575.442 190.968 574.93 190.688C574.426 190.4 574.03 189.996 573.742 189.476C573.462 188.956 573.322 188.356 573.322 187.676C573.322 186.988 573.462 186.384 573.742 185.864C574.022 185.344 574.414 184.944 574.918 184.664C575.422 184.384 576.002 184.244 576.658 184.244C577.29 184.244 577.854 184.38 578.35 184.652C578.854 184.924 579.242 185.312 579.514 185.816C579.794 186.312 579.934 186.884 579.934 187.532ZM578.194 187.052C578.186 186.62 578.03 186.276 577.726 186.02C577.422 185.756 577.05 185.624 576.61 185.624C576.194 185.624 575.842 185.752 575.554 186.008C575.274 186.256 575.102 186.604 575.038 187.052H578.194ZM582.84 185.384C583.056 185.032 583.336 184.756 583.68 184.556C584.032 184.356 584.432 184.256 584.88 184.256V186.02H584.436C583.908 186.02 583.508 186.144 583.236 186.392C582.972 186.64 582.84 187.072 582.84 187.688V191H581.16V184.352H582.84V185.384ZM594.268 184.256C595.084 184.256 595.74 184.508 596.236 185.012C596.74 185.508 596.992 186.204 596.992 187.1V191H595.312V187.328C595.312 186.808 595.18 186.412 594.916 186.14C594.652 185.86 594.292 185.72 593.836 185.72C593.38 185.72 593.016 185.86 592.744 186.14C592.48 186.412 592.348 186.808 592.348 187.328V191H590.668V187.328C590.668 186.808 590.536 186.412 590.272 186.14C590.008 185.86 589.648 185.72 589.192 185.72C588.728 185.72 588.36 185.86 588.088 186.14C587.824 186.412 587.692 186.808 587.692 187.328V191H586.012V184.352H587.692V185.156C587.908 184.876 588.184 184.656 588.52 184.496C588.864 184.336 589.24 184.256 589.648 184.256C590.168 184.256 590.632 184.368 591.04 184.592C591.448 184.808 591.764 185.12 591.988 185.528C592.204 185.144 592.516 184.836 592.924 184.604C593.34 184.372 593.788 184.256 594.268 184.256ZM601.13 191.108C600.586 191.108 600.098 191.012 599.666 190.82C599.234 190.62 598.89 190.352 598.634 190.016C598.386 189.68 598.25 189.308 598.226 188.9H599.918C599.95 189.156 600.074 189.368 600.29 189.536C600.514 189.704 600.79 189.788 601.118 189.788C601.438 189.788 601.686 189.724 601.862 189.596C602.046 189.468 602.138 189.304 602.138 189.104C602.138 188.888 602.026 188.728 601.802 188.624C601.586 188.512 601.238 188.392 600.758 188.264C600.262 188.144 599.854 188.02 599.534 187.892C599.222 187.764 598.95 187.568 598.718 187.304C598.494 187.04 598.382 186.684 598.382 186.236C598.382 185.868 598.486 185.532 598.694 185.228C598.91 184.924 599.214 184.684 599.606 184.508C600.006 184.332 600.474 184.244 601.01 184.244C601.802 184.244 602.434 184.444 602.906 184.844C603.378 185.236 603.638 185.768 603.686 186.44H602.078C602.054 186.176 601.942 185.968 601.742 185.816C601.55 185.656 601.29 185.576 600.962 185.576C600.658 185.576 600.422 185.632 600.254 185.744C600.094 185.856 600.014 186.012 600.014 186.212C600.014 186.436 600.126 186.608 600.35 186.728C600.574 186.84 600.922 186.956 601.394 187.076C601.874 187.196 602.27 187.32 602.582 187.448C602.894 187.576 603.162 187.776 603.386 188.048C603.618 188.312 603.738 188.664 603.746 189.104C603.746 189.488 603.638 189.832 603.422 190.136C603.214 190.44 602.91 190.68 602.51 190.856C602.118 191.024 601.658 191.108 601.13 191.108ZM610.936 191.108C610.296 191.108 609.72 190.968 609.208 190.688C608.696 190.4 608.292 189.996 607.996 189.476C607.708 188.956 607.564 188.356 607.564 187.676C607.564 186.996 607.712 186.396 608.008 185.876C608.312 185.356 608.724 184.956 609.244 184.676C609.764 184.388 610.344 184.244 610.984 184.244C611.624 184.244 612.204 184.388 612.724 184.676C613.244 184.956 613.652 185.356 613.948 185.876C614.252 186.396 614.404 186.996 614.404 187.676C614.404 188.356 614.248 188.956 613.936 189.476C613.632 189.996 613.216 190.4 612.688 190.688C612.168 190.968 611.584 191.108 610.936 191.108ZM610.936 189.644C611.24 189.644 611.524 189.572 611.788 189.428C612.06 189.276 612.276 189.052 612.436 188.756C612.596 188.46 612.676 188.1 612.676 187.676C612.676 187.044 612.508 186.56 612.172 186.224C611.844 185.88 611.44 185.708 610.96 185.708C610.48 185.708 610.076 185.88 609.748 186.224C609.428 186.56 609.268 187.044 609.268 187.676C609.268 188.308 609.424 188.796 609.736 189.14C610.056 189.476 610.456 189.644 610.936 189.644ZM618.685 185.732H617.521V191H615.817V185.732H615.061V184.352H615.817V184.016C615.817 183.2 616.049 182.6 616.513 182.216C616.977 181.832 617.677 181.652 618.613 181.676V183.092C618.205 183.084 617.921 183.152 617.761 183.296C617.601 183.44 617.521 183.7 617.521 184.076V184.352H618.685V185.732ZM624.289 182.624V187.808C624.289 188.376 624.437 188.812 624.733 189.116C625.029 189.412 625.445 189.56 625.981 189.56C626.525 189.56 626.945 189.412 627.241 189.116C627.537 188.812 627.685 188.376 627.685 187.808V182.624H629.377V187.796C629.377 188.508 629.221 189.112 628.909 189.608C628.605 190.096 628.193 190.464 627.673 190.712C627.161 190.96 626.589 191.084 625.957 191.084C625.333 191.084 624.765 190.96 624.253 190.712C623.749 190.464 623.349 190.096 623.053 189.608C622.757 189.112 622.609 188.508 622.609 187.796V182.624H624.289ZM633.544 191.108C633 191.108 632.512 191.012 632.08 190.82C631.648 190.62 631.304 190.352 631.048 190.016C630.8 189.68 630.664 189.308 630.64 188.9H632.332C632.364 189.156 632.488 189.368 632.704 189.536C632.928 189.704 633.204 189.788 633.532 189.788C633.852 189.788 634.1 189.724 634.276 189.596C634.46 189.468 634.552 189.304 634.552 189.104C634.552 188.888 634.44 188.728 634.216 188.624C634 188.512 633.652 188.392 633.172 188.264C632.676 188.144 632.268 188.02 631.948 187.892C631.636 187.764 631.364 187.568 631.132 187.304C630.908 187.04 630.796 186.684 630.796 186.236C630.796 185.868 630.9 185.532 631.108 185.228C631.324 184.924 631.628 184.684 632.02 184.508C632.42 184.332 632.888 184.244 633.424 184.244C634.216 184.244 634.848 184.444 635.32 184.844C635.792 185.236 636.052 185.768 636.1 186.44H634.492C634.468 186.176 634.356 185.968 634.156 185.816C633.964 185.656 633.704 185.576 633.376 185.576C633.072 185.576 632.836 185.632 632.668 185.744C632.508 185.856 632.428 186.012 632.428 186.212C632.428 186.436 632.54 186.608 632.764 186.728C632.988 186.84 633.336 186.956 633.808 187.076C634.288 187.196 634.684 187.32 634.996 187.448C635.308 187.576 635.576 187.776 635.8 188.048C636.032 188.312 636.152 188.664 636.16 189.104C636.16 189.488 636.052 189.832 635.836 190.136C635.628 190.44 635.324 190.68 634.924 190.856C634.532 191.024 634.072 191.108 633.544 191.108ZM643.719 187.532C643.719 187.772 643.703 187.988 643.671 188.18H638.811C638.851 188.66 639.019 189.036 639.315 189.308C639.611 189.58 639.975 189.716 640.407 189.716C641.031 189.716 641.475 189.448 641.739 188.912H643.551C643.359 189.552 642.991 190.08 642.447 190.496C641.903 190.904 641.235 191.108 640.443 191.108C639.803 191.108 639.227 190.968 638.715 190.688C638.211 190.4 637.815 189.996 637.527 189.476C637.247 188.956 637.107 188.356 637.107 187.676C637.107 186.988 637.247 186.384 637.527 185.864C637.807 185.344 638.199 184.944 638.703 184.664C639.207 184.384 639.787 184.244 640.443 184.244C641.075 184.244 641.639 184.38 642.135 184.652C642.639 184.924 643.027 185.312 643.299 185.816C643.579 186.312 643.719 186.884 643.719 187.532ZM641.979 187.052C641.971 186.62 641.815 186.276 641.511 186.02C641.207 185.756 640.835 185.624 640.395 185.624C639.979 185.624 639.627 185.752 639.339 186.008C639.059 186.256 638.887 186.604 638.823 187.052H641.979Z" fill="#FEFEFE"/>
<rect x="1160" y="179" width="20" height="20" rx="4" stroke="#FEFEFE" stroke-width="1.5"/>
<circle cx="1176" cy="183" r="1" fill="#FEFEFE"/>
<circle cx="1170" cy="189" r="5" stroke="#FEFEFE" stroke-width="1.5"/>
<path d="M1224 180H1221C1218.24 180 1216 182.239 1216 185V187H1212V191H1216V198H1220V191H1224V187H1220V185C1220 184.448 1220.45 184 1221 184H1224V180Z" stroke="#FEFEFE" stroke-width="1.5" stroke-linecap="round" stroke-linejoin="round"/>
<rect x="1256" y="180" width="20" height="18" rx="4" stroke="#FEFEFE" stroke-width="1.5"/>
<path d="M1264.45 185.724L1269.21 188.106C1269.95 188.474 1269.95 189.526 1269.21 189.894L1264.45 192.276C1263.78 192.609 1263 192.125 1263 191.382V186.618C1263 185.875 1263.78 185.391 1264.45 185.724Z" stroke="#FEFEFE" stroke-width="1.5" stroke-linecap="round"/>
</svg>
