<svg width="71" height="56" viewBox="0 0 71 56" fill="none" xmlns="http://www.w3.org/2000/svg">
<rect width="67" height="24" rx="4" fill="white"/>
<path d="M25.174 6.36364V18H23.049L17.9865 10.6761H17.9013V18H15.4411V6.36364H17.6001L22.6229 13.6818H22.7251V6.36364H25.174ZM27.2067 18V6.36364H35.0476V8.39205H29.6669V11.1648H34.6442V13.1932H29.6669V15.9716H35.0703V18H27.2067ZM39.6229 18L36.2933 6.36364H38.9808L40.907 14.4489H41.0036L43.1286 6.36364H45.4297L47.549 14.4659H47.6513L49.5774 6.36364H52.2649L48.9354 18H46.5376L44.3217 10.392H44.2308L42.0206 18H39.6229Z" fill="#141718"/>
<rect y="32" width="71" height="24" rx="4" fill="#38CB89"/>
<path d="M20.6143 43.2216V45.142H15.3075V43.2216H20.6143ZM26.9041 50.1591C26.1011 50.1591 25.3852 50.0114 24.7564 49.7159C24.1314 49.4205 23.6352 49.0133 23.2678 48.4943C22.9003 47.9754 22.709 47.3807 22.6939 46.7102H25.0803C25.1068 47.161 25.2962 47.5265 25.6484 47.8068C26.0007 48.0871 26.4193 48.2273 26.9041 48.2273C27.2905 48.2273 27.6314 48.142 27.9268 47.9716C28.2261 47.7973 28.459 47.5568 28.6257 47.25C28.7962 46.9394 28.8814 46.5833 28.8814 46.1818C28.8814 45.7727 28.7943 45.4129 28.62 45.1023C28.4496 44.7917 28.2128 44.5492 27.9098 44.375C27.6068 44.2008 27.2602 44.1117 26.87 44.108C26.5291 44.108 26.1977 44.178 25.8757 44.3182C25.5575 44.4583 25.3094 44.6496 25.1314 44.892L22.9439 44.5L23.495 38.3636H30.6087V40.375H25.5234L25.2223 43.2898H25.2905C25.495 43.0019 25.8037 42.7633 26.2166 42.5739C26.6295 42.3845 27.0916 42.2898 27.603 42.2898C28.3037 42.2898 28.9287 42.4545 29.478 42.7841C30.0272 43.1136 30.4609 43.5663 30.7791 44.142C31.0973 44.714 31.2545 45.3731 31.2507 46.1193C31.2545 46.9034 31.0727 47.6004 30.7053 48.2102C30.3416 48.8163 29.8321 49.2936 29.1768 49.642C28.5253 49.9867 27.7678 50.1591 26.9041 50.1591ZM37.5291 50.2557C36.5518 50.2519 35.7109 50.0114 35.0064 49.5341C34.3056 49.0568 33.7659 48.3655 33.3871 47.4602C33.0121 46.5549 32.8265 45.4659 32.8303 44.1932C32.8303 42.9242 33.0178 41.8428 33.3928 40.9489C33.7715 40.0549 34.3113 39.375 35.0121 38.9091C35.7166 38.4394 36.5556 38.2045 37.5291 38.2045C38.5026 38.2045 39.3397 38.4394 40.0405 38.9091C40.745 39.3788 41.2867 40.0606 41.6655 40.9545C42.0443 41.8447 42.2318 42.9242 42.228 44.1932C42.228 45.4697 42.0386 46.5606 41.6598 47.4659C41.2848 48.3712 40.7469 49.0625 40.0462 49.5398C39.3454 50.017 38.5064 50.2557 37.5291 50.2557ZM37.5291 48.2159C38.1958 48.2159 38.728 47.8807 39.1257 47.2102C39.5234 46.5398 39.7204 45.5341 39.7166 44.1932C39.7166 43.3106 39.6257 42.5758 39.4439 41.9886C39.2659 41.4015 39.0121 40.9602 38.6825 40.6648C38.3568 40.3693 37.9723 40.2216 37.5291 40.2216C36.8662 40.2216 36.3359 40.553 35.9382 41.2159C35.5405 41.8788 35.3397 42.8712 35.3359 44.1932C35.3359 45.0871 35.425 45.8333 35.603 46.4318C35.7848 47.0265 36.0405 47.4735 36.37 47.7727C36.6996 48.0682 37.0859 48.2159 37.5291 48.2159ZM50.3516 47.8182V47.2045C50.3516 46.7386 50.45 46.3106 50.647 45.9205C50.8478 45.5265 51.1375 45.2121 51.5163 44.9773C51.8989 44.7386 52.3648 44.6193 52.9141 44.6193C53.4709 44.6193 53.9387 44.7367 54.3175 44.9716C54.7 45.2064 54.9879 45.5208 55.1811 45.9148C55.3781 46.3049 55.4766 46.7348 55.4766 47.2045V47.8182C55.4766 48.2841 55.3781 48.714 55.1811 49.108C54.9841 49.4981 54.6944 49.8106 54.3118 50.0455C53.9292 50.2841 53.4633 50.4034 52.9141 50.4034C52.3572 50.4034 51.8894 50.2841 51.5107 50.0455C51.1319 49.8106 50.844 49.4981 50.647 49.108C50.45 48.714 50.3516 48.2841 50.3516 47.8182ZM52.005 47.2045V47.8182C52.005 48.0871 52.0694 48.3409 52.1982 48.5795C52.3307 48.8182 52.5694 48.9375 52.9141 48.9375C53.2588 48.9375 53.4936 48.8201 53.6186 48.5852C53.7474 48.3504 53.8118 48.0947 53.8118 47.8182V47.2045C53.8118 46.928 53.7512 46.6705 53.63 46.4318C53.5088 46.1932 53.2701 46.0739 52.9141 46.0739C52.5732 46.0739 52.3364 46.1932 52.2038 46.4318C52.0713 46.6705 52.005 46.928 52.005 47.2045ZM44.38 41.1591V40.5455C44.38 40.0758 44.4804 39.6458 44.6811 39.2557C44.8819 38.8617 45.1716 38.5473 45.5504 38.3125C45.933 38.0777 46.3951 37.9602 46.9368 37.9602C47.4974 37.9602 47.9671 38.0777 48.3459 38.3125C48.7247 38.5473 49.0125 38.8617 49.2095 39.2557C49.4065 39.6458 49.505 40.0758 49.505 40.5455V41.1591C49.505 41.6288 49.4046 42.0587 49.2038 42.4489C49.0069 42.839 48.7171 43.1515 48.3345 43.3864C47.9557 43.6174 47.4898 43.733 46.9368 43.733C46.3838 43.733 45.916 43.6155 45.5334 43.3807C45.1546 43.142 44.8667 42.8295 44.6697 42.4432C44.4766 42.053 44.38 41.625 44.38 41.1591ZM46.0447 40.5455V41.1591C46.0447 41.4356 46.1091 41.6913 46.2379 41.9261C46.3705 42.161 46.6035 42.2784 46.9368 42.2784C47.2853 42.2784 47.522 42.161 47.647 41.9261C47.7758 41.6913 47.8402 41.4356 47.8402 41.1591V40.5455C47.8402 40.2689 47.7796 40.0114 47.6584 39.7727C47.5372 39.5341 47.2966 39.4148 46.9368 39.4148C46.5997 39.4148 46.3667 39.536 46.2379 39.7784C46.1091 40.0208 46.0447 40.2765 46.0447 40.5455ZM45.13 50L53.13 38.3636H54.6186L46.6186 50H45.13Z" fill="#FEFEFE"/>
</svg>
