<svg width="720" height="532" viewBox="0 0 720 532" fill="none" xmlns="http://www.w3.org/2000/svg">
<rect width="720" height="532" fill="#F3F5F7"/>
<path d="M79.3239 145.71C79.2784 145.252 79.0833 144.896 78.7386 144.642C78.3939 144.388 77.9261 144.261 77.3352 144.261C76.9337 144.261 76.5947 144.318 76.3182 144.432C76.0417 144.542 75.8295 144.695 75.6818 144.892C75.5379 145.089 75.4659 145.312 75.4659 145.562C75.4583 145.771 75.5019 145.953 75.5966 146.108C75.6951 146.263 75.8295 146.398 76 146.511C76.1705 146.621 76.3674 146.718 76.5909 146.801C76.8144 146.881 77.053 146.949 77.3068 147.006L78.3523 147.256C78.8598 147.369 79.3258 147.521 79.75 147.71C80.1742 147.9 80.5417 148.133 80.8523 148.409C81.1629 148.686 81.4034 149.011 81.5739 149.386C81.7481 149.761 81.8371 150.191 81.8409 150.676C81.8371 151.388 81.6553 152.006 81.2955 152.528C80.9394 153.047 80.4242 153.451 79.75 153.739C79.0795 154.023 78.2708 154.165 77.3239 154.165C76.3845 154.165 75.5663 154.021 74.8693 153.733C74.1761 153.445 73.6345 153.019 73.2443 152.455C72.858 151.886 72.6553 151.184 72.6364 150.347H75.017C75.0436 150.737 75.1553 151.062 75.3523 151.324C75.553 151.581 75.8201 151.777 76.1534 151.909C76.4905 152.038 76.8712 152.102 77.2955 152.102C77.7121 152.102 78.0739 152.042 78.3807 151.92C78.6913 151.799 78.9318 151.631 79.1023 151.415C79.2727 151.199 79.358 150.951 79.358 150.67C79.358 150.409 79.2803 150.189 79.125 150.011C78.9735 149.833 78.75 149.682 78.4545 149.557C78.1629 149.432 77.8049 149.318 77.3807 149.216L76.1136 148.898C75.1326 148.659 74.358 148.286 73.7898 147.778C73.2216 147.271 72.9394 146.587 72.9432 145.727C72.9394 145.023 73.1269 144.407 73.5057 143.881C73.8883 143.354 74.4129 142.943 75.0795 142.648C75.7462 142.352 76.5038 142.205 77.3523 142.205C78.2159 142.205 78.9697 142.352 79.6136 142.648C80.2614 142.943 80.7652 143.354 81.125 143.881C81.4848 144.407 81.6705 145.017 81.6818 145.71H79.3239ZM85.2358 154H82.5994L86.6165 142.364H89.7869L93.7983 154H91.1619L88.2472 145.023H88.1562L85.2358 154ZM85.071 149.426H91.2983V151.347H85.071V149.426ZM95.1989 154V142.364H97.6591V151.972H102.648V154H95.1989ZM104.277 154V142.364H112.118V144.392H106.737V147.165H111.714V149.193H106.737V151.972H112.141V154H104.277ZM124.964 142.364H127.425V149.92C127.425 150.769 127.222 151.511 126.817 152.148C126.415 152.784 125.853 153.28 125.129 153.636C124.406 153.989 123.563 154.165 122.601 154.165C121.635 154.165 120.79 153.989 120.067 153.636C119.343 153.28 118.781 152.784 118.379 152.148C117.978 151.511 117.777 150.769 117.777 149.92V142.364H120.237V149.71C120.237 150.153 120.334 150.547 120.527 150.892C120.724 151.237 121 151.508 121.357 151.705C121.713 151.902 122.127 152 122.601 152C123.078 152 123.493 151.902 123.845 151.705C124.201 151.508 124.476 151.237 124.669 150.892C124.866 150.547 124.964 150.153 124.964 149.71V142.364ZM129.449 154V142.364H134.04C134.922 142.364 135.674 142.532 136.295 142.869C136.917 143.203 137.39 143.667 137.716 144.261C138.045 144.852 138.21 145.534 138.21 146.307C138.21 147.08 138.044 147.761 137.71 148.352C137.377 148.943 136.894 149.403 136.261 149.733C135.633 150.062 134.871 150.227 133.977 150.227H131.051V148.256H133.58C134.053 148.256 134.443 148.174 134.75 148.011C135.061 147.845 135.292 147.616 135.443 147.324C135.598 147.028 135.676 146.689 135.676 146.307C135.676 145.92 135.598 145.583 135.443 145.295C135.292 145.004 135.061 144.778 134.75 144.619C134.439 144.456 134.045 144.375 133.568 144.375H131.909V154H129.449ZM143.068 144.392V142.364H152.625V144.392H149.062V154H146.631V144.392H143.068ZM164.361 148.182C164.361 149.451 164.12 150.53 163.639 151.42C163.162 152.311 162.51 152.991 161.685 153.46C160.863 153.926 159.938 154.159 158.912 154.159C157.878 154.159 156.95 153.924 156.128 153.455C155.306 152.985 154.656 152.305 154.179 151.415C153.702 150.525 153.463 149.447 153.463 148.182C153.463 146.913 153.702 145.833 154.179 144.943C154.656 144.053 155.306 143.375 156.128 142.909C156.95 142.439 157.878 142.205 158.912 142.205C159.938 142.205 160.863 142.439 161.685 142.909C162.51 143.375 163.162 144.053 163.639 144.943C164.12 145.833 164.361 146.913 164.361 148.182ZM161.866 148.182C161.866 147.36 161.743 146.667 161.497 146.102C161.255 145.538 160.912 145.11 160.469 144.818C160.026 144.527 159.507 144.381 158.912 144.381C158.317 144.381 157.798 144.527 157.355 144.818C156.912 145.11 156.567 145.538 156.321 146.102C156.079 146.667 155.957 147.36 155.957 148.182C155.957 149.004 156.079 149.697 156.321 150.261C156.567 150.826 156.912 151.254 157.355 151.545C157.798 151.837 158.317 151.983 158.912 151.983C159.507 151.983 160.026 151.837 160.469 151.545C160.912 151.254 161.255 150.826 161.497 150.261C161.743 149.697 161.866 149.004 161.866 148.182ZM174.119 154.159C173.271 154.159 172.515 154.013 171.852 153.722C171.193 153.426 170.672 153.021 170.29 152.506C169.911 151.987 169.716 151.388 169.705 150.71H172.182C172.197 150.994 172.29 151.244 172.46 151.46C172.634 151.672 172.866 151.837 173.153 151.955C173.441 152.072 173.765 152.131 174.125 152.131C174.5 152.131 174.831 152.064 175.119 151.932C175.407 151.799 175.633 151.616 175.795 151.381C175.958 151.146 176.04 150.875 176.04 150.568C176.04 150.258 175.953 149.983 175.778 149.744C175.608 149.502 175.362 149.312 175.04 149.176C174.722 149.04 174.343 148.972 173.903 148.972H172.818V147.165H173.903C174.275 147.165 174.602 147.1 174.886 146.972C175.174 146.843 175.398 146.665 175.557 146.438C175.716 146.206 175.795 145.938 175.795 145.631C175.795 145.339 175.725 145.083 175.585 144.864C175.449 144.64 175.256 144.466 175.006 144.341C174.759 144.216 174.472 144.153 174.142 144.153C173.809 144.153 173.504 144.214 173.227 144.335C172.951 144.453 172.729 144.621 172.562 144.841C172.396 145.061 172.307 145.318 172.295 145.614H169.938C169.949 144.943 170.14 144.352 170.511 143.841C170.883 143.33 171.383 142.93 172.011 142.642C172.644 142.35 173.358 142.205 174.153 142.205C174.956 142.205 175.659 142.35 176.261 142.642C176.864 142.934 177.331 143.328 177.665 143.824C178.002 144.316 178.169 144.869 178.165 145.483C178.169 146.134 177.966 146.678 177.557 147.114C177.152 147.549 176.623 147.826 175.972 147.943V148.034C176.828 148.144 177.479 148.441 177.926 148.926C178.377 149.407 178.6 150.009 178.597 150.733C178.6 151.396 178.409 151.985 178.023 152.5C177.64 153.015 177.112 153.42 176.438 153.716C175.763 154.011 174.991 154.159 174.119 154.159ZM184.615 154.159C183.812 154.159 183.096 154.011 182.467 153.716C181.842 153.42 181.346 153.013 180.979 152.494C180.611 151.975 180.42 151.381 180.405 150.71H182.791C182.818 151.161 183.007 151.527 183.359 151.807C183.712 152.087 184.13 152.227 184.615 152.227C185.001 152.227 185.342 152.142 185.638 151.972C185.937 151.797 186.17 151.557 186.337 151.25C186.507 150.939 186.592 150.583 186.592 150.182C186.592 149.773 186.505 149.413 186.331 149.102C186.161 148.792 185.924 148.549 185.621 148.375C185.318 148.201 184.971 148.112 184.581 148.108C184.24 148.108 183.909 148.178 183.587 148.318C183.268 148.458 183.02 148.65 182.842 148.892L180.655 148.5L181.206 142.364H188.32V144.375H183.234L182.933 147.29H183.001C183.206 147.002 183.515 146.763 183.928 146.574C184.34 146.384 184.803 146.29 185.314 146.29C186.015 146.29 186.64 146.455 187.189 146.784C187.738 147.114 188.172 147.566 188.49 148.142C188.808 148.714 188.965 149.373 188.962 150.119C188.965 150.903 188.784 151.6 188.416 152.21C188.053 152.816 187.543 153.294 186.888 153.642C186.236 153.987 185.479 154.159 184.615 154.159ZM197.047 151.818V151.205C197.047 150.739 197.145 150.311 197.342 149.92C197.543 149.527 197.833 149.212 198.212 148.977C198.594 148.739 199.06 148.619 199.609 148.619C200.166 148.619 200.634 148.737 201.013 148.972C201.395 149.206 201.683 149.521 201.876 149.915C202.073 150.305 202.172 150.735 202.172 151.205V151.818C202.172 152.284 202.073 152.714 201.876 153.108C201.679 153.498 201.39 153.811 201.007 154.045C200.625 154.284 200.159 154.403 199.609 154.403C199.053 154.403 198.585 154.284 198.206 154.045C197.827 153.811 197.539 153.498 197.342 153.108C197.145 152.714 197.047 152.284 197.047 151.818ZM198.7 151.205V151.818C198.7 152.087 198.765 152.341 198.893 152.58C199.026 152.818 199.265 152.938 199.609 152.938C199.954 152.938 200.189 152.82 200.314 152.585C200.443 152.35 200.507 152.095 200.507 151.818V151.205C200.507 150.928 200.446 150.67 200.325 150.432C200.204 150.193 199.965 150.074 199.609 150.074C199.268 150.074 199.032 150.193 198.899 150.432C198.767 150.67 198.7 150.928 198.7 151.205ZM191.075 145.159V144.545C191.075 144.076 191.176 143.646 191.376 143.256C191.577 142.862 191.867 142.547 192.246 142.312C192.628 142.078 193.09 141.96 193.632 141.96C194.193 141.96 194.662 142.078 195.041 142.312C195.42 142.547 195.708 142.862 195.905 143.256C196.102 143.646 196.2 144.076 196.2 144.545V145.159C196.2 145.629 196.1 146.059 195.899 146.449C195.702 146.839 195.412 147.152 195.03 147.386C194.651 147.617 194.185 147.733 193.632 147.733C193.079 147.733 192.611 147.616 192.229 147.381C191.85 147.142 191.562 146.83 191.365 146.443C191.172 146.053 191.075 145.625 191.075 145.159ZM192.74 144.545V145.159C192.74 145.436 192.804 145.691 192.933 145.926C193.066 146.161 193.299 146.278 193.632 146.278C193.981 146.278 194.217 146.161 194.342 145.926C194.471 145.691 194.536 145.436 194.536 145.159V144.545C194.536 144.269 194.475 144.011 194.354 143.773C194.232 143.534 193.992 143.415 193.632 143.415C193.295 143.415 193.062 143.536 192.933 143.778C192.804 144.021 192.74 144.277 192.74 144.545ZM191.825 154L199.825 142.364H201.314L193.314 154H191.825ZM218.892 148.182C218.892 149.451 218.652 150.53 218.17 151.42C217.693 152.311 217.042 152.991 216.216 153.46C215.394 153.926 214.47 154.159 213.443 154.159C212.409 154.159 211.481 153.924 210.659 153.455C209.837 152.985 209.188 152.305 208.71 151.415C208.233 150.525 207.994 149.447 207.994 148.182C207.994 146.913 208.233 145.833 208.71 144.943C209.188 144.053 209.837 143.375 210.659 142.909C211.481 142.439 212.409 142.205 213.443 142.205C214.47 142.205 215.394 142.439 216.216 142.909C217.042 143.375 217.693 144.053 218.17 144.943C218.652 145.833 218.892 146.913 218.892 148.182ZM216.398 148.182C216.398 147.36 216.275 146.667 216.028 146.102C215.786 145.538 215.443 145.11 215 144.818C214.557 144.527 214.038 144.381 213.443 144.381C212.848 144.381 212.33 144.527 211.886 144.818C211.443 145.11 211.098 145.538 210.852 146.102C210.61 146.667 210.489 147.36 210.489 148.182C210.489 149.004 210.61 149.697 210.852 150.261C211.098 150.826 211.443 151.254 211.886 151.545C212.33 151.837 212.848 151.983 213.443 151.983C214.038 151.983 214.557 151.837 215 151.545C215.443 151.254 215.786 150.826 216.028 150.261C216.275 149.697 216.398 149.004 216.398 148.182ZM220.714 154V142.364H228.419V144.392H223.175V147.165H227.908V149.193H223.175V154H220.714ZM230.074 154V142.364H237.778V144.392H232.534V147.165H237.267V149.193H232.534V154H230.074Z" fill="#377DFF"/>
<path d="M97.2 180.2V208H92.64V195.84H79.56V208H75V180.2H79.56V192.12H92.64V180.2H97.2ZM107.323 180.2V197.92C107.323 200.027 107.87 201.613 108.963 202.68C110.083 203.747 111.63 204.28 113.603 204.28C115.603 204.28 117.15 203.747 118.243 202.68C119.363 201.613 119.923 200.027 119.923 197.92V180.2H124.483V197.84C124.483 200.107 123.99 202.027 123.003 203.6C122.016 205.173 120.696 206.347 119.043 207.12C117.39 207.893 115.563 208.28 113.563 208.28C111.563 208.28 109.736 207.893 108.083 207.12C106.456 206.347 105.163 205.173 104.203 203.6C103.243 202.027 102.763 200.107 102.763 197.84V180.2H107.323ZM152.86 208H148.3L134.58 187.24V208H130.02V180.16H134.58L148.3 200.88V180.16H152.86V208ZM167.528 180.2C170.488 180.2 173.075 180.773 175.288 181.92C177.528 183.04 179.248 184.667 180.448 186.8C181.675 188.907 182.288 191.373 182.288 194.2C182.288 197.027 181.675 199.48 180.448 201.56C179.248 203.64 177.528 205.24 175.288 206.36C173.075 207.453 170.488 208 167.528 208H158.448V180.2H167.528ZM167.528 204.28C170.782 204.28 173.275 203.4 175.008 201.64C176.742 199.88 177.608 197.4 177.608 194.2C177.608 190.973 176.742 188.453 175.008 186.64C173.275 184.827 170.782 183.92 167.528 183.92H163.008V204.28H167.528ZM200.848 208L194.448 196.88H190.968V208H186.408V180.2H196.008C198.141 180.2 199.941 180.573 201.408 181.32C202.901 182.067 204.008 183.067 204.728 184.32C205.474 185.573 205.848 186.973 205.848 188.52C205.848 190.333 205.314 191.987 204.248 193.48C203.208 194.947 201.594 195.947 199.408 196.48L206.288 208H200.848ZM190.968 193.24H196.008C197.714 193.24 198.994 192.813 199.848 191.96C200.728 191.107 201.168 189.96 201.168 188.52C201.168 187.08 200.741 185.96 199.888 185.16C199.034 184.333 197.741 183.92 196.008 183.92H190.968V193.24ZM215.841 183.88V192.04H225.441V195.76H215.841V204.28H226.641V208H211.281V180.16H226.641V183.88H215.841ZM240.938 180.2C243.898 180.2 246.484 180.773 248.698 181.92C250.938 183.04 252.658 184.667 253.858 186.8C255.084 188.907 255.698 191.373 255.698 194.2C255.698 197.027 255.084 199.48 253.858 201.56C252.658 203.64 250.938 205.24 248.698 206.36C246.484 207.453 243.898 208 240.938 208H231.858V180.2H240.938ZM240.938 204.28C244.191 204.28 246.684 203.4 248.418 201.64C250.151 199.88 251.018 197.4 251.018 194.2C251.018 190.973 250.151 188.453 248.418 186.64C246.684 184.827 244.191 183.92 240.938 183.92H236.418V204.28H240.938ZM268.977 208.28C267.111 208.28 265.431 207.96 263.937 207.32C262.444 206.653 261.271 205.72 260.417 204.52C259.564 203.32 259.137 201.92 259.137 200.32H264.017C264.124 201.52 264.591 202.507 265.417 203.28C266.271 204.053 267.457 204.44 268.977 204.44C270.551 204.44 271.777 204.067 272.657 203.32C273.537 202.547 273.977 201.56 273.977 200.36C273.977 199.427 273.697 198.667 273.137 198.08C272.604 197.493 271.924 197.04 271.097 196.72C270.297 196.4 269.177 196.053 267.737 195.68C265.924 195.2 264.444 194.72 263.297 194.24C262.177 193.733 261.217 192.96 260.417 191.92C259.617 190.88 259.217 189.493 259.217 187.76C259.217 186.16 259.617 184.76 260.417 183.56C261.217 182.36 262.337 181.44 263.777 180.8C265.217 180.16 266.884 179.84 268.777 179.84C271.471 179.84 273.671 180.52 275.377 181.88C277.111 183.213 278.071 185.053 278.257 187.4H273.217C273.137 186.387 272.657 185.52 271.777 184.8C270.897 184.08 269.737 183.72 268.297 183.72C266.991 183.72 265.924 184.053 265.097 184.72C264.271 185.387 263.857 186.347 263.857 187.6C263.857 188.453 264.111 189.16 264.617 189.72C265.151 190.253 265.817 190.68 266.617 191C267.417 191.32 268.511 191.667 269.897 192.04C271.737 192.547 273.231 193.053 274.377 193.56C275.551 194.067 276.537 194.853 277.337 195.92C278.164 196.96 278.577 198.36 278.577 200.12C278.577 201.533 278.191 202.867 277.417 204.12C276.671 205.373 275.564 206.387 274.097 207.16C272.657 207.907 270.951 208.28 268.977 208.28ZM303.108 208.36C301.028 208.36 299.148 207.893 297.468 206.96C295.788 206 294.468 204.667 293.508 202.96C292.548 201.227 292.068 199.227 292.068 196.96C292.068 194.72 292.562 192.733 293.548 191C294.535 189.267 295.882 187.933 297.588 187C299.295 186.067 301.202 185.6 303.308 185.6C305.415 185.6 307.322 186.067 309.028 187C310.735 187.933 312.082 189.267 313.068 191C314.055 192.733 314.548 194.72 314.548 196.96C314.548 199.2 314.042 201.187 313.028 202.92C312.015 204.653 310.628 206 308.868 206.96C307.135 207.893 305.215 208.36 303.108 208.36ZM303.108 204.4C304.282 204.4 305.375 204.12 306.388 203.56C307.428 203 308.268 202.16 308.908 201.04C309.548 199.92 309.868 198.56 309.868 196.96C309.868 195.36 309.562 194.013 308.948 192.92C308.335 191.8 307.522 190.96 306.508 190.4C305.495 189.84 304.402 189.56 303.228 189.56C302.055 189.56 300.962 189.84 299.948 190.4C298.962 190.96 298.175 191.8 297.588 192.92C297.002 194.013 296.708 195.36 296.708 196.96C296.708 199.333 297.308 201.173 298.508 202.48C299.735 203.76 301.268 204.4 303.108 204.4ZM327.896 189.68H323.816V208H319.216V189.68H316.616V185.96H319.216V184.4C319.216 181.867 319.883 180.027 321.216 178.88C322.576 177.707 324.696 177.12 327.576 177.12V180.92C326.19 180.92 325.216 181.187 324.656 181.72C324.096 182.227 323.816 183.12 323.816 184.4V185.96H327.896V189.68ZM97.84 252H93.28L79.56 231.24V252H75V224.16H79.56L93.28 244.88V224.16H97.84V252ZM123.628 240.44C123.628 241.267 123.575 242.013 123.468 242.68H106.628C106.761 244.44 107.415 245.853 108.588 246.92C109.761 247.987 111.201 248.52 112.908 248.52C115.361 248.52 117.095 247.493 118.108 245.44H123.028C122.361 247.467 121.148 249.133 119.388 250.44C117.655 251.72 115.495 252.36 112.908 252.36C110.801 252.36 108.908 251.893 107.228 250.96C105.575 250 104.268 248.667 103.308 246.96C102.375 245.227 101.908 243.227 101.908 240.96C101.908 238.693 102.361 236.707 103.268 235C104.201 233.267 105.495 231.933 107.148 231C108.828 230.067 110.748 229.6 112.908 229.6C114.988 229.6 116.841 230.053 118.468 230.96C120.095 231.867 121.361 233.147 122.268 234.8C123.175 236.427 123.628 238.307 123.628 240.44ZM118.868 239C118.841 237.32 118.241 235.973 117.068 234.96C115.895 233.947 114.441 233.44 112.708 233.44C111.135 233.44 109.788 233.947 108.668 234.96C107.548 235.947 106.881 237.293 106.668 239H118.868ZM157.316 229.96L150.476 252H145.676L141.236 235.72L136.796 252H131.996L125.116 229.96H129.756L134.356 247.68L139.036 229.96H143.796L148.276 247.6L152.836 229.96H157.316ZM174.874 222.4V252H170.314V222.4H174.874ZM190.021 252.36C187.941 252.36 186.061 251.893 184.381 250.96C182.701 250 181.381 248.667 180.421 246.96C179.461 245.227 178.981 243.227 178.981 240.96C178.981 238.72 179.474 236.733 180.461 235C181.448 233.267 182.794 231.933 184.501 231C186.208 230.067 188.114 229.6 190.221 229.6C192.328 229.6 194.234 230.067 195.941 231C197.648 231.933 198.994 233.267 199.981 235C200.968 236.733 201.461 238.72 201.461 240.96C201.461 243.2 200.954 245.187 199.941 246.92C198.928 248.653 197.541 250 195.781 250.96C194.048 251.893 192.128 252.36 190.021 252.36ZM190.021 248.4C191.194 248.4 192.288 248.12 193.301 247.56C194.341 247 195.181 246.16 195.821 245.04C196.461 243.92 196.781 242.56 196.781 240.96C196.781 239.36 196.474 238.013 195.861 236.92C195.248 235.8 194.434 234.96 193.421 234.4C192.408 233.84 191.314 233.56 190.141 233.56C188.968 233.56 187.874 233.84 186.861 234.4C185.874 234.96 185.088 235.8 184.501 236.92C183.914 238.013 183.621 239.36 183.621 240.96C183.621 243.333 184.221 245.173 185.421 246.48C186.648 247.76 188.181 248.4 190.021 248.4ZM235.169 229.96L228.329 252H223.529L219.089 235.72L214.649 252H209.849L202.969 229.96H207.609L212.209 247.68L216.889 229.96H221.649L226.129 247.6L230.689 229.96H235.169ZM258.377 240.44C258.377 241.267 258.323 242.013 258.217 242.68H241.377C241.51 244.44 242.163 245.853 243.337 246.92C244.51 247.987 245.95 248.52 247.657 248.52C250.11 248.52 251.843 247.493 252.857 245.44H257.777C257.11 247.467 255.897 249.133 254.137 250.44C252.403 251.72 250.243 252.36 247.657 252.36C245.55 252.36 243.657 251.893 241.977 250.96C240.323 250 239.017 248.667 238.057 246.96C237.123 245.227 236.657 243.227 236.657 240.96C236.657 238.693 237.11 236.707 238.017 235C238.95 233.267 240.243 231.933 241.897 231C243.577 230.067 245.497 229.6 247.657 229.6C249.737 229.6 251.59 230.053 253.217 230.96C254.843 231.867 256.11 233.147 257.017 234.8C257.923 236.427 258.377 238.307 258.377 240.44ZM253.617 239C253.59 237.32 252.99 235.973 251.817 234.96C250.643 233.947 249.19 233.44 247.457 233.44C245.883 233.44 244.537 233.947 243.417 234.96C242.297 235.947 241.63 237.293 241.417 239H253.617ZM267.024 233.16C267.691 232.04 268.571 231.173 269.664 230.56C270.784 229.92 272.104 229.6 273.624 229.6V234.32H272.464C270.677 234.32 269.317 234.773 268.384 235.68C267.477 236.587 267.024 238.16 267.024 240.4V252H262.464V229.96H267.024V233.16ZM291.966 233.2C292.74 232.187 293.793 231.333 295.126 230.64C296.46 229.947 297.966 229.6 299.646 229.6C301.566 229.6 303.313 230.08 304.886 231.04C306.486 231.973 307.74 233.293 308.646 235C309.553 236.707 310.006 238.667 310.006 240.88C310.006 243.093 309.553 245.08 308.646 246.84C307.74 248.573 306.486 249.933 304.886 250.92C303.313 251.88 301.566 252.36 299.646 252.36C297.966 252.36 296.473 252.027 295.166 251.36C293.86 250.667 292.793 249.813 291.966 248.8V262.48H287.406V229.96H291.966V233.2ZM305.366 240.88C305.366 239.36 305.046 238.053 304.406 236.96C303.793 235.84 302.966 235 301.926 234.44C300.913 233.853 299.82 233.56 298.646 233.56C297.5 233.56 296.406 233.853 295.366 234.44C294.353 235.027 293.526 235.88 292.886 237C292.273 238.12 291.966 239.44 291.966 240.96C291.966 242.48 292.273 243.813 292.886 244.96C293.526 246.08 294.353 246.933 295.366 247.52C296.406 248.107 297.5 248.4 298.646 248.4C299.82 248.4 300.913 248.107 301.926 247.52C302.966 246.907 303.793 246.027 304.406 244.88C305.046 243.733 305.366 242.4 305.366 240.88ZM318.676 233.16C319.342 232.04 320.222 231.173 321.316 230.56C322.436 229.92 323.756 229.6 325.276 229.6V234.32H324.116C322.329 234.32 320.969 234.773 320.036 235.68C319.129 236.587 318.676 238.16 318.676 240.4V252H314.116V229.96H318.676V233.16ZM331.387 227.04C330.561 227.04 329.867 226.76 329.307 226.2C328.747 225.64 328.467 224.947 328.467 224.12C328.467 223.293 328.747 222.6 329.307 222.04C329.867 221.48 330.561 221.2 331.387 221.2C332.187 221.2 332.867 221.48 333.427 222.04C333.987 222.6 334.267 223.293 334.267 224.12C334.267 224.947 333.987 225.64 333.427 226.2C332.867 226.76 332.187 227.04 331.387 227.04ZM333.627 229.96V252H329.067V229.96H333.627ZM337.694 240.96C337.694 238.693 338.147 236.707 339.054 235C339.987 233.267 341.267 231.933 342.894 231C344.521 230.067 346.387 229.6 348.494 229.6C351.161 229.6 353.361 230.24 355.094 231.52C356.854 232.773 358.041 234.573 358.654 236.92H353.734C353.334 235.827 352.694 234.973 351.814 234.36C350.934 233.747 349.827 233.44 348.494 233.44C346.627 233.44 345.134 234.107 344.014 235.44C342.921 236.747 342.374 238.587 342.374 240.96C342.374 243.333 342.921 245.187 344.014 246.52C345.134 247.853 346.627 248.52 348.494 248.52C351.134 248.52 352.881 247.36 353.734 245.04H358.654C358.014 247.28 356.814 249.067 355.054 250.4C353.294 251.707 351.107 252.36 348.494 252.36C346.387 252.36 344.521 251.893 342.894 250.96C341.267 250 339.987 248.667 339.054 246.96C338.147 245.227 337.694 243.227 337.694 240.96ZM382.998 240.44C382.998 241.267 382.945 242.013 382.838 242.68H365.998C366.132 244.44 366.785 245.853 367.958 246.92C369.132 247.987 370.572 248.52 372.278 248.52C374.732 248.52 376.465 247.493 377.478 245.44H382.398C381.732 247.467 380.518 249.133 378.758 250.44C377.025 251.72 374.865 252.36 372.278 252.36C370.172 252.36 368.278 251.893 366.598 250.96C364.945 250 363.638 248.667 362.678 246.96C361.745 245.227 361.278 243.227 361.278 240.96C361.278 238.693 361.732 236.707 362.638 235C363.572 233.267 364.865 231.933 366.518 231C368.198 230.067 370.118 229.6 372.278 229.6C374.358 229.6 376.212 230.053 377.838 230.96C379.465 231.867 380.732 233.147 381.638 234.8C382.545 236.427 382.998 238.307 382.998 240.44ZM378.238 239C378.212 237.32 377.612 235.973 376.438 234.96C375.265 233.947 373.812 233.44 372.078 233.44C370.505 233.44 369.158 233.947 368.038 234.96C366.918 235.947 366.252 237.293 366.038 239H378.238ZM395.086 252.36C393.353 252.36 391.793 252.053 390.406 251.44C389.046 250.8 387.966 249.947 387.166 248.88C386.366 247.787 385.939 246.573 385.886 245.24H390.606C390.686 246.173 391.126 246.96 391.926 247.6C392.753 248.213 393.779 248.52 395.006 248.52C396.286 248.52 397.273 248.28 397.966 247.8C398.686 247.293 399.046 246.653 399.046 245.88C399.046 245.053 398.646 244.44 397.846 244.04C397.073 243.64 395.833 243.2 394.126 242.72C392.473 242.267 391.126 241.827 390.086 241.4C389.046 240.973 388.139 240.32 387.366 239.44C386.619 238.56 386.246 237.4 386.246 235.96C386.246 234.787 386.593 233.72 387.286 232.76C387.979 231.773 388.966 231 390.246 230.44C391.553 229.88 393.046 229.6 394.726 229.6C397.233 229.6 399.246 230.24 400.766 231.52C402.313 232.773 403.139 234.493 403.246 236.68H398.686C398.606 235.693 398.206 234.907 397.486 234.32C396.766 233.733 395.793 233.44 394.566 233.44C393.366 233.44 392.446 233.667 391.806 234.12C391.166 234.573 390.846 235.173 390.846 235.92C390.846 236.507 391.059 237 391.486 237.4C391.913 237.8 392.433 238.12 393.046 238.36C393.659 238.573 394.566 238.853 395.766 239.2C397.366 239.627 398.673 240.067 399.686 240.52C400.726 240.947 401.619 241.587 402.366 242.44C403.113 243.293 403.499 244.427 403.526 245.84C403.526 247.093 403.179 248.213 402.486 249.2C401.793 250.187 400.806 250.96 399.526 251.52C398.273 252.08 396.793 252.36 395.086 252.36ZM413.773 224.2L413.253 243.6H409.453L408.933 224.2H413.773ZM411.493 252.28C410.666 252.28 409.973 252 409.413 251.44C408.853 250.88 408.573 250.187 408.573 249.36C408.573 248.533 408.853 247.84 409.413 247.28C409.973 246.72 410.666 246.44 411.493 246.44C412.293 246.44 412.973 246.72 413.533 247.28C414.093 247.84 414.373 248.533 414.373 249.36C414.373 250.187 414.093 250.88 413.533 251.44C412.973 252 412.293 252.28 411.493 252.28Z" fill="#141718"/>
<path d="M75.5227 284.455V299H73.7614V284.455H75.5227ZM83.5714 288.091V289.511H77.918V288.091H83.5714ZM79.5657 285.477H81.2418V295.875C81.2418 296.348 81.3105 296.704 81.4478 296.94C81.5898 297.172 81.7698 297.329 81.9876 297.409C82.2101 297.485 82.4445 297.523 82.6907 297.523C82.8754 297.523 83.0269 297.513 83.1452 297.494C83.2636 297.471 83.3583 297.452 83.4293 297.438L83.7702 298.943C83.6566 298.986 83.498 299.028 83.2944 299.071C83.0908 299.118 82.8327 299.142 82.5202 299.142C82.0468 299.142 81.5827 299.04 81.1282 298.837C80.6784 298.633 80.3043 298.323 80.006 297.906C79.7125 297.49 79.5657 296.964 79.5657 296.33V285.477ZM88.1364 284.455V285.733C88.1364 286.121 88.0653 286.536 87.9233 286.976C87.786 287.411 87.5824 287.835 87.3125 288.247C87.0473 288.654 86.7254 289.009 86.3466 289.312L85.4375 288.574C85.7358 288.148 85.9938 287.705 86.2116 287.246C86.4342 286.782 86.5455 286.287 86.5455 285.761V284.455H88.1364ZM96.5348 290.534L95.0291 290.96C94.9344 290.709 94.7947 290.465 94.6101 290.229C94.4302 289.987 94.1839 289.788 93.8714 289.632C93.5589 289.476 93.1589 289.398 92.6712 289.398C92.0036 289.398 91.4472 289.552 91.0021 289.859C90.5618 290.162 90.3416 290.548 90.3416 291.017C90.3416 291.434 90.4931 291.763 90.7962 292.004C91.0992 292.246 91.5727 292.447 92.2166 292.608L93.8359 293.006C94.8113 293.242 95.5381 293.605 96.0163 294.092C96.4946 294.575 96.7337 295.198 96.7337 295.96C96.7337 296.585 96.5537 297.144 96.1939 297.636C95.8388 298.129 95.3416 298.517 94.7024 298.801C94.0632 299.085 93.3198 299.227 92.4723 299.227C91.3596 299.227 90.4387 298.986 89.7095 298.503C88.9804 298.02 88.5187 297.314 88.3246 296.386L89.9155 295.989C90.067 296.576 90.3535 297.016 90.7749 297.31C91.201 297.603 91.7573 297.75 92.4439 297.75C93.2251 297.75 93.8454 297.584 94.3047 297.253C94.7687 296.917 95.0007 296.514 95.0007 296.045C95.0007 295.667 94.8681 295.349 94.603 295.094C94.3378 294.833 93.9306 294.639 93.3814 294.511L91.5632 294.085C90.5642 293.848 89.8303 293.482 89.3615 292.984C88.8975 292.482 88.6655 291.855 88.6655 291.102C88.6655 290.487 88.8383 289.942 89.1839 289.469C89.5343 288.995 90.0102 288.624 90.6115 288.354C91.2176 288.084 91.9041 287.949 92.6712 287.949C93.7507 287.949 94.5982 288.186 95.2138 288.659C95.834 289.133 96.2744 289.758 96.5348 290.534ZM104.882 299V288.091H106.501V289.795H106.643C106.87 289.213 107.237 288.761 107.744 288.439C108.251 288.112 108.859 287.949 109.569 287.949C110.289 287.949 110.888 288.112 111.366 288.439C111.849 288.761 112.225 289.213 112.495 289.795H112.609C112.888 289.232 113.307 288.785 113.866 288.453C114.425 288.117 115.095 287.949 115.876 287.949C116.851 287.949 117.649 288.254 118.27 288.865C118.89 289.471 119.2 290.416 119.2 291.699V299H117.524V291.699C117.524 290.894 117.304 290.319 116.863 289.973C116.423 289.627 115.904 289.455 115.308 289.455C114.541 289.455 113.947 289.687 113.525 290.151C113.104 290.61 112.893 291.192 112.893 291.898V299H111.189V291.528C111.189 290.908 110.987 290.409 110.585 290.03C110.182 289.646 109.664 289.455 109.029 289.455C108.594 289.455 108.187 289.571 107.808 289.803C107.434 290.035 107.131 290.357 106.899 290.768C106.672 291.176 106.558 291.647 106.558 292.182V299H104.882ZM126.696 299.227C125.712 299.227 124.847 298.993 124.104 298.524C123.365 298.055 122.788 297.4 122.371 296.557C121.959 295.714 121.753 294.729 121.753 293.602C121.753 292.466 121.959 291.474 122.371 290.626C122.788 289.779 123.365 289.121 124.104 288.652C124.847 288.183 125.712 287.949 126.696 287.949C127.681 287.949 128.543 288.183 129.282 288.652C130.025 289.121 130.603 289.779 131.015 290.626C131.431 291.474 131.64 292.466 131.64 293.602C131.64 294.729 131.431 295.714 131.015 296.557C130.603 297.4 130.025 298.055 129.282 298.524C128.543 298.993 127.681 299.227 126.696 299.227ZM126.696 297.722C127.444 297.722 128.06 297.53 128.543 297.146C129.026 296.763 129.383 296.259 129.615 295.634C129.847 295.009 129.963 294.331 129.963 293.602C129.963 292.873 129.847 292.194 129.615 291.564C129.383 290.934 129.026 290.425 128.543 290.037C128.06 289.649 127.444 289.455 126.696 289.455C125.948 289.455 125.333 289.649 124.85 290.037C124.367 290.425 124.009 290.934 123.777 291.564C123.545 292.194 123.429 292.873 123.429 293.602C123.429 294.331 123.545 295.009 123.777 295.634C124.009 296.259 124.367 296.763 124.85 297.146C125.333 297.53 125.948 297.722 126.696 297.722ZM134.198 299V288.091H135.817V289.739H135.931C136.13 289.199 136.49 288.761 137.011 288.425C137.531 288.089 138.119 287.92 138.772 287.92C138.895 287.92 139.049 287.923 139.234 287.928C139.418 287.932 139.558 287.939 139.653 287.949V289.653C139.596 289.639 139.466 289.618 139.262 289.589C139.063 289.556 138.853 289.54 138.63 289.54C138.1 289.54 137.626 289.651 137.21 289.874C136.798 290.091 136.471 290.394 136.229 290.783C135.993 291.166 135.874 291.604 135.874 292.097V299H134.198ZM145.881 299.227C144.83 299.227 143.924 298.995 143.161 298.531C142.404 298.062 141.819 297.409 141.407 296.571C141 295.728 140.796 294.748 140.796 293.631C140.796 292.513 141 291.528 141.407 290.676C141.819 289.819 142.392 289.152 143.126 288.673C143.864 288.19 144.726 287.949 145.711 287.949C146.279 287.949 146.84 288.044 147.394 288.233C147.948 288.422 148.452 288.73 148.907 289.156C149.362 289.578 149.724 290.136 149.994 290.832C150.263 291.528 150.398 292.385 150.398 293.403V294.114H141.989V292.665H148.694C148.694 292.049 148.571 291.5 148.325 291.017C148.083 290.534 147.737 290.153 147.288 289.874C146.843 289.594 146.317 289.455 145.711 289.455C145.043 289.455 144.466 289.62 143.978 289.952C143.495 290.278 143.123 290.705 142.863 291.23C142.603 291.756 142.472 292.319 142.472 292.92V293.886C142.472 294.71 142.614 295.409 142.898 295.982C143.187 296.55 143.587 296.983 144.099 297.281C144.61 297.575 145.204 297.722 145.881 297.722C146.322 297.722 146.719 297.66 147.075 297.537C147.434 297.409 147.745 297.22 148.005 296.969C148.265 296.713 148.467 296.396 148.609 296.017L150.228 296.472C150.058 297.021 149.771 297.504 149.369 297.92C148.966 298.332 148.469 298.654 147.877 298.886C147.285 299.114 146.62 299.227 145.881 299.227ZM161.783 299.256C161.092 299.256 160.465 299.125 159.901 298.865C159.338 298.6 158.89 298.219 158.559 297.722C158.228 297.22 158.062 296.614 158.062 295.903C158.062 295.278 158.185 294.772 158.431 294.384C158.677 293.991 159.006 293.683 159.418 293.46C159.83 293.238 160.285 293.072 160.782 292.963C161.284 292.849 161.788 292.759 162.295 292.693C162.958 292.608 163.495 292.544 163.907 292.501C164.324 292.454 164.627 292.376 164.816 292.267C165.01 292.158 165.107 291.969 165.107 291.699V291.642C165.107 290.941 164.915 290.397 164.532 290.009C164.153 289.62 163.578 289.426 162.806 289.426C162.006 289.426 161.379 289.601 160.924 289.952C160.469 290.302 160.15 290.676 159.965 291.074L158.374 290.506C158.658 289.843 159.037 289.327 159.511 288.957C159.989 288.583 160.51 288.323 161.073 288.176C161.641 288.025 162.2 287.949 162.749 287.949C163.1 287.949 163.502 287.991 163.957 288.077C164.416 288.157 164.859 288.325 165.285 288.581C165.716 288.837 166.073 289.223 166.357 289.739C166.641 290.255 166.783 290.946 166.783 291.812V299H165.107V297.523H165.022C164.908 297.759 164.719 298.013 164.454 298.283C164.189 298.553 163.836 298.782 163.396 298.972C162.955 299.161 162.418 299.256 161.783 299.256ZM162.039 297.75C162.702 297.75 163.261 297.62 163.715 297.359C164.174 297.099 164.52 296.763 164.752 296.351C164.989 295.939 165.107 295.506 165.107 295.051V293.517C165.036 293.602 164.88 293.68 164.638 293.751C164.402 293.818 164.127 293.877 163.815 293.929C163.507 293.976 163.206 294.019 162.913 294.057C162.624 294.09 162.389 294.118 162.21 294.142C161.774 294.199 161.367 294.291 160.988 294.419C160.614 294.542 160.311 294.729 160.079 294.98C159.852 295.226 159.738 295.562 159.738 295.989C159.738 296.571 159.953 297.011 160.384 297.31C160.82 297.603 161.371 297.75 162.039 297.75ZM174.701 288.091V289.511H168.82V288.091H174.701ZM170.581 299V286.585C170.581 285.96 170.728 285.439 171.022 285.023C171.315 284.606 171.696 284.294 172.165 284.085C172.634 283.877 173.129 283.773 173.65 283.773C174.061 283.773 174.398 283.806 174.658 283.872C174.918 283.938 175.113 284 175.24 284.057L174.757 285.506C174.672 285.477 174.554 285.442 174.402 285.399C174.256 285.357 174.061 285.335 173.82 285.335C173.266 285.335 172.866 285.475 172.62 285.754C172.378 286.034 172.257 286.443 172.257 286.983V299H170.581ZM181.908 288.091V289.511H176.027V288.091H181.908ZM177.788 299V286.585C177.788 285.96 177.935 285.439 178.229 285.023C178.522 284.606 178.903 284.294 179.372 284.085C179.841 283.877 180.336 283.773 180.857 283.773C181.268 283.773 181.605 283.806 181.865 283.872C182.125 283.938 182.32 284 182.447 284.057L181.964 285.506C181.879 285.477 181.761 285.442 181.609 285.399C181.463 285.357 181.268 285.335 181.027 285.335C180.473 285.335 180.073 285.475 179.827 285.754C179.585 286.034 179.464 286.443 179.464 286.983V299H177.788ZM188.239 299.227C187.254 299.227 186.39 298.993 185.647 298.524C184.908 298.055 184.331 297.4 183.914 296.557C183.502 295.714 183.296 294.729 183.296 293.602C183.296 292.466 183.502 291.474 183.914 290.626C184.331 289.779 184.908 289.121 185.647 288.652C186.39 288.183 187.254 287.949 188.239 287.949C189.224 287.949 190.086 288.183 190.825 288.652C191.568 289.121 192.146 289.779 192.558 290.626C192.974 291.474 193.183 292.466 193.183 293.602C193.183 294.729 192.974 295.714 192.558 296.557C192.146 297.4 191.568 298.055 190.825 298.524C190.086 298.993 189.224 299.227 188.239 299.227ZM188.239 297.722C188.987 297.722 189.603 297.53 190.086 297.146C190.569 296.763 190.926 296.259 191.158 295.634C191.39 295.009 191.506 294.331 191.506 293.602C191.506 292.873 191.39 292.194 191.158 291.564C190.926 290.934 190.569 290.425 190.086 290.037C189.603 289.649 188.987 289.455 188.239 289.455C187.491 289.455 186.876 289.649 186.393 290.037C185.91 290.425 185.552 290.934 185.32 291.564C185.088 292.194 184.972 292.873 184.972 293.602C184.972 294.331 185.088 295.009 185.32 295.634C185.552 296.259 185.91 296.763 186.393 297.146C186.876 297.53 187.491 297.722 188.239 297.722ZM195.741 299V288.091H197.36V289.739H197.474C197.673 289.199 198.033 288.761 198.554 288.425C199.074 288.089 199.662 287.92 200.315 287.92C200.438 287.92 200.592 287.923 200.777 287.928C200.961 287.932 201.101 287.939 201.196 287.949V289.653C201.139 289.639 201.009 289.618 200.805 289.589C200.606 289.556 200.395 289.54 200.173 289.54C199.643 289.54 199.169 289.651 198.752 289.874C198.341 290.091 198.014 290.394 197.772 290.783C197.536 291.166 197.417 291.604 197.417 292.097V299H195.741ZM206.97 299.227C206.061 299.227 205.258 298.998 204.562 298.538C203.866 298.074 203.322 297.421 202.929 296.578C202.536 295.731 202.339 294.729 202.339 293.574C202.339 292.428 202.536 291.434 202.929 290.591C203.322 289.748 203.868 289.097 204.569 288.638C205.27 288.179 206.08 287.949 206.998 287.949C207.708 287.949 208.27 288.067 208.681 288.304C209.098 288.536 209.415 288.801 209.633 289.099C209.856 289.393 210.029 289.634 210.152 289.824H210.294V284.455H211.97V299H210.35V297.324H210.152C210.029 297.523 209.853 297.774 209.626 298.077C209.399 298.375 209.074 298.643 208.653 298.879C208.232 299.111 207.671 299.227 206.97 299.227ZM207.197 297.722C207.869 297.722 208.438 297.546 208.902 297.196C209.366 296.841 209.718 296.351 209.96 295.726C210.201 295.096 210.322 294.369 210.322 293.545C210.322 292.731 210.204 292.018 209.967 291.408C209.73 290.792 209.38 290.314 208.916 289.973C208.452 289.627 207.879 289.455 207.197 289.455C206.487 289.455 205.895 289.637 205.422 290.001C204.953 290.361 204.6 290.851 204.363 291.472C204.131 292.087 204.015 292.778 204.015 293.545C204.015 294.322 204.134 295.027 204.37 295.662C204.612 296.292 204.967 296.794 205.436 297.168C205.909 297.537 206.496 297.722 207.197 297.722ZM218.483 299.256C217.791 299.256 217.164 299.125 216.6 298.865C216.037 298.6 215.59 298.219 215.258 297.722C214.927 297.22 214.761 296.614 214.761 295.903C214.761 295.278 214.884 294.772 215.13 294.384C215.377 293.991 215.706 293.683 216.118 293.46C216.529 293.238 216.984 293.072 217.481 292.963C217.983 292.849 218.487 292.759 218.994 292.693C219.657 292.608 220.194 292.544 220.606 292.501C221.023 292.454 221.326 292.376 221.515 292.267C221.709 292.158 221.806 291.969 221.806 291.699V291.642C221.806 290.941 221.615 290.397 221.231 290.009C220.852 289.62 220.277 289.426 219.505 289.426C218.705 289.426 218.078 289.601 217.623 289.952C217.169 290.302 216.849 290.676 216.664 291.074L215.074 290.506C215.358 289.843 215.736 289.327 216.21 288.957C216.688 288.583 217.209 288.323 217.772 288.176C218.341 288.025 218.899 287.949 219.449 287.949C219.799 287.949 220.201 287.991 220.656 288.077C221.115 288.157 221.558 288.325 221.984 288.581C222.415 288.837 222.772 289.223 223.056 289.739C223.341 290.255 223.483 290.946 223.483 291.812V299H221.806V297.523H221.721C221.608 297.759 221.418 298.013 221.153 298.283C220.888 298.553 220.535 298.782 220.095 298.972C219.654 299.161 219.117 299.256 218.483 299.256ZM218.738 297.75C219.401 297.75 219.96 297.62 220.414 297.359C220.874 297.099 221.219 296.763 221.451 296.351C221.688 295.939 221.806 295.506 221.806 295.051V293.517C221.735 293.602 221.579 293.68 221.338 293.751C221.101 293.818 220.826 293.877 220.514 293.929C220.206 293.976 219.905 294.019 219.612 294.057C219.323 294.09 219.089 294.118 218.909 294.142C218.473 294.199 218.066 294.291 217.687 294.419C217.313 294.542 217.01 294.729 216.778 294.98C216.551 295.226 216.437 295.562 216.437 295.989C216.437 296.571 216.653 297.011 217.083 297.31C217.519 297.603 218.071 297.75 218.738 297.75ZM226.769 299V284.455H228.445V289.824H228.587C228.71 289.634 228.881 289.393 229.099 289.099C229.321 288.801 229.638 288.536 230.05 288.304C230.467 288.067 231.031 287.949 231.741 287.949C232.659 287.949 233.469 288.179 234.17 288.638C234.871 289.097 235.417 289.748 235.81 290.591C236.203 291.434 236.4 292.428 236.4 293.574C236.4 294.729 236.203 295.731 235.81 296.578C235.417 297.421 234.873 298.074 234.177 298.538C233.481 298.998 232.678 299.227 231.769 299.227C231.068 299.227 230.507 299.111 230.086 298.879C229.665 298.643 229.34 298.375 229.113 298.077C228.886 297.774 228.71 297.523 228.587 297.324H228.388V299H226.769ZM228.417 293.545C228.417 294.369 228.538 295.096 228.779 295.726C229.021 296.351 229.373 296.841 229.837 297.196C230.301 297.546 230.87 297.722 231.542 297.722C232.243 297.722 232.827 297.537 233.296 297.168C233.77 296.794 234.125 296.292 234.362 295.662C234.603 295.027 234.724 294.322 234.724 293.545C234.724 292.778 234.605 292.087 234.369 291.472C234.137 290.851 233.784 290.361 233.31 290.001C232.842 289.637 232.252 289.455 231.542 289.455C230.86 289.455 230.287 289.627 229.823 289.973C229.359 290.314 229.009 290.792 228.772 291.408C228.535 292.018 228.417 292.731 228.417 293.545ZM240.64 284.455V299H238.964V284.455H240.64ZM248.284 299.227C247.233 299.227 246.326 298.995 245.564 298.531C244.806 298.062 244.221 297.409 243.809 296.571C243.402 295.728 243.199 294.748 243.199 293.631C243.199 292.513 243.402 291.528 243.809 290.676C244.221 289.819 244.794 289.152 245.528 288.673C246.267 288.19 247.128 287.949 248.113 287.949C248.681 287.949 249.243 288.044 249.797 288.233C250.35 288.422 250.855 288.73 251.309 289.156C251.764 289.578 252.126 290.136 252.396 290.832C252.666 291.528 252.801 292.385 252.801 293.403V294.114H244.392V292.665H251.096C251.096 292.049 250.973 291.5 250.727 291.017C250.485 290.534 250.14 290.153 249.69 289.874C249.245 289.594 248.719 289.455 248.113 289.455C247.446 289.455 246.868 289.62 246.38 289.952C245.897 290.278 245.526 290.705 245.265 291.23C245.005 291.756 244.875 292.319 244.875 292.92V293.886C244.875 294.71 245.017 295.409 245.301 295.982C245.59 296.55 245.99 296.983 246.501 297.281C247.012 297.575 247.607 297.722 248.284 297.722C248.724 297.722 249.122 297.66 249.477 297.537C249.837 297.409 250.147 297.22 250.407 296.969C250.668 296.713 250.869 296.396 251.011 296.017L252.63 296.472C252.46 297.021 252.173 297.504 251.771 297.92C251.368 298.332 250.871 298.654 250.279 298.886C249.688 299.114 249.022 299.227 248.284 299.227ZM265.72 288.091V289.511H260.066V288.091H265.72ZM261.714 285.477H263.39V295.875C263.39 296.348 263.459 296.704 263.596 296.94C263.738 297.172 263.918 297.329 264.136 297.409C264.359 297.485 264.593 297.523 264.839 297.523C265.024 297.523 265.175 297.513 265.294 297.494C265.412 297.471 265.507 297.452 265.578 297.438L265.919 298.943C265.805 298.986 265.646 299.028 265.443 299.071C265.239 299.118 264.981 299.142 264.669 299.142C264.195 299.142 263.731 299.04 263.277 298.837C262.827 298.633 262.453 298.323 262.154 297.906C261.861 297.49 261.714 296.964 261.714 296.33V285.477ZM270.152 292.438V299H268.475V284.455H270.152V289.795H270.294C270.549 289.232 270.933 288.785 271.444 288.453C271.96 288.117 272.647 287.949 273.504 287.949C274.247 287.949 274.898 288.098 275.457 288.396C276.016 288.69 276.449 289.142 276.757 289.753C277.069 290.359 277.225 291.131 277.225 292.068V299H275.549V292.182C275.549 291.315 275.324 290.645 274.875 290.172C274.43 289.694 273.812 289.455 273.021 289.455C272.472 289.455 271.979 289.571 271.544 289.803C271.113 290.035 270.772 290.373 270.521 290.818C270.275 291.263 270.152 291.803 270.152 292.438ZM283.502 299.256C282.811 299.256 282.183 299.125 281.62 298.865C281.057 298.6 280.609 298.219 280.278 297.722C279.946 297.22 279.781 296.614 279.781 295.903C279.781 295.278 279.904 294.772 280.15 294.384C280.396 293.991 280.725 293.683 281.137 293.46C281.549 293.238 282.004 293.072 282.501 292.963C283.003 292.849 283.507 292.759 284.013 292.693C284.676 292.608 285.214 292.544 285.626 292.501C286.042 292.454 286.345 292.376 286.535 292.267C286.729 292.158 286.826 291.969 286.826 291.699V291.642C286.826 290.941 286.634 290.397 286.251 290.009C285.872 289.62 285.297 289.426 284.525 289.426C283.725 289.426 283.097 289.601 282.643 289.952C282.188 290.302 281.869 290.676 281.684 291.074L280.093 290.506C280.377 289.843 280.756 289.327 281.229 288.957C281.708 288.583 282.228 288.323 282.792 288.176C283.36 288.025 283.919 287.949 284.468 287.949C284.818 287.949 285.221 287.991 285.675 288.077C286.135 288.157 286.577 288.325 287.004 288.581C287.434 288.837 287.792 289.223 288.076 289.739C288.36 290.255 288.502 290.946 288.502 291.812V299H286.826V297.523H286.741C286.627 297.759 286.438 298.013 286.173 298.283C285.907 298.553 285.555 298.782 285.114 298.972C284.674 299.161 284.137 299.256 283.502 299.256ZM283.758 297.75C284.421 297.75 284.979 297.62 285.434 297.359C285.893 297.099 286.239 296.763 286.471 296.351C286.708 295.939 286.826 295.506 286.826 295.051V293.517C286.755 293.602 286.599 293.68 286.357 293.751C286.121 293.818 285.846 293.877 285.533 293.929C285.226 293.976 284.925 294.019 284.631 294.057C284.343 294.09 284.108 294.118 283.928 294.142C283.493 294.199 283.085 294.291 282.707 294.419C282.333 294.542 282.03 294.729 281.798 294.98C281.57 295.226 281.457 295.562 281.457 295.989C281.457 296.571 281.672 297.011 282.103 297.31C282.539 297.603 283.09 297.75 283.758 297.75ZM293.238 292.438V299H291.561V288.091H293.181V289.795H293.323C293.578 289.241 293.967 288.796 294.488 288.46C295.008 288.119 295.681 287.949 296.505 287.949C297.243 287.949 297.89 288.1 298.444 288.403C298.998 288.702 299.428 289.156 299.736 289.767C300.044 290.373 300.198 291.14 300.198 292.068V299H298.522V292.182C298.522 291.325 298.299 290.657 297.854 290.179C297.409 289.696 296.798 289.455 296.022 289.455C295.487 289.455 295.008 289.571 294.587 289.803C294.17 290.035 293.841 290.373 293.6 290.818C293.358 291.263 293.238 291.803 293.238 292.438ZM313.46 299.227C312.408 299.227 311.502 298.995 310.739 298.531C309.982 298.062 309.397 297.409 308.985 296.571C308.578 295.728 308.374 294.748 308.374 293.631C308.374 292.513 308.578 291.528 308.985 290.676C309.397 289.819 309.97 289.152 310.704 288.673C311.442 288.19 312.304 287.949 313.289 287.949C313.857 287.949 314.418 288.044 314.972 288.233C315.526 288.422 316.031 288.73 316.485 289.156C316.94 289.578 317.302 290.136 317.572 290.832C317.842 291.528 317.977 292.385 317.977 293.403V294.114H309.567V292.665H316.272C316.272 292.049 316.149 291.5 315.903 291.017C315.661 290.534 315.316 290.153 314.866 289.874C314.421 289.594 313.895 289.455 313.289 289.455C312.621 289.455 312.044 289.62 311.556 289.952C311.073 290.278 310.701 290.705 310.441 291.23C310.181 291.756 310.05 292.319 310.05 292.92V293.886C310.05 294.71 310.192 295.409 310.477 295.982C310.765 296.55 311.165 296.983 311.677 297.281C312.188 297.575 312.782 297.722 313.46 297.722C313.9 297.722 314.298 297.66 314.653 297.537C315.013 297.409 315.323 297.22 315.583 296.969C315.844 296.713 316.045 296.396 316.187 296.017L317.806 296.472C317.636 297.021 317.349 297.504 316.947 297.92C316.544 298.332 316.047 298.654 315.455 298.886C314.863 299.114 314.198 299.227 313.46 299.227ZM329.115 288.091L325.081 299H323.376L319.342 288.091H321.16L324.172 296.784H324.285L327.297 288.091H329.115ZM335.51 299.227C334.459 299.227 333.552 298.995 332.79 298.531C332.033 298.062 331.448 297.409 331.036 296.571C330.629 295.728 330.425 294.748 330.425 293.631C330.425 292.513 330.629 291.528 331.036 290.676C331.448 289.819 332.021 289.152 332.755 288.673C333.493 288.19 334.355 287.949 335.34 287.949C335.908 287.949 336.469 288.044 337.023 288.233C337.577 288.422 338.081 288.73 338.536 289.156C338.99 289.578 339.353 290.136 339.623 290.832C339.892 291.528 340.027 292.385 340.027 293.403V294.114H331.618V292.665H338.323C338.323 292.049 338.2 291.5 337.953 291.017C337.712 290.534 337.366 290.153 336.917 289.874C336.471 289.594 335.946 289.455 335.34 289.455C334.672 289.455 334.095 289.62 333.607 289.952C333.124 290.278 332.752 290.705 332.492 291.23C332.231 291.756 332.101 292.319 332.101 292.92V293.886C332.101 294.71 332.243 295.409 332.527 295.982C332.816 296.55 333.216 296.983 333.728 297.281C334.239 297.575 334.833 297.722 335.51 297.722C335.951 297.722 336.348 297.66 336.703 297.537C337.063 297.409 337.373 297.22 337.634 296.969C337.894 296.713 338.096 296.396 338.238 296.017L339.857 296.472C339.686 297.021 339.4 297.504 338.998 297.92C338.595 298.332 338.098 298.654 337.506 298.886C336.914 299.114 336.249 299.227 335.51 299.227ZM342.577 299V288.091H344.196V289.739H344.31C344.509 289.199 344.869 288.761 345.39 288.425C345.91 288.089 346.498 287.92 347.151 287.92C347.274 287.92 347.428 287.923 347.613 287.928C347.797 287.932 347.937 287.939 348.032 287.949V289.653C347.975 289.639 347.845 289.618 347.641 289.589C347.442 289.556 347.231 289.54 347.009 289.54C346.479 289.54 346.005 289.651 345.588 289.874C345.176 290.091 344.85 290.394 344.608 290.783C344.372 291.166 344.253 291.604 344.253 292.097V299H342.577ZM360.388 288.091V289.511H354.734V288.091H360.388ZM356.382 285.477H358.058V295.875C358.058 296.348 358.127 296.704 358.264 296.94C358.406 297.172 358.586 297.329 358.804 297.409C359.027 297.485 359.261 297.523 359.507 297.523C359.692 297.523 359.843 297.513 359.962 297.494C360.08 297.471 360.175 297.452 360.246 297.438L360.587 298.943C360.473 298.986 360.314 299.028 360.111 299.071C359.907 299.118 359.649 299.142 359.337 299.142C358.863 299.142 358.399 299.04 357.945 298.837C357.495 298.633 357.121 298.323 356.822 297.906C356.529 297.49 356.382 296.964 356.382 296.33V285.477ZM367.224 299.227C366.239 299.227 365.375 298.993 364.631 298.524C363.893 298.055 363.315 297.4 362.898 296.557C362.487 295.714 362.281 294.729 362.281 293.602C362.281 292.466 362.487 291.474 362.898 290.626C363.315 289.779 363.893 289.121 364.631 288.652C365.375 288.183 366.239 287.949 367.224 287.949C368.209 287.949 369.07 288.183 369.809 288.652C370.552 289.121 371.13 289.779 371.542 290.626C371.959 291.474 372.167 292.466 372.167 293.602C372.167 294.729 371.959 295.714 371.542 296.557C371.13 297.4 370.552 298.055 369.809 298.524C369.07 298.993 368.209 299.227 367.224 299.227ZM367.224 297.722C367.972 297.722 368.587 297.53 369.07 297.146C369.553 296.763 369.911 296.259 370.143 295.634C370.375 295.009 370.491 294.331 370.491 293.602C370.491 292.873 370.375 292.194 370.143 291.564C369.911 290.934 369.553 290.425 369.07 290.037C368.587 289.649 367.972 289.455 367.224 289.455C366.476 289.455 365.86 289.649 365.377 290.037C364.894 290.425 364.537 290.934 364.305 291.564C364.073 292.194 363.957 292.873 363.957 293.602C363.957 294.331 364.073 295.009 364.305 295.634C364.537 296.259 364.894 296.763 365.377 297.146C365.86 297.53 366.476 297.722 367.224 297.722ZM384.754 303.318C383.944 303.318 383.248 303.214 382.666 303.006C382.083 302.802 381.598 302.532 381.21 302.196C380.826 301.865 380.521 301.509 380.294 301.131L381.629 300.193C381.78 300.392 381.972 300.619 382.204 300.875C382.436 301.135 382.753 301.36 383.156 301.55C383.563 301.744 384.096 301.841 384.754 301.841C385.635 301.841 386.361 301.628 386.934 301.202C387.507 300.776 387.794 300.108 387.794 299.199V296.983H387.652C387.529 297.182 387.353 297.428 387.126 297.722C386.904 298.01 386.582 298.268 386.16 298.496C385.743 298.718 385.18 298.83 384.47 298.83C383.589 298.83 382.798 298.621 382.098 298.205C381.402 297.788 380.85 297.182 380.443 296.386C380.04 295.591 379.839 294.625 379.839 293.489C379.839 292.371 380.036 291.398 380.429 290.57C380.822 289.736 381.368 289.092 382.069 288.638C382.77 288.179 383.58 287.949 384.498 287.949C385.208 287.949 385.772 288.067 386.189 288.304C386.61 288.536 386.932 288.801 387.154 289.099C387.382 289.393 387.557 289.634 387.68 289.824H387.85V288.091H389.47V299.312C389.47 300.25 389.257 301.012 388.831 301.599C388.409 302.191 387.841 302.625 387.126 302.899C386.416 303.179 385.625 303.318 384.754 303.318ZM384.697 297.324C385.369 297.324 385.938 297.17 386.402 296.862C386.866 296.554 387.218 296.112 387.46 295.534C387.701 294.956 387.822 294.265 387.822 293.46C387.822 292.674 387.704 291.981 387.467 291.379C387.23 290.778 386.88 290.307 386.416 289.966C385.952 289.625 385.379 289.455 384.697 289.455C383.987 289.455 383.395 289.634 382.922 289.994C382.453 290.354 382.1 290.837 381.863 291.443C381.631 292.049 381.515 292.722 381.515 293.46C381.515 294.218 381.634 294.888 381.87 295.47C382.112 296.048 382.467 296.502 382.936 296.834C383.409 297.161 383.996 297.324 384.697 297.324ZM392.538 299V288.091H394.214V299H392.538ZM393.39 286.273C393.064 286.273 392.782 286.161 392.545 285.939C392.313 285.716 392.197 285.449 392.197 285.136C392.197 284.824 392.313 284.556 392.545 284.334C392.782 284.111 393.064 284 393.39 284C393.717 284 393.996 284.111 394.228 284.334C394.465 284.556 394.583 284.824 394.583 285.136C394.583 285.449 394.465 285.716 394.228 285.939C393.996 286.161 393.717 286.273 393.39 286.273ZM406.205 288.091L402.17 299H400.466L396.432 288.091H398.25L401.261 296.784H401.375L404.386 288.091H406.205ZM412.6 299.227C411.549 299.227 410.642 298.995 409.88 298.531C409.122 298.062 408.538 297.409 408.126 296.571C407.719 295.728 407.515 294.748 407.515 293.631C407.515 292.513 407.719 291.528 408.126 290.676C408.538 289.819 409.111 289.152 409.844 288.673C410.583 288.19 411.445 287.949 412.43 287.949C412.998 287.949 413.559 288.044 414.113 288.233C414.667 288.422 415.171 288.73 415.626 289.156C416.08 289.578 416.442 290.136 416.712 290.832C416.982 291.528 417.117 292.385 417.117 293.403V294.114H408.708V292.665H415.413C415.413 292.049 415.29 291.5 415.043 291.017C414.802 290.534 414.456 290.153 414.006 289.874C413.561 289.594 413.036 289.455 412.43 289.455C411.762 289.455 411.184 289.62 410.697 289.952C410.214 290.278 409.842 290.705 409.582 291.23C409.321 291.756 409.191 292.319 409.191 292.92V293.886C409.191 294.71 409.333 295.409 409.617 295.982C409.906 296.55 410.306 296.983 410.817 297.281C411.329 297.575 411.923 297.722 412.6 297.722C413.04 297.722 413.438 297.66 413.793 297.537C414.153 297.409 414.463 297.22 414.724 296.969C414.984 296.713 415.185 296.396 415.327 296.017L416.947 296.472C416.776 297.021 416.49 297.504 416.087 297.92C415.685 298.332 415.188 298.654 414.596 298.886C414.004 299.114 413.339 299.227 412.6 299.227ZM429.866 299.227C428.815 299.227 427.908 298.995 427.146 298.531C426.388 298.062 425.803 297.409 425.391 296.571C424.984 295.728 424.781 294.748 424.781 293.631C424.781 292.513 424.984 291.528 425.391 290.676C425.803 289.819 426.376 289.152 427.11 288.673C427.849 288.19 428.71 287.949 429.695 287.949C430.263 287.949 430.825 288.044 431.379 288.233C431.933 288.422 432.437 288.73 432.891 289.156C433.346 289.578 433.708 290.136 433.978 290.832C434.248 291.528 434.383 292.385 434.383 293.403V294.114H425.974V292.665H432.678C432.678 292.049 432.555 291.5 432.309 291.017C432.067 290.534 431.722 290.153 431.272 289.874C430.827 289.594 430.301 289.455 429.695 289.455C429.028 289.455 428.45 289.62 427.962 289.952C427.479 290.278 427.108 290.705 426.847 291.23C426.587 291.756 426.457 292.319 426.457 292.92V293.886C426.457 294.71 426.599 295.409 426.883 295.982C427.172 296.55 427.572 296.983 428.083 297.281C428.594 297.575 429.189 297.722 429.866 297.722C430.306 297.722 430.704 297.66 431.059 297.537C431.419 297.409 431.729 297.22 431.989 296.969C432.25 296.713 432.451 296.396 432.593 296.017L434.212 296.472C434.042 297.021 433.755 297.504 433.353 297.92C432.951 298.332 432.453 298.654 431.862 298.886C431.27 299.114 430.604 299.227 429.866 299.227ZM445.521 288.091L441.487 299H439.782L435.748 288.091H437.566L440.578 296.784H440.691L443.703 288.091H445.521ZM451.917 299.227C450.865 299.227 449.959 298.995 449.196 298.531C448.439 298.062 447.854 297.409 447.442 296.571C447.035 295.728 446.831 294.748 446.831 293.631C446.831 292.513 447.035 291.528 447.442 290.676C447.854 289.819 448.427 289.152 449.161 288.673C449.9 288.19 450.761 287.949 451.746 287.949C452.314 287.949 452.875 288.044 453.429 288.233C453.983 288.422 454.488 288.73 454.942 289.156C455.397 289.578 455.759 290.136 456.029 290.832C456.299 291.528 456.434 292.385 456.434 293.403V294.114H448.025V292.665H454.729C454.729 292.049 454.606 291.5 454.36 291.017C454.118 290.534 453.773 290.153 453.323 289.874C452.878 289.594 452.352 289.455 451.746 289.455C451.078 289.455 450.501 289.62 450.013 289.952C449.53 290.278 449.158 290.705 448.898 291.23C448.638 291.756 448.507 292.319 448.507 292.92V293.886C448.507 294.71 448.65 295.409 448.934 295.982C449.222 296.55 449.623 296.983 450.134 297.281C450.645 297.575 451.239 297.722 451.917 297.722C452.357 297.722 452.755 297.66 453.11 297.537C453.47 297.409 453.78 297.22 454.04 296.969C454.301 296.713 454.502 296.396 454.644 296.017L456.263 296.472C456.093 297.021 455.806 297.504 455.404 297.92C455.001 298.332 454.504 298.654 453.912 298.886C453.32 299.114 452.655 299.227 451.917 299.227ZM458.983 299V288.091H460.603V289.739H460.716C460.915 289.199 461.275 288.761 461.796 288.425C462.317 288.089 462.904 287.92 463.557 287.92C463.68 287.92 463.834 287.923 464.019 287.928C464.203 287.932 464.343 287.939 464.438 287.949V289.653C464.381 289.639 464.251 289.618 464.047 289.589C463.848 289.556 463.638 289.54 463.415 289.54C462.885 289.54 462.411 289.651 461.995 289.874C461.583 290.091 461.256 290.394 461.015 290.783C460.778 291.166 460.659 291.604 460.659 292.097V299H458.983ZM467.836 303.091C467.552 303.091 467.299 303.067 467.076 303.02C466.854 302.977 466.7 302.935 466.615 302.892L467.041 301.415C467.448 301.519 467.808 301.557 468.12 301.528C468.433 301.5 468.71 301.36 468.951 301.109C469.198 300.863 469.422 300.463 469.626 299.909L469.939 299.057L465.904 288.091H467.723L470.734 296.784H470.848L473.859 288.091H475.677L471.047 300.591C470.838 301.154 470.58 301.621 470.272 301.99C469.965 302.364 469.607 302.641 469.2 302.821C468.797 303.001 468.343 303.091 467.836 303.091ZM73.5341 331V320.091H75.1534V321.739H75.267C75.4659 321.199 75.8258 320.761 76.3466 320.425C76.8674 320.089 77.4545 319.92 78.108 319.92C78.2311 319.92 78.3849 319.923 78.5696 319.928C78.7543 319.932 78.8939 319.939 78.9886 319.949V321.653C78.9318 321.639 78.8016 321.618 78.598 321.589C78.3991 321.556 78.1884 321.54 77.9659 321.54C77.4356 321.54 76.9621 321.651 76.5455 321.874C76.1335 322.091 75.8068 322.394 75.5653 322.783C75.3286 323.166 75.2102 323.604 75.2102 324.097V331H73.5341ZM85.0753 331.227C84.0904 331.227 83.2263 330.993 82.483 330.524C81.7443 330.055 81.1667 329.4 80.75 328.557C80.3381 327.714 80.1321 326.729 80.1321 325.602C80.1321 324.466 80.3381 323.474 80.75 322.626C81.1667 321.779 81.7443 321.121 82.483 320.652C83.2263 320.183 84.0904 319.949 85.0753 319.949C86.0601 319.949 86.9219 320.183 87.6605 320.652C88.4039 321.121 88.9815 321.779 89.3935 322.626C89.8101 323.474 90.0185 324.466 90.0185 325.602C90.0185 326.729 89.8101 327.714 89.3935 328.557C88.9815 329.4 88.4039 330.055 87.6605 330.524C86.9219 330.993 86.0601 331.227 85.0753 331.227ZM85.0753 329.722C85.8234 329.722 86.4389 329.53 86.9219 329.146C87.4048 328.763 87.7623 328.259 87.9943 327.634C88.2263 327.009 88.3423 326.331 88.3423 325.602C88.3423 324.873 88.2263 324.194 87.9943 323.564C87.7623 322.934 87.4048 322.425 86.9219 322.037C86.4389 321.649 85.8234 321.455 85.0753 321.455C84.3272 321.455 83.7116 321.649 83.2287 322.037C82.7457 322.425 82.3883 322.934 82.1562 323.564C81.9242 324.194 81.8082 324.873 81.8082 325.602C81.8082 326.331 81.9242 327.009 82.1562 327.634C82.3883 328.259 82.7457 328.763 83.2287 329.146C83.7116 329.53 84.3272 329.722 85.0753 329.722ZM97.0089 331.227C96.024 331.227 95.1599 330.993 94.4165 330.524C93.6779 330.055 93.1003 329.4 92.6836 328.557C92.2717 327.714 92.0657 326.729 92.0657 325.602C92.0657 324.466 92.2717 323.474 92.6836 322.626C93.1003 321.779 93.6779 321.121 94.4165 320.652C95.1599 320.183 96.024 319.949 97.0089 319.949C97.9937 319.949 98.8555 320.183 99.5941 320.652C100.337 321.121 100.915 321.779 101.327 322.626C101.744 323.474 101.952 324.466 101.952 325.602C101.952 326.729 101.744 327.714 101.327 328.557C100.915 329.4 100.337 330.055 99.5941 330.524C98.8555 330.993 97.9937 331.227 97.0089 331.227ZM97.0089 329.722C97.757 329.722 98.3725 329.53 98.8555 329.146C99.3384 328.763 99.6959 328.259 99.9279 327.634C100.16 327.009 100.276 326.331 100.276 325.602C100.276 324.873 100.16 324.194 99.9279 323.564C99.6959 322.934 99.3384 322.425 98.8555 322.037C98.3725 321.649 97.757 321.455 97.0089 321.455C96.2608 321.455 95.6452 321.649 95.1623 322.037C94.6793 322.425 94.3219 322.934 94.0898 323.564C93.8578 324.194 93.7418 324.873 93.7418 325.602C93.7418 326.331 93.8578 327.009 94.0898 327.634C94.3219 328.259 94.6793 328.763 95.1623 329.146C95.6452 329.53 96.2608 329.722 97.0089 329.722ZM104.511 331V320.091H106.13V321.795H106.272C106.499 321.213 106.866 320.761 107.373 320.439C107.879 320.112 108.488 319.949 109.198 319.949C109.918 319.949 110.517 320.112 110.995 320.439C111.478 320.761 111.854 321.213 112.124 321.795H112.238C112.517 321.232 112.936 320.785 113.495 320.453C114.054 320.117 114.724 319.949 115.505 319.949C116.48 319.949 117.278 320.254 117.898 320.865C118.519 321.471 118.829 322.416 118.829 323.699V331H117.153V323.699C117.153 322.894 116.933 322.319 116.492 321.973C116.052 321.627 115.533 321.455 114.937 321.455C114.17 321.455 113.576 321.687 113.154 322.151C112.733 322.61 112.522 323.192 112.522 323.898V331H110.817V323.528C110.817 322.908 110.616 322.409 110.214 322.03C109.811 321.646 109.293 321.455 108.658 321.455C108.223 321.455 107.816 321.571 107.437 321.803C107.063 322.035 106.76 322.357 106.528 322.768C106.3 323.176 106.187 323.647 106.187 324.182V331H104.511ZM127.518 331V320.091H129.195V331H127.518ZM128.371 318.273C128.044 318.273 127.762 318.161 127.526 317.939C127.294 317.716 127.178 317.449 127.178 317.136C127.178 316.824 127.294 316.556 127.526 316.334C127.762 316.111 128.044 316 128.371 316C128.697 316 128.977 316.111 129.209 316.334C129.446 316.556 129.564 316.824 129.564 317.136C129.564 317.449 129.446 317.716 129.209 317.939C128.977 318.161 128.697 318.273 128.371 318.273ZM133.941 324.438V331H132.265V320.091H133.884V321.795H134.026C134.282 321.241 134.67 320.796 135.191 320.46C135.712 320.119 136.384 319.949 137.208 319.949C137.946 319.949 138.593 320.1 139.147 320.403C139.701 320.702 140.132 321.156 140.439 321.767C140.747 322.373 140.901 323.14 140.901 324.068V331H139.225V324.182C139.225 323.325 139.002 322.657 138.557 322.179C138.112 321.696 137.501 321.455 136.725 321.455C136.19 321.455 135.712 321.571 135.29 321.803C134.873 322.035 134.544 322.373 134.303 322.818C134.061 323.263 133.941 323.803 133.941 324.438ZM150.668 335.091C150.384 335.091 150.131 335.067 149.908 335.02C149.686 334.977 149.532 334.935 149.447 334.892L149.873 333.415C150.28 333.519 150.64 333.557 150.952 333.528C151.265 333.5 151.542 333.36 151.783 333.109C152.03 332.863 152.254 332.463 152.458 331.909L152.771 331.057L148.737 320.091H150.555L153.566 328.784H153.68L156.691 320.091H158.509L153.879 332.591C153.67 333.154 153.412 333.621 153.104 333.99C152.797 334.364 152.439 334.641 152.032 334.821C151.629 335.001 151.175 335.091 150.668 335.091ZM164.763 331.227C163.778 331.227 162.914 330.993 162.17 330.524C161.432 330.055 160.854 329.4 160.438 328.557C160.026 327.714 159.82 326.729 159.82 325.602C159.82 324.466 160.026 323.474 160.438 322.626C160.854 321.779 161.432 321.121 162.17 320.652C162.914 320.183 163.778 319.949 164.763 319.949C165.748 319.949 166.609 320.183 167.348 320.652C168.091 321.121 168.669 321.779 169.081 322.626C169.498 323.474 169.706 324.466 169.706 325.602C169.706 326.729 169.498 327.714 169.081 328.557C168.669 329.4 168.091 330.055 167.348 330.524C166.609 330.993 165.748 331.227 164.763 331.227ZM164.763 329.722C165.511 329.722 166.126 329.53 166.609 329.146C167.092 328.763 167.45 328.259 167.682 327.634C167.914 327.009 168.03 326.331 168.03 325.602C168.03 324.873 167.914 324.194 167.682 323.564C167.45 322.934 167.092 322.425 166.609 322.037C166.126 321.649 165.511 321.455 164.763 321.455C164.015 321.455 163.399 321.649 162.916 322.037C162.433 322.425 162.076 322.934 161.844 323.564C161.612 324.194 161.496 324.873 161.496 325.602C161.496 326.331 161.612 327.009 161.844 327.634C162.076 328.259 162.433 328.763 162.916 329.146C163.399 329.53 164.015 329.722 164.763 329.722ZM179.14 326.54V320.091H180.816V331H179.14V329.153H179.026C178.77 329.707 178.373 330.179 177.833 330.567C177.293 330.95 176.611 331.142 175.787 331.142C175.105 331.142 174.499 330.993 173.969 330.695C173.439 330.392 173.022 329.937 172.719 329.331C172.416 328.72 172.265 327.951 172.265 327.023V320.091H173.941V326.909C173.941 327.705 174.163 328.339 174.608 328.812C175.058 329.286 175.631 329.523 176.327 329.523C176.744 329.523 177.167 329.416 177.598 329.203C178.034 328.99 178.399 328.663 178.692 328.223C178.99 327.783 179.14 327.222 179.14 326.54ZM183.886 331V320.091H185.505V321.739H185.619C185.817 321.199 186.177 320.761 186.698 320.425C187.219 320.089 187.806 319.92 188.46 319.92C188.583 319.92 188.737 319.923 188.921 319.928C189.106 319.932 189.246 319.939 189.34 319.949V321.653C189.283 321.639 189.153 321.618 188.95 321.589C188.751 321.556 188.54 321.54 188.317 321.54C187.787 321.54 187.314 321.651 186.897 321.874C186.485 322.091 186.158 322.394 185.917 322.783C185.68 323.166 185.562 323.604 185.562 324.097V331H183.886ZM198.628 324.438V331H196.952V316.455H198.628V321.795H198.77C199.026 321.232 199.409 320.785 199.921 320.453C200.437 320.117 201.123 319.949 201.98 319.949C202.724 319.949 203.375 320.098 203.934 320.396C204.492 320.69 204.926 321.142 205.233 321.753C205.546 322.359 205.702 323.131 205.702 324.068V331H204.026V324.182C204.026 323.315 203.801 322.645 203.351 322.172C202.906 321.694 202.288 321.455 201.498 321.455C200.948 321.455 200.456 321.571 200.02 321.803C199.589 322.035 199.248 322.373 198.998 322.818C198.751 323.263 198.628 323.803 198.628 324.438ZM213.2 331.227C212.215 331.227 211.351 330.993 210.608 330.524C209.869 330.055 209.292 329.4 208.875 328.557C208.463 327.714 208.257 326.729 208.257 325.602C208.257 324.466 208.463 323.474 208.875 322.626C209.292 321.779 209.869 321.121 210.608 320.652C211.351 320.183 212.215 319.949 213.2 319.949C214.185 319.949 215.047 320.183 215.786 320.652C216.529 321.121 217.107 321.779 217.518 322.626C217.935 323.474 218.143 324.466 218.143 325.602C218.143 326.729 217.935 327.714 217.518 328.557C217.107 329.4 216.529 330.055 215.786 330.524C215.047 330.993 214.185 331.227 213.2 331.227ZM213.2 329.722C213.948 329.722 214.564 329.53 215.047 329.146C215.53 328.763 215.887 328.259 216.119 327.634C216.351 327.009 216.467 326.331 216.467 325.602C216.467 324.873 216.351 324.194 216.119 323.564C215.887 322.934 215.53 322.425 215.047 322.037C214.564 321.649 213.948 321.455 213.2 321.455C212.452 321.455 211.837 321.649 211.354 322.037C210.871 322.425 210.513 322.934 210.281 323.564C210.049 324.194 209.933 324.873 209.933 325.602C209.933 326.331 210.049 327.009 210.281 327.634C210.513 328.259 210.871 328.763 211.354 329.146C211.837 329.53 212.452 329.722 213.2 329.722ZM220.702 331V320.091H222.321V321.795H222.463C222.691 321.213 223.058 320.761 223.564 320.439C224.071 320.112 224.679 319.949 225.39 319.949C226.109 319.949 226.708 320.112 227.186 320.439C227.669 320.761 228.046 321.213 228.316 321.795H228.429C228.709 321.232 229.128 320.785 229.686 320.453C230.245 320.117 230.915 319.949 231.696 319.949C232.672 319.949 233.47 320.254 234.09 320.865C234.71 321.471 235.02 322.416 235.02 323.699V331H233.344V323.699C233.344 322.894 233.124 322.319 232.684 321.973C232.243 321.627 231.725 321.455 231.128 321.455C230.361 321.455 229.767 321.687 229.346 322.151C228.924 322.61 228.713 323.192 228.713 323.898V331H227.009V323.528C227.009 322.908 226.808 322.409 226.405 322.03C226.003 321.646 225.484 321.455 224.85 321.455C224.414 321.455 224.007 321.571 223.628 321.803C223.254 322.035 222.951 322.357 222.719 322.768C222.492 323.176 222.378 323.647 222.378 324.182V331H220.702ZM242.659 331.227C241.608 331.227 240.701 330.995 239.939 330.531C239.181 330.062 238.596 329.409 238.184 328.571C237.777 327.728 237.574 326.748 237.574 325.631C237.574 324.513 237.777 323.528 238.184 322.676C238.596 321.819 239.169 321.152 239.903 320.673C240.642 320.19 241.503 319.949 242.488 319.949C243.056 319.949 243.618 320.044 244.172 320.233C244.725 320.422 245.23 320.73 245.684 321.156C246.139 321.578 246.501 322.136 246.771 322.832C247.041 323.528 247.176 324.385 247.176 325.403V326.114H238.767V324.665H245.471C245.471 324.049 245.348 323.5 245.102 323.017C244.86 322.534 244.515 322.153 244.065 321.874C243.62 321.594 243.094 321.455 242.488 321.455C241.821 321.455 241.243 321.62 240.755 321.952C240.272 322.278 239.901 322.705 239.64 323.23C239.38 323.756 239.25 324.319 239.25 324.92V325.886C239.25 326.71 239.392 327.409 239.676 327.982C239.965 328.55 240.365 328.983 240.876 329.281C241.387 329.575 241.982 329.722 242.659 329.722C243.099 329.722 243.497 329.66 243.852 329.537C244.212 329.409 244.522 329.22 244.782 328.969C245.043 328.713 245.244 328.396 245.386 328.017L247.005 328.472C246.835 329.021 246.548 329.504 246.146 329.92C245.743 330.332 245.246 330.654 244.654 330.886C244.063 331.114 243.397 331.227 242.659 331.227ZM258.561 331.256C257.869 331.256 257.242 331.125 256.679 330.865C256.115 330.6 255.668 330.219 255.336 329.722C255.005 329.22 254.839 328.614 254.839 327.903C254.839 327.278 254.962 326.772 255.208 326.384C255.455 325.991 255.784 325.683 256.196 325.46C256.608 325.238 257.062 325.072 257.559 324.963C258.061 324.849 258.565 324.759 259.072 324.693C259.735 324.608 260.272 324.544 260.684 324.501C261.101 324.454 261.404 324.376 261.593 324.267C261.788 324.158 261.885 323.969 261.885 323.699V323.642C261.885 322.941 261.693 322.397 261.309 322.009C260.931 321.62 260.355 321.426 259.583 321.426C258.783 321.426 258.156 321.601 257.701 321.952C257.247 322.302 256.927 322.676 256.743 323.074L255.152 322.506C255.436 321.843 255.815 321.327 256.288 320.957C256.766 320.583 257.287 320.323 257.85 320.176C258.419 320.025 258.977 319.949 259.527 319.949C259.877 319.949 260.279 319.991 260.734 320.077C261.193 320.157 261.636 320.325 262.062 320.581C262.493 320.837 262.85 321.223 263.135 321.739C263.419 322.255 263.561 322.946 263.561 323.812V331H261.885V329.523H261.799C261.686 329.759 261.496 330.013 261.231 330.283C260.966 330.553 260.613 330.782 260.173 330.972C259.733 331.161 259.195 331.256 258.561 331.256ZM258.816 329.75C259.479 329.75 260.038 329.62 260.493 329.359C260.952 329.099 261.297 328.763 261.529 328.351C261.766 327.939 261.885 327.506 261.885 327.051V325.517C261.814 325.602 261.657 325.68 261.416 325.751C261.179 325.818 260.904 325.877 260.592 325.929C260.284 325.976 259.984 326.019 259.69 326.057C259.401 326.09 259.167 326.118 258.987 326.142C258.551 326.199 258.144 326.291 257.765 326.419C257.391 326.542 257.088 326.729 256.856 326.98C256.629 327.226 256.515 327.562 256.515 327.989C256.515 328.571 256.731 329.011 257.162 329.31C257.597 329.603 258.149 329.75 258.816 329.75ZM279.972 322.534L278.467 322.96C278.372 322.709 278.232 322.465 278.048 322.229C277.868 321.987 277.621 321.788 277.309 321.632C276.996 321.476 276.596 321.398 276.109 321.398C275.441 321.398 274.885 321.552 274.44 321.859C273.999 322.162 273.779 322.548 273.779 323.017C273.779 323.434 273.931 323.763 274.234 324.004C274.537 324.246 275.01 324.447 275.654 324.608L277.273 325.006C278.249 325.242 278.976 325.605 279.454 326.092C279.932 326.575 280.171 327.198 280.171 327.96C280.171 328.585 279.991 329.144 279.631 329.636C279.276 330.129 278.779 330.517 278.14 330.801C277.501 331.085 276.757 331.227 275.91 331.227C274.797 331.227 273.876 330.986 273.147 330.503C272.418 330.02 271.956 329.314 271.762 328.386L273.353 327.989C273.504 328.576 273.791 329.016 274.212 329.31C274.638 329.603 275.195 329.75 275.881 329.75C276.663 329.75 277.283 329.584 277.742 329.253C278.206 328.917 278.438 328.514 278.438 328.045C278.438 327.667 278.306 327.349 278.04 327.094C277.775 326.833 277.368 326.639 276.819 326.511L275.001 326.085C274.002 325.848 273.268 325.482 272.799 324.984C272.335 324.482 272.103 323.855 272.103 323.102C272.103 322.487 272.276 321.942 272.621 321.469C272.972 320.995 273.448 320.624 274.049 320.354C274.655 320.084 275.342 319.949 276.109 319.949C277.188 319.949 278.036 320.186 278.651 320.659C279.272 321.133 279.712 321.758 279.972 322.534ZM287.439 320.091V321.511H281.785V320.091H287.439ZM283.433 317.477H285.109V327.875C285.109 328.348 285.178 328.704 285.315 328.94C285.457 329.172 285.637 329.329 285.855 329.409C286.077 329.485 286.312 329.523 286.558 329.523C286.743 329.523 286.894 329.513 287.012 329.494C287.131 329.471 287.225 329.452 287.297 329.438L287.637 330.943C287.524 330.986 287.365 331.028 287.162 331.071C286.958 331.118 286.7 331.142 286.387 331.142C285.914 331.142 285.45 331.04 284.995 330.837C284.546 330.633 284.172 330.323 283.873 329.906C283.58 329.49 283.433 328.964 283.433 328.33V317.477ZM291.039 335.091C290.755 335.091 290.502 335.067 290.279 335.02C290.057 334.977 289.903 334.935 289.818 334.892L290.244 333.415C290.651 333.519 291.011 333.557 291.324 333.528C291.636 333.5 291.913 333.36 292.154 333.109C292.401 332.863 292.626 332.463 292.829 331.909L293.142 331.057L289.108 320.091H290.926L293.937 328.784H294.051L297.062 320.091H298.88L294.25 332.591C294.041 333.154 293.783 333.621 293.475 333.99C293.168 334.364 292.81 334.641 292.403 334.821C292.001 335.001 291.546 335.091 291.039 335.091ZM302.769 316.455V331H301.093V316.455H302.769ZM305.839 331V320.091H307.515V331H305.839ZM306.691 318.273C306.364 318.273 306.083 318.161 305.846 317.939C305.614 317.716 305.498 317.449 305.498 317.136C305.498 316.824 305.614 316.556 305.846 316.334C306.083 316.111 306.364 316 306.691 316C307.018 316 307.297 316.111 307.529 316.334C307.766 316.556 307.884 316.824 307.884 317.136C307.884 317.449 307.766 317.716 307.529 317.939C307.297 318.161 307.018 318.273 306.691 318.273ZM318.312 322.534L316.806 322.96C316.712 322.709 316.572 322.465 316.387 322.229C316.208 321.987 315.961 321.788 315.649 321.632C315.336 321.476 314.936 321.398 314.449 321.398C313.781 321.398 313.225 321.552 312.779 321.859C312.339 322.162 312.119 322.548 312.119 323.017C312.119 323.434 312.27 323.763 312.574 324.004C312.877 324.246 313.35 324.447 313.994 324.608L315.613 325.006C316.589 325.242 317.315 325.605 317.794 326.092C318.272 326.575 318.511 327.198 318.511 327.96C318.511 328.585 318.331 329.144 317.971 329.636C317.616 330.129 317.119 330.517 316.48 330.801C315.841 331.085 315.097 331.227 314.25 331.227C313.137 331.227 312.216 330.986 311.487 330.503C310.758 330.02 310.296 329.314 310.102 328.386L311.693 327.989C311.844 328.576 312.131 329.016 312.552 329.31C312.978 329.603 313.535 329.75 314.221 329.75C315.002 329.75 315.623 329.584 316.082 329.253C316.546 328.917 316.778 328.514 316.778 328.045C316.778 327.667 316.645 327.349 316.38 327.094C316.115 326.833 315.708 326.639 315.159 326.511L313.341 326.085C312.342 325.848 311.608 325.482 311.139 324.984C310.675 324.482 310.443 323.855 310.443 323.102C310.443 322.487 310.616 321.942 310.961 321.469C311.312 320.995 311.788 320.624 312.389 320.354C312.995 320.084 313.681 319.949 314.449 319.949C315.528 319.949 316.376 320.186 316.991 320.659C317.611 321.133 318.052 321.758 318.312 322.534ZM322.71 324.438V331H321.034V316.455H322.71V321.795H322.852C323.108 321.232 323.491 320.785 324.003 320.453C324.519 320.117 325.205 319.949 326.062 319.949C326.806 319.949 327.457 320.098 328.016 320.396C328.574 320.69 329.008 321.142 329.315 321.753C329.628 322.359 329.784 323.131 329.784 324.068V331H328.108V324.182C328.108 323.315 327.883 322.645 327.433 322.172C326.988 321.694 326.37 321.455 325.58 321.455C325.03 321.455 324.538 321.571 324.102 321.803C323.671 322.035 323.33 322.373 323.08 322.818C322.833 323.263 322.71 323.803 322.71 324.438ZM338.475 331V320.091H340.095V321.795H340.237C340.464 321.213 340.831 320.761 341.338 320.439C341.844 320.112 342.453 319.949 343.163 319.949C343.883 319.949 344.482 320.112 344.96 320.439C345.443 320.761 345.819 321.213 346.089 321.795H346.203C346.482 321.232 346.901 320.785 347.46 320.453C348.019 320.117 348.689 319.949 349.47 319.949C350.445 319.949 351.243 320.254 351.863 320.865C352.484 321.471 352.794 322.416 352.794 323.699V331H351.118V323.699C351.118 322.894 350.897 322.319 350.457 321.973C350.017 321.627 349.498 321.455 348.902 321.455C348.135 321.455 347.54 321.687 347.119 322.151C346.698 322.61 346.487 323.192 346.487 323.898V331H344.782V323.528C344.782 322.908 344.581 322.409 344.179 322.03C343.776 321.646 343.258 321.455 342.623 321.455C342.188 321.455 341.78 321.571 341.402 321.803C341.028 322.035 340.725 322.357 340.493 322.768C340.265 323.176 340.152 323.647 340.152 324.182V331H338.475ZM359.069 331.256C358.377 331.256 357.75 331.125 357.186 330.865C356.623 330.6 356.176 330.219 355.844 329.722C355.513 329.22 355.347 328.614 355.347 327.903C355.347 327.278 355.47 326.772 355.716 326.384C355.962 325.991 356.292 325.683 356.703 325.46C357.115 325.238 357.57 325.072 358.067 324.963C358.569 324.849 359.073 324.759 359.58 324.693C360.243 324.608 360.78 324.544 361.192 324.501C361.609 324.454 361.912 324.376 362.101 324.267C362.295 324.158 362.392 323.969 362.392 323.699V323.642C362.392 322.941 362.201 322.397 361.817 322.009C361.438 321.62 360.863 321.426 360.091 321.426C359.291 321.426 358.664 321.601 358.209 321.952C357.755 322.302 357.435 322.676 357.25 323.074L355.659 322.506C355.944 321.843 356.322 321.327 356.796 320.957C357.274 320.583 357.795 320.323 358.358 320.176C358.926 320.025 359.485 319.949 360.034 319.949C360.385 319.949 360.787 319.991 361.242 320.077C361.701 320.157 362.144 320.325 362.57 320.581C363.001 320.837 363.358 321.223 363.642 321.739C363.926 322.255 364.069 322.946 364.069 323.812V331H362.392V329.523H362.307C362.194 329.759 362.004 330.013 361.739 330.283C361.474 330.553 361.121 330.782 360.681 330.972C360.24 331.161 359.703 331.256 359.069 331.256ZM359.324 329.75C359.987 329.75 360.546 329.62 361 329.359C361.46 329.099 361.805 328.763 362.037 328.351C362.274 327.939 362.392 327.506 362.392 327.051V325.517C362.321 325.602 362.165 325.68 361.924 325.751C361.687 325.818 361.412 325.877 361.1 325.929C360.792 325.976 360.491 326.019 360.198 326.057C359.909 326.09 359.675 326.118 359.495 326.142C359.059 326.199 358.652 326.291 358.273 326.419C357.899 326.542 357.596 326.729 357.364 326.98C357.137 327.226 357.023 327.562 357.023 327.989C357.023 328.571 357.239 329.011 357.669 329.31C358.105 329.603 358.657 329.75 359.324 329.75ZM368.69 327.023L368.662 324.949H369.003L373.776 320.091H375.849L370.764 325.233H370.622L368.69 327.023ZM367.128 331V316.455H368.804V331H367.128ZM374.06 331L369.798 325.602L370.991 324.438L376.19 331H374.06ZM382.131 331.227C381.08 331.227 380.174 330.995 379.411 330.531C378.654 330.062 378.069 329.409 377.657 328.571C377.25 327.728 377.046 326.748 377.046 325.631C377.046 324.513 377.25 323.528 377.657 322.676C378.069 321.819 378.642 321.152 379.376 320.673C380.114 320.19 380.976 319.949 381.961 319.949C382.529 319.949 383.09 320.044 383.644 320.233C384.198 320.422 384.702 320.73 385.157 321.156C385.612 321.578 385.974 322.136 386.244 322.832C386.513 323.528 386.648 324.385 386.648 325.403V326.114H378.239V324.665H384.944C384.944 324.049 384.821 323.5 384.575 323.017C384.333 322.534 383.987 322.153 383.538 321.874C383.093 321.594 382.567 321.455 381.961 321.455C381.293 321.455 380.716 321.62 380.228 321.952C379.745 322.278 379.373 322.705 379.113 323.23C378.853 323.756 378.722 324.319 378.722 324.92V325.886C378.722 326.71 378.864 327.409 379.148 327.982C379.437 328.55 379.837 328.983 380.349 329.281C380.86 329.575 381.454 329.722 382.131 329.722C382.572 329.722 382.969 329.66 383.325 329.537C383.684 329.409 383.995 329.22 384.255 328.969C384.515 328.713 384.717 328.396 384.859 328.017L386.478 328.472C386.308 329.021 386.021 329.504 385.619 329.92C385.216 330.332 384.719 330.654 384.127 330.886C383.535 331.114 382.87 331.227 382.131 331.227ZM393.63 331.227C392.645 331.227 391.781 330.993 391.038 330.524C390.299 330.055 389.721 329.4 389.305 328.557C388.893 327.714 388.687 326.729 388.687 325.602C388.687 324.466 388.893 323.474 389.305 322.626C389.721 321.779 390.299 321.121 391.038 320.652C391.781 320.183 392.645 319.949 393.63 319.949C394.615 319.949 395.477 320.183 396.215 320.652C396.959 321.121 397.536 321.779 397.948 322.626C398.365 323.474 398.573 324.466 398.573 325.602C398.573 326.729 398.365 327.714 397.948 328.557C397.536 329.4 396.959 330.055 396.215 330.524C395.477 330.993 394.615 331.227 393.63 331.227ZM393.63 329.722C394.378 329.722 394.994 329.53 395.477 329.146C395.96 328.763 396.317 328.259 396.549 327.634C396.781 327.009 396.897 326.331 396.897 325.602C396.897 324.873 396.781 324.194 396.549 323.564C396.317 322.934 395.96 322.425 395.477 322.037C394.994 321.649 394.378 321.455 393.63 321.455C392.882 321.455 392.266 321.649 391.783 322.037C391.3 322.425 390.943 322.934 390.711 323.564C390.479 324.194 390.363 324.873 390.363 325.602C390.363 326.331 390.479 327.009 390.711 327.634C390.943 328.259 391.3 328.763 391.783 329.146C392.266 329.53 392.882 329.722 393.63 329.722ZM409.662 320.091L405.627 331H403.923L399.889 320.091H401.707L404.718 328.784H404.832L407.843 320.091H409.662ZM416.057 331.227C415.006 331.227 414.099 330.995 413.337 330.531C412.579 330.062 411.995 329.409 411.583 328.571C411.176 327.728 410.972 326.748 410.972 325.631C410.972 324.513 411.176 323.528 411.583 322.676C411.995 321.819 412.568 321.152 413.301 320.673C414.04 320.19 414.902 319.949 415.887 319.949C416.455 319.949 417.016 320.044 417.57 320.233C418.124 320.422 418.628 320.73 419.083 321.156C419.537 321.578 419.9 322.136 420.169 322.832C420.439 323.528 420.574 324.385 420.574 325.403V326.114H412.165V324.665H418.87C418.87 324.049 418.747 323.5 418.5 323.017C418.259 322.534 417.913 322.153 417.463 321.874C417.018 321.594 416.493 321.455 415.887 321.455C415.219 321.455 414.641 321.62 414.154 321.952C413.671 322.278 413.299 322.705 413.039 323.23C412.778 323.756 412.648 324.319 412.648 324.92V325.886C412.648 326.71 412.79 327.409 413.074 327.982C413.363 328.55 413.763 328.983 414.275 329.281C414.786 329.575 415.38 329.722 416.057 329.722C416.498 329.722 416.895 329.66 417.25 329.537C417.61 329.409 417.92 329.22 418.181 328.969C418.441 328.713 418.642 328.396 418.784 328.017L420.404 328.472C420.233 329.021 419.947 329.504 419.544 329.92C419.142 330.332 418.645 330.654 418.053 330.886C417.461 331.114 416.796 331.227 416.057 331.227ZM423.124 331V320.091H424.743V321.739H424.857C425.056 321.199 425.416 320.761 425.936 320.425C426.457 320.089 427.044 319.92 427.698 319.92C427.821 319.92 427.975 319.923 428.159 319.928C428.344 319.932 428.484 319.939 428.578 319.949V321.653C428.522 321.639 428.391 321.618 428.188 321.589C427.989 321.556 427.778 321.54 427.556 321.54C427.025 321.54 426.552 321.651 426.135 321.874C425.723 322.091 425.397 322.394 425.155 322.783C424.918 323.166 424.8 323.604 424.8 324.097V331H423.124Z" fill="#141718"/>
<mask id="path-4-inside-1_1_2088" fill="white">
<path d="M72 364H172V392H72V364Z"/>
</mask>
<path d="M172 391H72V393H172V391Z" fill="#141718" mask="url(#path-4-inside-1_1_2088)"/>
<path d="M79.625 375.42C79.5644 374.883 79.3144 374.466 78.875 374.17C78.4356 373.871 77.8826 373.722 77.2159 373.722C76.7386 373.722 76.3258 373.797 75.9773 373.949C75.6288 374.097 75.358 374.301 75.1648 374.562C74.9754 374.82 74.8807 375.114 74.8807 375.443C74.8807 375.72 74.9451 375.958 75.0739 376.159C75.2064 376.36 75.3788 376.528 75.5909 376.665C75.8068 376.797 76.0379 376.909 76.2841 377C76.5303 377.087 76.767 377.159 76.9943 377.216L78.1307 377.511C78.5019 377.602 78.8826 377.725 79.2727 377.881C79.6629 378.036 80.0246 378.241 80.358 378.494C80.6913 378.748 80.9602 379.062 81.1648 379.438C81.3731 379.812 81.4773 380.261 81.4773 380.784C81.4773 381.443 81.3068 382.028 80.9659 382.54C80.6288 383.051 80.1383 383.455 79.4943 383.75C78.8542 384.045 78.0795 384.193 77.1705 384.193C76.2992 384.193 75.5455 384.055 74.9091 383.778C74.2727 383.502 73.7746 383.11 73.4148 382.602C73.0549 382.091 72.8561 381.485 72.8182 380.784H74.5795C74.6136 381.205 74.75 381.555 74.9886 381.835C75.2311 382.112 75.5398 382.318 75.9148 382.455C76.2936 382.587 76.7083 382.653 77.1591 382.653C77.6553 382.653 78.0966 382.576 78.483 382.42C78.8731 382.261 79.1799 382.042 79.4034 381.761C79.6269 381.477 79.7386 381.146 79.7386 380.767C79.7386 380.422 79.6402 380.14 79.4432 379.92C79.25 379.701 78.9867 379.519 78.6534 379.375C78.3239 379.231 77.9508 379.104 77.5341 378.994L76.1591 378.619C75.2273 378.366 74.4886 377.992 73.9432 377.5C73.4015 377.008 73.1307 376.356 73.1307 375.545C73.1307 374.875 73.3125 374.29 73.6761 373.79C74.0398 373.29 74.5322 372.902 75.1534 372.625C75.7746 372.345 76.4754 372.205 77.2557 372.205C78.0436 372.205 78.7386 372.343 79.3409 372.619C79.947 372.896 80.4242 373.277 80.7727 373.761C81.1212 374.242 81.303 374.795 81.3182 375.42H79.625ZM84.7378 378.818V384H83.0389V372.364H84.7151V376.693H84.823C85.0276 376.223 85.3401 375.85 85.7605 375.574C86.181 375.297 86.7302 375.159 87.4082 375.159C88.0067 375.159 88.5295 375.282 88.9764 375.528C89.4272 375.775 89.7757 376.142 90.0219 376.631C90.2719 377.116 90.3969 377.722 90.3969 378.449V384H88.698V378.653C88.698 378.013 88.5332 377.517 88.2037 377.165C87.8741 376.809 87.4158 376.631 86.8287 376.631C86.4272 376.631 86.0673 376.716 85.7491 376.886C85.4348 377.057 85.1866 377.307 85.0048 377.636C84.8268 377.962 84.7378 378.356 84.7378 378.818ZM95.9401 384.176C95.1219 384.176 94.4079 383.989 93.798 383.614C93.1882 383.239 92.7147 382.714 92.3776 382.04C92.0404 381.366 91.8719 380.578 91.8719 379.676C91.8719 378.771 92.0404 377.979 92.3776 377.301C92.7147 376.623 93.1882 376.097 93.798 375.722C94.4079 375.347 95.1219 375.159 95.9401 375.159C96.7582 375.159 97.4723 375.347 98.0821 375.722C98.692 376.097 99.1654 376.623 99.5026 377.301C99.8397 377.979 100.008 378.771 100.008 379.676C100.008 380.578 99.8397 381.366 99.5026 382.04C99.1654 382.714 98.692 383.239 98.0821 383.614C97.4723 383.989 96.7582 384.176 95.9401 384.176ZM95.9457 382.75C96.476 382.75 96.9154 382.61 97.2639 382.33C97.6124 382.049 97.87 381.676 98.0366 381.21C98.2071 380.744 98.2923 380.231 98.2923 379.67C98.2923 379.114 98.2071 378.602 98.0366 378.136C97.87 377.667 97.6124 377.29 97.2639 377.006C96.9154 376.722 96.476 376.58 95.9457 376.58C95.4116 376.58 94.9685 376.722 94.6162 377.006C94.2677 377.29 94.0082 377.667 93.8378 378.136C93.6711 378.602 93.5878 379.114 93.5878 379.67C93.5878 380.231 93.6711 380.744 93.8378 381.21C94.0082 381.676 94.2677 382.049 94.6162 382.33C94.9685 382.61 95.4116 382.75 95.9457 382.75ZM101.505 387.273V375.273H103.164V376.688H103.306C103.404 376.506 103.546 376.295 103.732 376.057C103.917 375.818 104.175 375.61 104.505 375.432C104.834 375.25 105.27 375.159 105.811 375.159C106.516 375.159 107.145 375.337 107.698 375.693C108.251 376.049 108.684 376.562 108.999 377.233C109.317 377.903 109.476 378.71 109.476 379.653C109.476 380.597 109.319 381.405 109.005 382.08C108.69 382.75 108.258 383.267 107.709 383.631C107.16 383.991 106.533 384.17 105.828 384.17C105.298 384.17 104.864 384.081 104.527 383.903C104.194 383.725 103.933 383.517 103.743 383.278C103.554 383.04 103.408 382.828 103.306 382.642H103.203V387.273H101.505ZM103.169 379.636C103.169 380.25 103.258 380.788 103.436 381.25C103.614 381.712 103.872 382.074 104.209 382.335C104.546 382.593 104.959 382.722 105.448 382.722C105.955 382.722 106.38 382.587 106.72 382.318C107.061 382.045 107.319 381.676 107.493 381.21C107.671 380.744 107.76 380.22 107.76 379.636C107.76 379.061 107.673 378.544 107.499 378.085C107.328 377.627 107.071 377.265 106.726 377C106.385 376.735 105.959 376.602 105.448 376.602C104.955 376.602 104.539 376.729 104.198 376.983C103.861 377.237 103.605 377.591 103.431 378.045C103.256 378.5 103.169 379.03 103.169 379.636ZM124.342 372.364V384H122.729L116.814 375.466H116.706V384H114.95V372.364H116.575L122.496 380.909H122.604V372.364H124.342ZM130.043 384.176C129.225 384.176 128.511 383.989 127.901 383.614C127.291 383.239 126.818 382.714 126.481 382.04C126.144 381.366 125.975 380.578 125.975 379.676C125.975 378.771 126.144 377.979 126.481 377.301C126.818 376.623 127.291 376.097 127.901 375.722C128.511 375.347 129.225 375.159 130.043 375.159C130.861 375.159 131.575 375.347 132.185 375.722C132.795 376.097 133.269 376.623 133.606 377.301C133.943 377.979 134.111 378.771 134.111 379.676C134.111 380.578 133.943 381.366 133.606 382.04C133.269 382.714 132.795 383.239 132.185 383.614C131.575 383.989 130.861 384.176 130.043 384.176ZM130.049 382.75C130.579 382.75 131.019 382.61 131.367 382.33C131.716 382.049 131.973 381.676 132.14 381.21C132.31 380.744 132.395 380.231 132.395 379.67C132.395 379.114 132.31 378.602 132.14 378.136C131.973 377.667 131.716 377.29 131.367 377.006C131.019 376.722 130.579 376.58 130.049 376.58C129.515 376.58 129.072 376.722 128.719 377.006C128.371 377.29 128.111 377.667 127.941 378.136C127.774 378.602 127.691 379.114 127.691 379.67C127.691 380.231 127.774 380.744 127.941 381.21C128.111 381.676 128.371 382.049 128.719 382.33C129.072 382.61 129.515 382.75 130.049 382.75ZM137.234 384L134.666 375.273H136.422L138.132 381.682H138.217L139.933 375.273H141.689L143.393 381.653H143.478L145.177 375.273H146.933L144.37 384H142.638L140.865 377.699H140.734L138.961 384H137.234Z" fill="#141718"/>
<path d="M156.167 378H167.833" stroke="#141718" stroke-width="1.25" stroke-linecap="round" stroke-linejoin="round"/>
<path d="M162.833 383L167.833 378" stroke="#141718" stroke-width="1.25" stroke-linecap="round" stroke-linejoin="round"/>
<path d="M162.833 373L167.833 378" stroke="#141718" stroke-width="1.25" stroke-linecap="round" stroke-linejoin="round"/>
</svg>
